<?xml version="1.0" standalone="no"?>
<!DOCTYPE svg PUBLIC "-//W3C//DTD SVG 1.1//EN" "http://www.w3.org/Graphics/SVG/1.1/DTD/svg11.dtd" >
<svg>
<metadata>
Created by FontForge 20090914 at Tue Dec  8 05:06:38 2015
 By www-data
Copyright (c) 1996-2006 Parachute&#194;&#168;, www.parachute.gr.  All rights reserved.
</metadata>
<defs>
<font id="PFFusionSansPro-Black" horiz-adv-x="520" >
  <font-face 
    font-family="PF Fusion Sans Pro Black"
    font-weight="900"
    font-stretch="normal"
    units-per-em="1000"
    panose-1="2 0 10 6 3 0 0 2 0 4"
    ascent="850"
    descent="-150"
    x-height="617"
    cap-height="752"
    bbox="-249 -307.002 1391 1031"
    underline-thickness="90"
    underline-position="-180"
    unicode-range="U+0020-U+FB05"
  />
<missing-glyph 
d="M41 747h438v-747h-438v747zM366 82l-106 212l-108 -212h214zM366 665h-214l108 -212zM116 175l101 198l-101 197v-395zM403 177v394l-99 -198z" />
    <glyph glyph-name="fj" unicode="fj" horiz-adv-x="556" 
d="M9 616h48.999v55c0 44 12.667 80.333 38 109s64 43 116 43h207v-125h-129c-22 0 -36.833 -4 -44.5 -12s-11.5 -17.667 -11.5 -29v-41h287v-616c0 -41.333 -12.667 -74.5 -38 -99.5s-65.666 -37.5 -120.999 -37.5h-87v127h25c11.333 0 19.5 3 24.5 9s7.5 16.667 7.5 32
v488h-90v-519h-183v519h-50v97z" />
    <glyph glyph-name="ffj" unicode="ffj" horiz-adv-x="829" 
d="M794 616l-0.000976562 -616c0 -41.333 -12.667 -74.5 -38 -99.5s-65.666 -37.5 -120.999 -37.5h-87v127h25c11.333 0 19.5 3 24.5 9s7.5 16.667 7.5 32v488h-90v-519h-183v519h-91v-519h-183v519h-49v97h48v48c0 40 9.16699 70 27.5 90s50.5 30 96.5 30h113v-107h-26
c-14.667 0 -24.167 -2.83301 -28.5 -8.5s-6.5 -14.167 -6.5 -25.5v-27h98v55c0 44 12.667 80.333 38 109s64 43 116 43h207v-125h-129c-22 0 -36.833 -4 -44.5 -12s-11.5 -17.667 -11.5 -29v-41h287z" />
    <glyph glyph-name="ff" unicode="ff" horiz-adv-x="581" 
d="M514 519v-519h-183v519h-90v-519h-183v519h-49v97h48v48c0 40 9.16699 70 27.5 90s50.5 30 96.5 30h113v-107h-26c-14.667 0 -24.167 -2.83301 -28.5 -8.5s-6.5 -14.167 -6.5 -25.5v-27h97v78c0 40 9.16699 70 27.5 90s50.5 30 96.5 30h113v-112h-26
c-14.667 0 -24.167 -2.83301 -28.5 -8.5s-6.5 -14.167 -6.5 -25.5v-52h69v-97h-61z" />
    <glyph glyph-name="fi" unicode="fi" horiz-adv-x="556" 
d="M9 616h49v55c0 44 12.667 80.333 38 109s64 43 116 43h207v-125h-129c-22 0 -36.833 -4 -44.5 -12s-11.5 -17.667 -11.5 -29v-41h287v-616h-189v519h-90v-519h-183v519h-50v97z" />
    <glyph glyph-name="fl" unicode="fl" horiz-adv-x="555" 
d="M334 0v698h-44c-22 0 -36.833 -4 -44.5 -12s-11.5 -17.667 -11.5 -29v-41h68v-97h-60v-519h-183v519h-50v97h49v55c0 22 2.5 42.333 7.5 61s13.5 34.667 25.5 48s27.833 23.833 47.5 31.5s44.167 11.5 73.5 11.5h122l188 13v-836h-188z" />
    <glyph glyph-name="ffi" unicode="ffi" horiz-adv-x="829" 
d="M605 0v519h-90v-519h-183v519h-91v-519h-183v519h-49v97h48v48c0 40 9.16699 70 27.5 90s50.5 30 96.5 30h113v-107h-26c-14.667 0 -24.167 -2.83301 -28.5 -8.5s-6.5 -14.167 -6.5 -25.5v-27h98v55c0 44 12.667 80.333 38 109s64 43 116 43h207v-125h-129
c-22 0 -36.833 -4 -44.5 -12s-11.5 -17.667 -11.5 -29v-41h287v-616h-189z" />
    <glyph glyph-name="ffl" unicode="ffl" horiz-adv-x="828" 
d="M605 0v698h-44c-22 0 -36.833 -4 -44.5 -12s-11.5 -17.667 -11.5 -29v-41h68v-97h-60v-519h-183v519h-89v-519h-183v519h-49v97h48v48c0 40 9.16699 70 27.5 90s50.5 30 96.5 30h113v-107h-26c-14.667 0 -24.167 -2.83301 -28.5 -8.5s-6.5 -14.167 -6.5 -25.5v-27h96v55
c0 22 2.5 42.333 7.5 61s13.5 34.667 25.5 48s27.833 23.833 47.5 31.5s44.167 11.5 73.5 11.5h122l188 12v-835h-188z" />
    <glyph glyph-name="ft" unicode="ft" horiz-adv-x="600" 
d="M525 518l-0.00292969 -356.001c0 -30 3 -59.333 9 -88s14 -53.334 24 -74.001h-182c-3.33301 6 -7.16602 13.333 -11.499 22s-8.16602 19.334 -11.499 32.001s-6.16602 27.834 -8.49902 45.501s-3.5 38.5 -3.5 62.5v357h-100v-519h-183v519h-49v97h48v48
c0 40 9.16699 70 27.5 90s50.5 30 96.5 30h113v-107h-26c-14.667 0 -24.167 -2.83301 -28.5 -8.5s-6.5 -14.167 -6.5 -25.5v-26h108v107l184 40v-147h68v-99h-68z" />
    <glyph glyph-name=".notdef" 
d="M41 747h438v-747h-438v747zM366 82l-106 212l-108 -212h214zM366 665h-214l108 -212zM116 175l101 198l-101 197v-395zM403 177v394l-99 -198z" />
    <glyph glyph-name="space" unicode=" " horiz-adv-x="230" 
 />
    <glyph glyph-name="exclam" unicode="!" horiz-adv-x="269" 
d="M207 195h-142l-29 557h201zM51 0v151h171v-151h-171z" />
    <glyph glyph-name="quotedbl" unicode="&#x22;" horiz-adv-x="348" 
d="M43 499v252h115v-252h-115zM194 499v252h115v-252h-115z" />
    <glyph glyph-name="numbersign" unicode="#" 
d="M287 217h-104l-26 -196h-111l26 196h-53l14 111h53l15 106h-54l14 111h54l23 176h113l-24 -176h103l23 176h111l-22 -176h58l-14 -111h-58l-15 -106h58l-12 -111h-62l-25 -196h-111zM198 328h103l15 106h-103z" />
    <glyph glyph-name="dollar" unicode="$" 
d="M217 0c-35.333 4.66699 -63.4961 14.3311 -84.4961 28.998s-37 32.167 -48 52.5s-18.333 42.833 -22 67.5s-5.5 49.667 -5.5 75v39h171v-82c0 -6.66699 0.333008 -13.667 1 -21s2.16699 -14 4.5 -20s5.66602 -11 9.99902 -15s10.166 -6 17.499 -6
c15.333 0 25.166 6.33301 29.499 19s6.5 25.334 6.5 38.001c0 16.667 -1.5 31.334 -4.5 44.001s-8.5 24.5 -16.5 35.5s-18.667 21.667 -32 32s-30 21.833 -50 34.5c-24.667 15.333 -46 29.666 -64 42.999s-32.833 28 -44.5 44s-20.334 34.5 -26.001 55.5
s-8.5 46.833 -8.5 77.5c0 62 14.333 108.5 43 139.5s68 49.5 118 55.5v82h86v-82c34 -4 61.5 -12.667 82.5 -26s37.167 -29.166 48.5 -47.499s18.833 -38.5 22.5 -60.5s5.5 -44 5.5 -66v-31h-171v54c0 6 -0.166992 12.333 -0.5 19s-1.5 13 -3.5 19s-5 10.833 -9 14.5
s-10 5.5 -18 5.5c-12.667 0 -21 -5.5 -25 -16.5s-6 -22.167 -6 -33.5c0 -19.333 2.33301 -34.833 7 -46.5s11.667 -22 21 -31s21.5 -18 36.5 -27s32.5 -20.167 52.5 -33.5c24.667 -16 45.5 -31.5 62.5 -46.5s30.5 -31.333 40.5 -49s17.167 -37.834 21.5 -60.501
s6.5 -50 6.5 -82c0 -63.333 -14.333 -110.166 -43 -140.499s-70 -47.833 -124 -52.5v-89h-88v90z" />
    <glyph glyph-name="percent" unicode="%" horiz-adv-x="800" 
d="M771 126c0 -26.667 -4.16895 -48.5 -12.502 -65.5s-19.333 -30.5 -33 -40.5s-29.167 -16.833 -46.5 -20.5s-34.666 -5.5 -51.999 -5.5c-28 0 -51.5 3.5 -70.5 10.5s-34 16.833 -45 29.5s-18.833 27.834 -23.5 45.501s-7 37.5 -7 59.5v178c0 11.333 1.33301 25 4 41
s8.83398 31.167 18.501 45.5s24.167 26.666 43.5 36.999s46 15.5 80 15.5c44.667 0 79.667 -11.167 105 -33.5s38 -57.5 38 -105.5zM642.998 349c0 6 -0.833984 12 -2.50098 18s-6.16699 9 -13.5 9s-11.833 -3 -13.5 -9s-2.5 -12 -2.5 -18v-246
c0 -6.66699 1 -13.167 3 -19.5s6.66699 -9.5 14 -9.5c6.66699 0 10.834 3.16699 12.501 9.5s2.5 12.833 2.5 19.5v246zM317.997 429c0 -26.667 -4.16895 -48.5 -12.502 -65.5s-19.333 -30.5 -33 -40.5s-29.167 -16.833 -46.5 -20.5s-34.666 -5.5 -51.999 -5.5
c-28 0 -51.5 3.5 -70.5 10.5s-34 16.833 -45 29.5s-18.833 27.834 -23.5 45.501s-7 37.5 -7 59.5v178c0 11.333 1.33301 25 4 41s8.83398 31.167 18.501 45.5s24.167 26.666 43.5 36.999s46 15.5 80 15.5c44.667 0 79.667 -11.167 105 -33.5s38 -57.5 38 -105.5z
M189.995 652c0 6 -0.833984 12 -2.50098 18s-6.16699 9 -13.5 9s-11.833 -3 -13.5 -9s-2.5 -12 -2.5 -18v-246c0 -6.66699 1 -13.167 3 -19.5s6.66699 -9.5 14 -9.5c6.66699 0 10.834 3.16699 12.501 9.5s2.5 12.833 2.5 19.5v246zM272.994 -29h-108l361 811h106z" />
    <glyph glyph-name="ampersand" unicode="&#x26;" horiz-adv-x="591" 
d="M385 0l-18.998 38.999c-38.667 -33.333 -83.334 -50 -134.001 -50c-28 0 -53.333 5.33301 -76 16s-42.334 25.5 -59.001 44.5s-29.5 41.5 -38.5 67.5s-13.5 54.667 -13.5 86c0 46.667 9.66699 88.834 29 126.501s48.333 73.167 87 106.5
c-15.333 28.667 -27.666 55.834 -36.999 81.501s-14 51.5 -14 77.5c0 24 4.16699 46.167 12.5 66.5s20.166 37.833 35.499 52.5s33.5 26 54.5 34s44.5 12 70.5 12c50 0 89.5 -13.833 118.5 -41.5s43.5 -65.5 43.5 -113.5c0 -72 -33 -136 -99 -192l48 -90
c5.33301 12.667 9.66602 27.667 12.999 45s6.33301 38.666 9 63.999h141c-3.33301 -57.333 -11.666 -107.5 -24.999 -150.5s-32 -81.167 -56 -114.5l87 -167h-178zM309.002 599.999c0 20 -9 30.001 -27 30.001c-9.33301 0 -15.833 -2.83301 -19.5 -8.5
s-5.5 -12.167 -5.5 -19.5s1.5 -16.333 4.5 -27s9.16699 -24.334 18.5 -41.001c10.667 10.667 18.167 22 22.5 34s6.5 22.667 6.5 32zM233.002 299c-20.667 -22.667 -31 -49.333 -31 -80c0 -24.667 5.33301 -43.667 16 -57s23.667 -20 39 -20c14 0 28.667 7.33301 44 22z" />
    <glyph glyph-name="quotesingle" unicode="'" horiz-adv-x="214" 
d="M51 499v252h115v-252h-115z" />
    <glyph glyph-name="parenleft" unicode="(" horiz-adv-x="296" 
d="M36 336c0 42 3.66895 82.6641 11.002 121.997s17.333 77.166 30 113.499s27.5 71 44.5 104s35.167 64.167 54.5 93.5l106 -41c-16 -29.333 -29.833 -60.333 -41.5 -93s-21.334 -65.667 -29.001 -99s-13.5 -66.666 -17.5 -99.999s-6 -65.333 -6 -96
c0 -34 2.16699 -68.667 6.5 -104s10.5 -70.166 18.5 -104.499s17.833 -67.666 29.5 -99.999s25.167 -62.166 40.5 -89.499l-97 -46c-44.667 64.667 -80.834 133.167 -108.501 205.5s-41.5 150.5 -41.5 234.5z" />
    <glyph glyph-name="parenright" unicode=")" horiz-adv-x="296" 
d="M267 336c0 -84 -13.8311 -162.164 -41.498 -234.497s-63.834 -140.833 -108.501 -205.5l-97 46c14.667 27.333 28 57.166 40 89.499s22 65.666 30 99.999s14.167 69.166 18.5 104.499s6.5 70 6.5 104c0 30.667 -2 62.667 -6 96s-9.83301 66.666 -17.5 99.999
s-17.334 66.333 -29.001 99s-25.5 63.667 -41.5 93l106 41c19.333 -29.333 37.5 -60.5 54.5 -93.5s31.833 -67.667 44.5 -104s22.667 -74.166 30 -113.499s11 -80 11 -122z" />
    <glyph glyph-name="asterisk" unicode="*" horiz-adv-x="377" 
d="M306 474l-71 49v-86h-84v83l-72 -47l-48 65l90 59l-89 61l46 61l73 -47v84h84v-83l71 47l46 -65l-87 -59l87 -58z" />
    <glyph glyph-name="plus" unicode="+" 
d="M320 258v-167h-110v167h-163v113h163v167h110v-167h164v-113h-164z" />
    <glyph glyph-name="comma" unicode="," horiz-adv-x="207" 
d="M104 -123h-79l38 132h-35v164h151v-163z" />
    <glyph glyph-name="hyphen" unicode="-" horiz-adv-x="278" 
d="M19 243v130h241v-130h-241z" />
    <glyph glyph-name="period" unicode="." horiz-adv-x="214" 
d="M31 0v171h154v-171h-154z" />
    <glyph glyph-name="slash" unicode="/" horiz-adv-x="372" 
d="M139 -66h-139l227 868h138z" />
    <glyph glyph-name="zero" unicode="0" 
d="M480 207c0 -43.333 -6.33105 -79.1699 -18.998 -107.503s-29.334 -50.666 -50.001 -66.999s-43.834 -27.666 -69.501 -33.999s-51.5 -9.5 -77.5 -9.5c-42 0 -77.167 5.83301 -105.5 17.5s-51 28 -68 49s-29 46.167 -36 75.5s-10.5 62 -10.5 98v305
c0 12.667 0.666992 27.167 2 43.5s4.5 33 9.5 50s12.333 33.667 22 50s22.667 30.833 39 43.5s36.5 22.834 60.5 30.501s53 11.5 87 11.5c66 0 118.333 -18.667 157 -56s58 -95 58 -173zM296.002 589.996c0 6 -0.335938 12.334 -1.00293 19.001s-2 12.667 -4 18
s-5.16699 9.83301 -9.5 13.5s-10.166 5.5 -17.499 5.5s-13.166 -1.66699 -17.499 -5s-7.83301 -7.83301 -10.5 -13.5s-4.33398 -11.667 -5.00098 -18s-1 -12.5 -1 -18.5v-424c0 -6 0.333008 -12.5 1 -19.5s2.33398 -13.333 5.00098 -19s6.33398 -10.334 11.001 -14.001
s10.667 -5.5 18 -5.5c13.333 0 21.833 6.5 25.5 19.5s5.5 25.833 5.5 38.5v423z" />
    <glyph glyph-name="one" unicode="1" 
d="M207 0l0.000976562 576h-101v111h13c49.333 0 85.666 21.333 108.999 64h163v-751h-184z" />
    <glyph glyph-name="two" unicode="2" 
d="M51 0l0.00195312 173.003c0 19.333 0.5 37.166 1.5 53.499s3.5 31.5 7.5 45.5s10 27.333 18 40s19 25 33 37l151 126c9.33301 7.33301 16.666 17.833 21.999 31.5s8 31.167 8 52.5v45c0 19.333 -4 31.833 -12 37.5s-16.333 8.5 -25 8.5
c-2.66699 0 -6.16699 -0.5 -10.5 -1.5s-8.5 -3.16699 -12.5 -6.5s-7.33301 -8 -10 -14s-4 -14 -4 -24v-112h-165v73c0 29.333 4.5 56.166 13.5 80.499s22.167 45.166 39.5 62.499s38.666 30.833 63.999 40.5s54.666 14.5 87.999 14.5c36.667 0 68.334 -4.33301 95.001 -13
s48.334 -21.167 65.001 -37.5s29 -36.333 37 -60s12 -50.167 12 -79.5v-58c0 -14 -1.66699 -27.833 -5 -41.5s-7.83301 -26.167 -13.5 -37.5s-11.834 -21.5 -18.501 -30.5s-13.334 -16.5 -20.001 -22.5l-146 -124c-9.33301 -7.33301 -16.666 -14.5 -21.999 -21.5
s-9.33301 -14.5 -12 -22.5s-4.5 -17 -5.5 -27s-1.5 -21.333 -1.5 -34v-22h104v143h142v-275h-418z" />
    <glyph glyph-name="three" unicode="3" 
d="M255 763c75.333 0 129.832 -16.1689 163.499 -48.502s50.5 -80.833 50.5 -145.5c0 -17.333 -0.833008 -32.833 -2.5 -46.5s-5 -26.167 -10 -37.5s-12 -21.5 -21 -30.5s-20.833 -17.833 -35.5 -26.5v-3c18.667 -7.33301 33.167 -17.5 43.5 -30.5s17.833 -27.667 22.5 -44
s7.5 -33.666 8.5 -51.999s1.5 -36.5 1.5 -54.5v-19c0 -40 -3.66699 -74.667 -11 -104s-19.666 -53.833 -36.999 -73.5s-40.166 -34.334 -68.499 -44.001s-63.166 -14.5 -104.499 -14.5c-44 0 -79.833 5 -107.5 15s-49.167 24.667 -64.5 44s-25.833 43.5 -31.5 72.5
s-8.5 62.5 -8.5 100.5v93h183v-146c0 -6.66699 0.333008 -13.5 1 -20.5s2.16699 -13.5 4.5 -19.5s5.83301 -10.833 10.5 -14.5s11 -5.5 19 -5.5c12 0 20.167 5.66699 24.5 17s6.5 23 6.5 35v130c0 10.667 -0.333008 20.334 -1 29.001s-2.5 16 -5.5 22
s-8.16699 10.5 -15.5 13.5s-17.333 4.5 -30 4.5h-58v129h58c20 0 33.667 3.66699 41 11s11 21 11 41v58c0 4 -0.333008 8.66699 -1 14s-2.33398 10.666 -5.00098 15.999s-6.16699 9.83301 -10.5 13.5s-9.83301 5.5 -16.5 5.5c-8 0 -14.167 -2.33301 -18.5 -7
s-7.5 -10 -9.5 -16s-3.33301 -12.167 -4 -18.5s-1 -11.166 -1 -14.499v-67h-181v35c0 62.667 18.167 112.334 54.5 149.001s88.166 55 155.499 55z" />
    <glyph glyph-name="four" unicode="4" 
d="M435 132v-132h-184v132h-229v129l200 491h213v-491h52v-129h-52zM246 462l-75 -201h80v201h-5z" />
    <glyph glyph-name="five" unicode="5" 
d="M221 511c28.667 30 63.333 45.0029 104 45.0029c32.667 0 59 -5.33301 79 -16s35.5 -25.334 46.5 -44.001s18.333 -41 22 -67s5.5 -54 5.5 -84v-131c0 -37.333 -3.83301 -70 -11.5 -98s-20.334 -51.333 -38.001 -70s-40.667 -32.834 -69 -42.501
s-63.166 -14.5 -104.499 -14.5c-44 0 -80 5.5 -108 16.5s-49.833 26.5 -65.5 46.5s-26.5 44.333 -32.5 73s-9 60.667 -9 96v93h183v-152c0 -6.66699 0.333008 -13.334 1 -20.001s2.16699 -12.667 4.5 -18s6 -9.66602 11 -12.999s11.833 -5 20.5 -5
c13.333 0 22.5 4.66699 27.5 14s7.5 21.666 7.5 36.999v216c0 8 -0.333008 16 -1 24s-2 15.167 -4 21.5s-5.16699 11.666 -9.5 15.999s-10.5 6.5 -18.5 6.5s-14.5 -2.16699 -19.5 -6.5s-9 -9.66602 -12 -15.999s-5 -13.5 -6 -21.5s-1.5 -16 -1.5 -24l-181 30v349h401v-120
h-228v-117z" />
    <glyph glyph-name="six" unicode="6" 
d="M295 340c0 13.333 -2.83301 24.5 -8.5 33.5s-14.5 13.5 -26.5 13.5c-11.333 0 -20.166 -4.33301 -26.499 -13s-9.5 -20 -9.5 -34v-181c0 -14 2.5 -25.833 7.5 -35.5s14.167 -14.5 27.5 -14.5s22.666 5 27.999 15s8 21.667 8 35v181zM230 455
c11.333 18 25.6699 30.6689 43.0029 38.002s36.666 11 57.999 11c28 0 51.5 -5.16699 70.5 -15.5s34.333 -23.833 46 -40.5s20 -35.667 25 -57s7.5 -43 7.5 -65v-134c0 -43.333 -6.5 -78.333 -19.5 -105s-30 -47.334 -51 -62.001s-44.5 -24.334 -70.5 -29.001s-52 -7 -78 -7
c-42 0 -77.167 5 -105.5 15s-51 24.5 -68 43.5s-29 42.333 -36 70s-10.5 59.5 -10.5 95.5v331c0 34.667 3.83301 65.5 11.5 92.5s20.167 49.833 37.5 68.5s40 33 68 43s62.333 15 103 15c69.333 0 123 -15.167 161 -45.5s57 -79.833 57 -148.5v-27h-183v55
c0 15.333 -3.33301 27.5 -10 36.5s-16 13.5 -28 13.5c-7.33301 0 -13.333 -2 -18 -6s-8.33398 -9 -11.001 -15s-4.33398 -12.833 -5.00098 -20.5s-1 -15.167 -1 -22.5v-125z" />
    <glyph glyph-name="seven" unicode="7" 
d="M98 0l180 618h-76v-114h-138v247h391v-121l-176 -630h-181z" />
    <glyph glyph-name="eight" unicode="8" 
d="M478 218c0 -20 -1.00391 -41.333 -3.00391 -64s-6.66699 -43.334 -14 -62.001c-8 -20 -19.5 -36.667 -34.5 -50s-31.667 -24.166 -50 -32.499s-37.666 -14.333 -57.999 -18s-39.833 -5.5 -58.5 -5.5c-33.333 0 -63.5 4.33301 -90.5 13s-50 22 -69 40
s-33.833 41.333 -44.5 70s-16 63 -16 103c0 26.667 1 50.5 3 71.5s5.66699 39.667 11 56s13 30.5 23 42.5s23 22.667 39 32c-14 6.66699 -25.333 15.834 -34 27.501s-15.5 24.667 -20.5 39s-8.5 29.166 -10.5 44.499s-3 30 -3 44c0 30.667 5.16699 58.167 15.5 82.5
s24.833 44.833 43.5 61.5s40.834 29.334 66.501 38.001s53.834 13 84.501 13s59.167 -4 85.5 -12s49 -20 68 -36s33.833 -36.333 44.5 -61s16 -53.334 16 -86.001c0 -15.333 -1 -30.166 -3 -44.499s-5.83301 -28.166 -11.5 -41.499s-13.5 -25.833 -23.5 -37.5
s-23.333 -22.167 -40 -31.5c20.667 -9.33301 36.834 -20.833 48.501 -34.5s20 -28.834 25 -45.501s8 -34.834 9 -54.501s1.5 -40.167 1.5 -61.5zM293.996 589c0 6 -0.167969 12.501 -0.500977 19.501s-1.66602 13.5 -3.99902 19.5s-5.83301 10.833 -10.5 14.5
s-11 5.5 -19 5.5c-6.66699 0 -12 -2 -16 -6s-7.16699 -8.83301 -9.5 -14.5s-3.83301 -12 -4.5 -19s-1 -13.5 -1 -19.5v-74c0 -6 0.333008 -12.167 1 -18.5s2.16699 -12.333 4.5 -18s5.83301 -10.334 10.5 -14.001s10.667 -5.5 18 -5.5c13.333 0 21.833 6.16699 25.5 18.5
s5.5 24.833 5.5 37.5v74zM294.995 277.001c0 6.66699 -0.166992 13.5029 -0.5 20.5029s-1.66602 13.167 -3.99902 18.5s-5.83301 9.83301 -10.5 13.5s-11.334 5.5 -20.001 5.5c-7.33301 0 -13.166 -1.83301 -17.499 -5.5s-7.5 -8.33398 -9.5 -14.001
s-3.33301 -11.834 -4 -18.501s-1 -13.334 -1 -20.001v-108c0 -7.33301 0.166992 -14.666 0.5 -21.999s1.5 -13.833 3.5 -19.5s5.33301 -10.334 10 -14.001s11.334 -5.5 20.001 -5.5c7.33301 0 13.166 1.83301 17.499 5.5s7.66602 8.16699 9.99902 13.5
s3.83301 11.5 4.5 18.5s1 13.833 1 20.5v111z" />
    <glyph glyph-name="nine" unicode="9" 
d="M225 412c0 -13.333 2.83301 -24.5 8.5 -33.5s14.5 -13.5 26.5 -13.5c11.333 0 20.166 4.33301 26.499 13s9.5 20 9.5 34v181c0 14 -2.5 25.833 -7.5 35.5s-14.167 14.5 -27.5 14.5s-22.666 -5 -27.999 -15s-8 -21.667 -8 -35v-181zM290 297
c-11.333 -18 -25.668 -30.667 -43.001 -38s-36.666 -11 -57.999 -11c-28 0 -51.5 5.16699 -70.5 15.5s-34.333 23.833 -46 40.5s-20 35.667 -25 57s-7.5 43 -7.5 65v134c0 43.333 6.5 78.333 19.5 105s30 47.167 51 61.5s44.5 24 70.5 29s52 7.5 78 7.5
c42 0 77.167 -5 105.5 -15s51 -24.5 68 -43.5s29 -42.333 36 -70s10.5 -59.5 10.5 -95.5v-331c0 -34.667 -3.83301 -65.5 -11.5 -92.5s-20.167 -49.833 -37.5 -68.5s-40 -33 -68 -43s-62.333 -15 -103 -15c-69.333 0 -123 15 -161 45s-57 79.667 -57 149v27h183v-55
c0 -15.333 3.33301 -27.5 10 -36.5s16 -13.5 28 -13.5c14.667 0 24.167 7 28.5 21s6.5 28.333 6.5 43v125z" />
    <glyph glyph-name="colon" unicode=":" horiz-adv-x="218" 
d="M31 0v171h154v-171h-154zM31 372v171h154v-171h-154z" />
    <glyph glyph-name="semicolon" unicode=";" horiz-adv-x="218" 
d="M31 372v171h154v-171h-154zM109 -123h-79l38 132h-35v164h151v-163z" />
    <glyph glyph-name="less" unicode="&#x3c;" 
d="M47 269v94l437 206v-128l-290 -125l290 -124v-129z" />
    <glyph glyph-name="equal" unicode="=" 
d="M41 354v114h437v-114h-437zM41 157v113h437v-113h-437z" />
    <glyph glyph-name="greater" unicode="&#x3e;" 
d="M48 63v129l290 124l-290 125v128l437 -206v-94z" />
    <glyph glyph-name="question" unicode="?" horiz-adv-x="485" 
d="M457 567c0 -20 -2.16992 -38.1699 -6.50293 -54.5029s-10 -31.666 -17 -45.999s-15.333 -28 -25 -41l-30.5 -39.5l-57 -70c-17.333 -21.333 -27.666 -40.666 -30.999 -57.999s-5 -32.333 -5 -45v-18h-171v44c0 22 2.83301 45.833 8.5 71.5s20.5 52.834 44.5 81.501l48 57
c21.333 25.333 37.333 48 48 68s16 42 16 66c0 6 -0.166992 12.167 -0.5 18.5s-1.66602 12 -3.99902 17s-5.83301 9.16699 -10.5 12.5s-11.334 5 -20.001 5c-8 0 -14.167 -2 -18.5 -6s-7.66602 -9.16699 -9.99902 -15.5s-3.66602 -13 -3.99902 -20s-0.5 -13.5 -0.5 -19.5
v-61h-171v35c0 31.333 4 60 12 86s20.5 48.5 37.5 67.5s38.833 33.833 65.5 44.5s58.334 16 95.001 16c39.333 0 72.166 -4.83301 98.499 -14.5s47.5 -23 63.5 -40s27.5 -37.667 34.5 -62s10.5 -50.833 10.5 -79.5zM114.997 -0.00292969v151h171v-151h-171z" />
    <glyph glyph-name="at" unicode="@" horiz-adv-x="827" 
d="M372 153c-13.333 0 -26.668 1.66797 -40.001 5.00098s-25.333 8.66602 -36 15.999s-19.334 17 -26.001 29s-10 27 -10 45v52c0 16 1.83301 29.833 5.5 41.5s9.16699 21.834 16.5 30.501s16.666 16.334 27.999 23.001s24.666 13.667 39.999 21l56 25
c7.33301 3.33301 12.333 8.16602 15 14.499s4 12.166 4 17.499v24c0 20.667 -7.33301 31 -22 31c-8.66699 0 -14.167 -3 -16.5 -9s-3.5 -13 -3.5 -21v-50h-123v19c0 42 12.5 75.833 37.5 101.5s61.833 38.5 110.5 38.5c54.667 0 92.667 -12.667 114 -38
s32 -60.666 32 -105.999v-169c0 -11.333 3.66699 -19.666 11 -24.999s14 -8 20 -8c10.667 0 20.834 2 30.501 6s18 11.833 25 23.5s12.667 27.667 17 48s6.5 46.833 6.5 79.5c0 36.667 -4.33301 70.5 -13 101.5s-22.5 57.833 -41.5 80.5s-43.5 40.167 -73.5 52.5
s-66 18.5 -108 18.5c-50.667 0 -93 -8.33301 -127 -25s-61.333 -39 -82 -67s-35.334 -60.167 -44.001 -96.5s-13 -73.833 -13 -112.5c0 -99.333 21.167 -176 63.5 -230s106.833 -81 193.5 -81c30 0 59 3.33301 87 10s60 20.334 96 41.001l47 -99
c-38 -18.667 -75.5 -33.334 -112.5 -44.001s-74.167 -16 -111.5 -16c-56 0 -107.333 8.16699 -154 24.5s-86.5 41.5 -119.5 75.5s-58.667 77.333 -77 130s-27.5 115.667 -27.5 189c0 58 8.33301 112 25 162s41 93.5 73 130.5s71.5 66 118.5 87s100.833 31.5 161.5 31.5
c62.667 0 116.334 -9.5 161.001 -28.5s81.5 -45 110.5 -78s50.333 -71.5 64 -115.5s20.5 -91 20.5 -141c0 -48.667 -5.33301 -90 -16 -124s-25.167 -61.833 -43.5 -83.5s-40.166 -37.5 -65.499 -47.5s-52.333 -15 -81 -15c-5.33301 0 -12.166 0.666992 -20.499 2
s-17.166 3.66602 -26.499 6.99902s-18.5 8.16602 -27.5 14.499s-16.833 14.5 -23.5 24.5c-10.667 -12.667 -24.5 -23 -41.5 -31s-38.167 -12 -63.5 -12zM423.998 374.001c-12.667 -6.66699 -22.667 -13.999 -30 -21.999s-11 -17.333 -11 -28v-55
c0 -8.66699 0.833008 -17.334 2.5 -26.001s8.16699 -13 19.5 -13c9.33301 0 14.833 3.33301 16.5 10s2.5 14 2.5 22v112z" />
    <glyph glyph-name="A" unicode="A" horiz-adv-x="511" 
d="M308 0l-10 135h-78l-11 -135h-193l100 752h278l104 -752h-190zM255 614l-10 -150l-14 -195h55l-14 196l-10 149h-7z" />
    <glyph glyph-name="B" unicode="B" horiz-adv-x="518" 
d="M485 202c-1.33301 -64 -21.167 -113.666 -59.5 -148.999s-93.5 -53 -165.5 -53h-219v752h217c36.667 0 68.5 -3 95.5 -9s49.167 -16.333 66.5 -31s30.333 -34.167 39 -58.5s13 -54.833 13 -91.5c0 -43.333 -8.83301 -76.833 -26.5 -100.5s-41.167 -39.834 -70.5 -48.501
v-3c24 -6 43.167 -15 57.5 -27s25.5 -25.5 33.5 -40.5s13.333 -30.5 16 -46.5s4 -31 4 -45zM231.999 461.001c24.667 0.666992 41.332 7.16699 49.999 19.5s13 32.833 13 61.5c0 12.667 -0.5 23.667 -1.5 33s-3.66699 17.333 -8 24s-10.666 11.667 -18.999 15
s-19.833 5 -34.5 5v-158zM294.997 264.001c0 25.333 -5.16699 43.001 -15.5 53.001s-26.166 15.667 -47.499 17v-201c23.333 1.33301 39.666 7.16602 48.999 17.499s14 29.5 14 57.5v56z" />
    <glyph glyph-name="C" unicode="C" horiz-adv-x="519" 
d="M487 313l0.00195312 -110.997c0 -43.333 -6.66699 -78.833 -20 -106.5s-30.833 -49.334 -52.5 -65.001s-46.334 -26.5 -74.001 -32.5s-55.5 -9 -83.5 -9c-42 0 -77.167 5.5 -105.5 16.5s-51 26.833 -68 47.5s-29.167 45.334 -36.5 74.001s-11 61 -11 97v321
c0 12.667 0.666992 27 2 43s4.66602 32 9.99902 48s12.666 31.667 21.999 47s22.333 28.833 39 40.5s37 21.167 61 28.5s53 11 87 11c35.333 0 67.166 -4 95.499 -12s52.5 -20.833 72.5 -38.5s35.333 -40.334 46 -68.001s16 -60.834 16 -99.501v-78h-191v113
c0 6 -0.333008 12.333 -1 19s-2.33398 12.667 -5.00098 18s-6.16699 9.83301 -10.5 13.5s-10.166 5.5 -17.499 5.5c-14.667 0 -24.167 -6.16699 -28.5 -18.5s-6.5 -24.5 -6.5 -36.5v-404c0 -6 0.333008 -12.5 1 -19.5s2.33398 -13.333 5.00098 -19
s6.33398 -10.334 11.001 -14.001s10.667 -5.5 18 -5.5c13.333 0 22.333 6.5 27 19.5s7 25.833 7 38.5v136h191z" />
    <glyph glyph-name="D" unicode="D" horiz-adv-x="518" 
d="M483 224c0 -36 -2.66797 -68 -8.00098 -96s-15.666 -51.5 -30.999 -70.5s-36.833 -33.333 -64.5 -43s-63.5 -14.5 -107.5 -14.5h-231v752h206c51.333 0 92.5 -5.16699 123.5 -15.5s54.833 -25.833 71.5 -46.5s27.667 -46.167 33 -76.5s8 -65.5 8 -105.5v-284z
M291.999 533c0 14.667 -0.333008 27.333 -1 38s-3 19.667 -7 27s-10 12.833 -18 16.5s-19.333 5.5 -34 5.5v-487c14.667 0 26 3.33301 34 10s14 15.167 18 25.5s6.33301 21.5 7 33.5s1 23.333 1 34v297z" />
    <glyph glyph-name="E" unicode="E" horiz-adv-x="391" 
d="M41 0v752h318v-140h-128v-146h120v-141h-120v-184h141v-141h-331z" />
    <glyph glyph-name="F" unicode="F" horiz-adv-x="374" 
d="M232 612v-146h118v-141h-118v-325h-191v752h323v-140h-132z" />
    <glyph glyph-name="G" unicode="G" horiz-adv-x="517" 
d="M347 54c-13.333 -22 -30.5 -38.165 -51.5 -48.498s-43.167 -15.5 -66.5 -15.5c-38 0 -69.333 4.83301 -94 14.5s-44.334 23.667 -59.001 42s-25 41.166 -31 68.499s-9 59 -9 95v335c0 19.333 2.16699 41.5 6.5 66.5s14.166 48.833 29.499 71.5s37.833 41.667 67.5 57
s70.167 23 121.5 23c70.667 0 126 -16.833 166 -50.5s60 -89.5 60 -167.5v-78h-191v113c0 6 -0.333008 12.333 -1 19s-2.33398 12.667 -5.00098 18s-6.16699 9.83301 -10.5 13.5s-10.166 5.5 -17.499 5.5c-14.667 0 -24.167 -6.16699 -28.5 -18.5s-6.5 -24.5 -6.5 -36.5
v-404c0 -6 0.333008 -12.5 1 -19.5s2.33398 -13.333 5.00098 -19s6.33398 -10.334 11.001 -14.001s10.667 -5.5 18 -5.5c14.667 0 24 5.5 28 16.5s6 23.5 6 37.5v116h-33v115h224v-404h-116l-21 54h-3z" />
    <glyph glyph-name="H" unicode="H" horiz-adv-x="531" 
d="M299 0v325h-67v-325h-191v752h191v-286h67v286h191v-752h-191z" />
    <glyph glyph-name="I" unicode="I" horiz-adv-x="272" 
d="M41 0v752h190v-752h-190z" />
    <glyph glyph-name="J" unicode="J" horiz-adv-x="485" 
d="M204 169c0 -12.667 1.99707 -24.167 5.99707 -34.5s12.333 -15.5 25 -15.5c11.333 0 18.833 5.66699 22.5 17s5.5 23.333 5.5 36v580h191v-519c0 -26.667 -2.16699 -54.334 -6.5 -83.001s-14 -55 -29 -79s-37.5 -43.667 -67.5 -59s-70.333 -23 -121 -23
c-45.333 0 -82.166 6.16699 -110.499 18.5s-50.166 29.5 -65.499 51.5s-25.666 47.833 -30.999 77.5s-8 61.834 -8 96.501v69h189v-133z" />
    <glyph glyph-name="K" unicode="K" horiz-adv-x="513" 
d="M238 478l73 274h188l-114 -339l121 -413h-197l-73 304h-4v-304h-191v752h191v-274h6z" />
    <glyph glyph-name="L" unicode="L" horiz-adv-x="358" 
d="M41 0v752h191v-601h116v-151h-307z" />
    <glyph glyph-name="M" unicode="M" horiz-adv-x="695" 
d="M354 355l34 217l30 180h231v-752h-174v378h-5l-30 -138l-34 -131h-113l-37 134l-31 129h-5v-372h-179v752h220l39 -176l46 -221h8z" />
    <glyph glyph-name="N" unicode="N" horiz-adv-x="538" 
d="M323 400v352h174v-752h-182l-54 198l-39 158h-6v-356h-175v752h175l56 -189l45 -163h6z" />
    <glyph glyph-name="O" unicode="O" horiz-adv-x="512" 
d="M477 202c0 -43.333 -6.66504 -78.8311 -19.998 -106.498s-30.5 -49.334 -51.5 -65.001s-44.5 -26.5 -70.5 -32.5s-52 -9 -78 -9c-42 0 -77.167 5.5 -105.5 16.5s-51 26.833 -68 47.5s-29.167 45.334 -36.5 74.001s-11 61 -11 97v321c0 12.667 0.666992 27 2 43
s4.66602 32 9.99902 48s12.666 31.667 21.999 47s22.333 28.833 39 40.5s37 21.167 61 28.5s53 11 87 11c32.667 0 62.667 -4 90 -12s50.5 -20.833 69.5 -38.5s33.833 -40.334 44.5 -68.001s16 -60.834 16 -99.501v-343zM286.002 580.002c0 6 -0.166992 12.333 -0.5 19
s-1.33301 12.667 -3 18s-4.5 9.83301 -8.5 13.5s-9.66699 5.5 -17 5.5s-13 -1.66699 -17 -5s-7 -7.83301 -9 -13.5s-3.16699 -11.667 -3.5 -18s-0.5 -12.5 -0.5 -18.5v-404c0 -6 0.166992 -12.5 0.5 -19.5s1.5 -13.333 3.5 -19s5.16699 -10.334 9.5 -14.001
s10.166 -5.5 17.499 -5.5c6.66699 0 11.834 1.83301 15.501 5.5s6.5 8.33398 8.5 14.001s3.16699 12 3.5 19s0.5 13.5 0.5 19.5v403z" />
    <glyph glyph-name="P" unicode="P" horiz-adv-x="486" 
d="M471 542c0 -41.333 -4.49902 -76.333 -13.499 -105s-22.5 -51.834 -40.5 -69.501s-40.333 -30.5 -67 -38.5s-57.334 -12 -92.001 -12h-27v-317h-190v752h213c78 0 133.667 -17.167 167 -51.5s50 -87.166 50 -158.499zM231.001 446h11.001c20 0 34.167 7.5 42.5 22.5
s12.5 38.167 12.5 69.5c0 33.333 -4.83301 55.833 -14.5 67.5s-23.834 17.5 -42.501 17.5h-9v-177z" />
    <glyph glyph-name="Q" unicode="Q" horiz-adv-x="512" 
d="M477 202c0 -36 -4.49805 -66.3311 -13.498 -90.998s-21 -45.167 -36 -61.5s-32.333 -28.833 -52 -37.5s-40.167 -14.667 -61.5 -18v-5c0 -10 3.16699 -16.333 9.5 -19s15.166 -4 26.499 -4h31v-102h-91c-34 0 -58.167 7.83301 -72.5 23.5s-21.5 37.5 -21.5 65.5v41
c-30 4.66699 -55.333 13.5 -76 26.5s-37.167 29.5 -49.5 49.5s-21.166 42.833 -26.499 68.5s-8 54.167 -8 85.5v321c0 12.667 0.666992 27 2 43s4.66602 32 9.99902 48s12.666 31.667 21.999 47s22.333 28.833 39 40.5s37 21.167 61 28.5s53 11 87 11
c32.667 0 62.667 -4 90 -12s50.5 -20.833 69.5 -38.5s33.833 -40.334 44.5 -68.001s16 -60.834 16 -99.501v-343zM286.002 580.002c0 6 -0.166992 12.333 -0.5 19s-1.33301 12.667 -3 18s-4.5 9.83301 -8.5 13.5s-9.66699 5.5 -17 5.5s-13 -1.66699 -17 -5
s-7 -7.83301 -9 -13.5s-3.16699 -11.667 -3.5 -18s-0.5 -12.5 -0.5 -18.5v-404c0 -6 0.166992 -12.5 0.5 -19.5s1.5 -13.333 3.5 -19s5.16699 -10.334 9.5 -14.001s10.166 -5.5 17.499 -5.5c6.66699 0 11.834 1.83301 15.501 5.5s6.5 8.33398 8.5 14.001s3.16699 12 3.5 19
s0.5 13.5 0.5 19.5v403z" />
    <glyph glyph-name="R" unicode="R" horiz-adv-x="505" 
d="M402 397c27.333 -10.667 45.668 -24.6689 55.001 -42.002s14 -41.666 14 -72.999v-210c0 -14 0.333008 -26.667 1 -38s4.66699 -22.666 12 -33.999h-176c-5.33301 9.33301 -8.83301 20.5 -10.5 33.5s-2.5 27.833 -2.5 44.5v172c0 31.333 -4.5 53.833 -13.5 67.5
s-25.833 21.167 -50.5 22.5v-340h-190v753h259c56 0 98.5 -15.5 127.5 -46.5s43.5 -80.833 43.5 -149.5c0 -44.667 -4.83301 -79 -14.5 -103s-27.834 -41.667 -54.501 -53v-4zM231.002 623.998v-167.999c14 0.666992 25.167 2 33.5 4s14.666 6.16699 18.999 12.5
s7.33301 15.166 9 26.499s2.5 26.333 2.5 45c0 16 -0.666992 29.167 -2 39.5s-4.16602 18.5 -8.49902 24.5s-10.5 10.167 -18.5 12.5s-19 3.5 -33 3.5h-2z" />
    <glyph glyph-name="S" unicode="S" horiz-adv-x="485" 
d="M461 192c0 -36.667 -4.99902 -67.835 -14.999 -93.502s-24.333 -46.667 -43 -63s-41.334 -28.166 -68.001 -35.499s-57 -11 -91 -11c-48 0 -86.167 6.83301 -114.5 20.5s-49.833 31.667 -64.5 54s-24 47.5 -28 75.5s-6 56.667 -6 86v52h177v-96
c0 -7.33301 0.333008 -14.666 1 -21.999s2.16699 -14.333 4.5 -21s5.83301 -12 10.5 -16s10.667 -6 18 -6c8 0 14.5 1.83301 19.5 5.5s8.83301 8.33398 11.5 14.001s4.5 12 5.5 19s1.5 13.833 1.5 20.5c0 20.667 -1.5 37.667 -4.5 51s-8.5 25.333 -16.5 36
s-18.833 20.834 -32.5 30.501s-31.5 21.5 -53.5 35.5c-26 16.667 -48.333 32.167 -67 46.5s-34 29.666 -46 45.999s-20.833 35.333 -26.5 57s-8.5 48.167 -8.5 79.5c0 36 5.16699 67 15.5 93s25 47.333 44 64s41.5 29 67.5 37s55 12 87 12c46 0 82.667 -6.33301 110 -19
s48.166 -29 62.499 -49s23.666 -42.5 27.999 -67.5s6.5 -50.167 6.5 -75.5v-43h-178v67c0 15.333 -2 29.166 -6 41.499s-12.667 18.5 -26 18.5s-22 -5.66699 -26 -17s-6 -23 -6 -35c0 -19.333 2.33301 -35.166 7 -47.499s11.834 -23.333 21.501 -33s22 -19.167 37 -28.5
l54.5 -34c30.667 -19.333 55 -37.5 73 -54.5s31.833 -34.667 41.5 -53s15.834 -38.833 18.501 -61.5s4 -49.334 4 -80.001z" />
    <glyph glyph-name="T" unicode="T" horiz-adv-x="443" 
d="M316 612v-612h-191v612h-113v140h417v-140h-113z" />
    <glyph glyph-name="U" unicode="U" horiz-adv-x="517" 
d="M479 753v-551c0 -43.333 -6.66699 -78.833 -20 -106.5s-30.5 -49.334 -51.5 -65.001s-44.5 -26.5 -70.5 -32.5s-52 -9 -78 -9c-42 0 -77.167 5.5 -105.5 16.5s-51 26.833 -68 47.5s-29.167 45.334 -36.5 74.001s-11 61 -11 97v529h191v-576
c0 -6 0.166992 -12.5 0.5 -19.5s1.5 -13.333 3.5 -19s5.16699 -10.334 9.5 -14.001s10.166 -5.5 17.499 -5.5c6.66699 0 11.834 1.83301 15.501 5.5s6.5 8.33398 8.5 14.001s3.16699 12 3.5 19s0.5 13.5 0.5 19.5v576h191z" />
    <glyph glyph-name="V" unicode="V" horiz-adv-x="510" 
d="M407 0h-290l-110 752h201l25 -296l23 -289h7l19 290l21 295h201z" />
    <glyph glyph-name="W" unicode="W" horiz-adv-x="776" 
d="M684 0h-238l-26 190l-30 229h-5l-27 -233l-23 -186h-237l-85 752h185l20 -281l17 -247h4l24 248l29 280h195l21 -277l21 -256h4l24 252l27 281h185z" />
    <glyph glyph-name="X" unicode="X" horiz-adv-x="482" 
d="M235 254l-32 -254h-197l97 393l-86 359h200l23 -219h6l24 219h194l-89 -359l98 -393h-199l-33 254h-6z" />
    <glyph glyph-name="Y" unicode="Y" horiz-adv-x="469" 
d="M319 272v-272h-177v272l-135 480h179l23 -152l22 -168h4l25 170l25 150h173z" />
    <glyph glyph-name="Z" unicode="Z" horiz-adv-x="385" 
d="M15 0v121l152 491h-134v140h334v-129l-147 -481h147v-142h-352z" />
    <glyph glyph-name="bracketleft" unicode="[" horiz-adv-x="267" 
d="M41 -83v835h207v-116h-51v-603h51v-116h-207z" />
    <glyph glyph-name="backslash" unicode="\" horiz-adv-x="372" 
d="M1 802h138l227 -868h-139z" />
    <glyph glyph-name="bracketright" unicode="]" horiz-adv-x="267" 
d="M22 -83v116h51v603h-51v116h207v-835h-207z" />
    <glyph glyph-name="asciicircum" unicode="^" 
d="M363 377l-98 229l-98 -229h-126l177 376h94l176 -376h-125z" />
    <glyph glyph-name="underscore" unicode="_" horiz-adv-x="500" 
d="M0 -136v89h500v-89h-500z" />
    <glyph glyph-name="grave" unicode="`" horiz-adv-x="480" 
d="M261 650l-171 151l120 97l135 -186z" />
    <glyph glyph-name="a" unicode="a" horiz-adv-x="484" 
d="M261 47c-12 -17.333 -26.3359 -31.3389 -43.0029 -42.0059s-36.334 -16 -59.001 -16c-40 0 -71.5 10.333 -94.5 31s-34.5 50.334 -34.5 89.001v92c0 22.667 2.33301 41.834 7 57.501s12 29.334 22 41.001s23 22.167 39 31.5s35.667 19.333 59 30l77 35
c10 4.66699 17 11.334 21 20.001s6 17 6 25v33c0 15.333 -2.16699 26.5 -6.5 33.5s-12.166 10.5 -23.499 10.5c-12 0 -19.833 -4.16699 -23.5 -12.5s-5.5 -18.166 -5.5 -29.499v-70h-172v27c0 66.667 18.167 115.834 54.5 147.501s87.833 47.5 154.5 47.5
c44.667 0 80.334 -5.33301 107.001 -16s47.334 -25.667 62.001 -45s24.334 -42.333 29.001 -69s7 -55.667 7 -87v-411h-166l-10 47h-7zM259.997 280.994c-18.667 -8.66699 -33.002 -18.667 -43.002 -30s-15 -24.333 -15 -39v-59c0 -12.667 1.33301 -25 4 -37
s11.667 -18 27 -18c6.66699 0 11.834 1.83301 15.501 5.5s6.33398 8.5 8.00098 14.5s2.66699 12.333 3 19s0.5 13 0.5 19v125z" />
    <glyph glyph-name="b" unicode="b" horiz-adv-x="487" 
d="M216 40l-9.99805 -40.002h-170v772h183v-196l5 -3c14 16 28.5 29.167 43.5 39.5s34.167 15.5 57.5 15.5c28.667 0 51.667 -5.33301 69 -16s30.666 -25 39.999 -43s15.5 -38.333 18.5 -61s4.5 -46 4.5 -70v-291c0 -22 -2.16699 -42.5 -6.5 -61.5s-11.5 -35.667 -21.5 -50
s-23.333 -25.666 -40 -33.999s-37.334 -12.5 -62.001 -12.5c-24 0 -44.167 4.83301 -60.5 14.5s-31.833 22.834 -46.5 39.501zM274.002 450.998c0 6 -0.166016 12.3311 -0.499023 18.998s-1.33301 12.667 -3 18s-4.16699 9.83301 -7.5 13.5s-8.33301 5.5 -15 5.5
s-11.834 -1.66699 -15.501 -5s-6.5 -7.66602 -8.5 -12.999s-3.33301 -11.166 -4 -17.499s-1 -12.5 -1 -18.5v-295c0 -11.333 1.83301 -22.5 5.5 -33.5s11.5 -16.5 23.5 -16.5s19.333 5.66699 22 17s4 22.333 4 33v293z" />
    <glyph glyph-name="c" unicode="c" horiz-adv-x="464" 
d="M441 254v-45.0039c0 -71.333 -15.833 -125.666 -47.5 -162.999s-83.167 -56 -154.5 -56c-43.333 0 -78.5 5.83301 -105.5 17.5s-48.167 27.334 -63.5 47.001s-25.833 42.334 -31.5 68.001s-8.5 52.834 -8.5 81.501v204c0 146 69.667 219 209 219
c32 0 60.667 -3.66699 86 -11s46.5 -19.5 63.5 -36.5s30 -39.333 39 -67s13.5 -61.834 13.5 -102.501v-26h-173v80c0 11.333 -1.5 22.833 -4.5 34.5s-10.833 17.5 -23.5 17.5c-6.66699 0 -12 -1.66699 -16 -5s-7 -7.5 -9 -12.5s-3.16699 -10.667 -3.5 -17
s-0.5 -12.166 -0.5 -17.499v-316c0 -12 1.5 -23.167 4.5 -33.5s11.167 -15.5 24.5 -15.5c12.667 0 20.5 5.16699 23.5 15.5s4.5 21.5 4.5 33.5v106h173z" />
    <glyph glyph-name="d" unicode="d" horiz-adv-x="487" 
d="M268 43c-14.667 -16.667 -30.166 -29.832 -46.499 -39.499s-36.5 -14.5 -60.5 -14.5c-25.333 0 -46.333 4.16699 -63 12.5s-30 19.666 -40 33.999s-17 31 -21 50s-6 39.5 -6 61.5v291c0 24 1.5 47.333 4.5 70s9.16699 43 18.5 61s22.666 32.333 39.999 43
s40.333 16 69 16c23.333 0 42.5 -4.16699 57.5 -12.5s29.5 -20.5 43.5 -36.5l5 3v190h183v-772h-170l-10 40zM214.001 158.002c0 -10.667 1.33398 -21.665 4.00098 -32.998s10 -17 22 -17s19.833 5.5 23.5 16.5s5.5 22.167 5.5 33.5v295c0 6 -0.333008 12.167 -1 18.5
s-2 12.166 -4 17.499s-4.83301 9.66602 -8.5 12.999s-8.83398 5 -15.501 5s-11.667 -1.83301 -15 -5.5s-5.83301 -8.16699 -7.5 -13.5s-2.66699 -11.333 -3 -18s-0.5 -13 -0.5 -19v-293z" />
    <glyph glyph-name="e" unicode="e" horiz-adv-x="480" 
d="M268 409v54.999c0 11.333 -1.5 22.833 -4.5 34.5s-10.833 17.5 -23.5 17.5c-6.66699 0 -12 -1.66699 -16 -5s-7 -7.5 -9 -12.5s-3.16699 -10.667 -3.5 -17s-0.5 -12.166 -0.5 -17.499v-55h57zM211 300.999l-0.00292969 -153.003c0 -12 1.5 -23.167 4.5 -33.5
s11.167 -15.5 24.5 -15.5c12.667 0 20.5 5.16699 23.5 15.5s4.5 21.5 4.5 33.5v109h181v-48c0 -71.333 -17.667 -125.666 -53 -162.999s-87.666 -56 -156.999 -56c-43.333 0 -78.5 5.83301 -105.5 17.5s-48.167 27.334 -63.5 47.001s-25.833 42.334 -31.5 68.001
s-8.5 52.834 -8.5 81.501v204c0 146 69.667 219 209 219c30 0 57.833 -3.66699 83.5 -11s47.834 -19.5 66.501 -36.5s33.334 -39.333 44.001 -67s16 -61.834 16 -102.501v-109h-238z" />
    <glyph glyph-name="f" unicode="f" horiz-adv-x="308" 
d="M241 514v-514h-183v514h-49v102h48v48c0 40 9.16699 70 27.5 90s50.5 30 96.5 30h113v-107h-26c-14.667 0 -24.167 -2.83301 -28.5 -8.5s-6.5 -14.167 -6.5 -25.5v-27h69v-102h-61z" />
    <glyph glyph-name="g" unicode="g" horiz-adv-x="544" 
d="M97 114c-26.667 11.333 -45.835 23.166 -57.502 35.499s-17.5 31.166 -17.5 56.499c0 20 7.5 39.333 22.5 58s37.5 33.334 67.5 44.001c-21.333 14 -37.333 31.333 -48 52s-16 46 -16 76c0 60.667 19.5 107.834 58.5 141.501s92.167 50.5 159.5 50.5
c78.667 0 136.667 -17 174 -51c12.667 14 29.334 27 50.001 39s42 19.667 64 23v-109c-31.333 0 -57 -4 -77 -12c3.33301 -9.33301 5.5 -20 6.5 -32s1.5 -26 1.5 -42c0 -22.667 -4.5 -44.334 -13.5 -65.001s-22.5 -39 -40.5 -55s-40.667 -28.667 -68 -38
s-59.666 -14 -96.999 -14c-8 0 -15.167 0.166992 -21.5 0.5s-13.166 0.833008 -20.499 1.5l-21.5 -12.5c-5 -3 -7.5 -6.83301 -7.5 -11.5c0 -9.33301 7.33301 -15 22 -17s31.334 -3 50.001 -3c82.667 0 145.834 -14 189.501 -42s65.5 -76 65.5 -144
c0 -26.667 -5.66699 -51.667 -17 -75s-28 -43.833 -50 -61.5s-49.333 -31.5 -82 -41.5s-70.334 -15 -113.001 -15c-48 0 -87.333 4.5 -118 13.5s-54.834 20.833 -72.501 35.5s-30 31.334 -37 50.001s-10.5 37.667 -10.5 57c0 24 7.16699 45 21.5 63s32.166 31.667 53.499 41
v3zM298.999 474c0 14 -2.5 24.833 -7.5 32.5s-13.5 11.5 -25.5 11.5c-20 0 -30 -14.667 -30 -44v-54c0 -13.333 2 -23.5 6 -30.5s12 -10.5 24 -10.5s20.5 3.33301 25.5 10s7.5 17 7.5 31v54zM231.999 102c-9.33301 -4.66699 -17.832 -11.667 -25.499 -21
s-11.5 -23 -11.5 -41c0 -7.33301 0.833008 -14.666 2.5 -21.999s5 -13.833 10 -19.5s12 -10.334 21 -14.001s21.167 -5.5 36.5 -5.5c25.333 0 43.666 6.5 54.999 19.5s17 26.167 17 39.5c0 19.333 -4.33301 33.5 -13 42.5s-23.667 15.167 -45 18.5c-13.333 2 -29 3 -47 3z
" />
    <glyph glyph-name="h" unicode="h" horiz-adv-x="491" 
d="M224 579c14.667 15.333 30.835 27.332 48.502 35.999s36.5 13 56.5 13c30 0 53.667 -5 71 -15s30.333 -23.167 39 -39.5s14.167 -35.333 16.5 -57s3.5 -44.5 3.5 -68.5v-448h-183v453c0 6 -0.166992 12.167 -0.5 18.5s-1.33301 12.166 -3 17.499
s-4.33398 9.66602 -8.00098 12.999s-8.83398 5 -15.501 5c-6 0 -11 -1.66699 -15 -5s-7 -7.66602 -9 -12.999s-3.33301 -11.166 -4 -17.499s-1 -12.166 -1 -17.499v-454h-184v772h183v-192z" />
    <glyph glyph-name="i" unicode="i" horiz-adv-x="259" 
d="M36 652v120h188v-120h-188zM36 0v617h188v-617h-188z" />
    <glyph glyph-name="j" unicode="j" horiz-adv-x="265" 
d="M41 652v120h189v-120h-189zM230 92c0 -32 -1.33203 -61.833 -3.99902 -89.5s-9.33398 -51.667 -20.001 -72s-26.667 -36.5 -48 -48.5s-50.333 -18 -87 -18h-87v127h25c11.333 0 19.5 3 24.5 9s7.5 16.667 7.5 32v585h189v-525z" />
    <glyph glyph-name="k" unicode="k" horiz-adv-x="473" 
d="M226 444l54 173h188l-103 -249l102 -368h-185l-57 251h-6v-251h-183v752h183v-308h7z" />
    <glyph glyph-name="l" unicode="l" horiz-adv-x="259" 
d="M36 0v752h188v-752h-188z" />
    <glyph glyph-name="m" unicode="m" horiz-adv-x="721" 
d="M217 565c13.333 18.667 29.6709 33.8301 49.0039 45.4971s41 17.5 65 17.5c25.333 0 47.666 -6.16699 66.999 -18.5s35.666 -29.5 48.999 -51.5c14 21.333 30.667 38.333 50 51s41.666 19 66.999 19c28.667 0 51.334 -5.16699 68.001 -15.5s29.334 -24 38.001 -41
s14 -36.667 16 -59s3 -45.166 3 -68.499v-444h-179v461c0 6 -0.166992 12.167 -0.5 18.5s-1.5 12.166 -3.5 17.499s-4.83301 9.83301 -8.5 13.5s-8.83398 5.5 -15.501 5.5s-12 -1.83301 -16 -5.5s-7 -8.16699 -9 -13.5s-3.33301 -11.166 -4 -17.499s-1 -12.166 -1 -17.499
v-462h-181v461c0 6 -0.166992 12.167 -0.5 18.5s-1.33301 12.166 -3 17.499s-4.33398 9.83301 -8.00098 13.5s-8.83398 5.5 -15.501 5.5c-6 0 -11 -1.83301 -15 -5.5s-7 -8.16699 -9 -13.5s-3.33301 -11.166 -4 -17.499s-1 -12.166 -1 -17.499v-462h-179v617h164l11 -52h6z
" />
    <glyph glyph-name="n" unicode="n" horiz-adv-x="491" 
d="M222 566c26 41.333 63.335 61.998 112.002 61.998c30 0 53.333 -5.66699 70 -17s29 -26.166 37 -44.499s12.833 -39 14.5 -62s2.5 -46.167 2.5 -69.5v-435h-183v456c0 6 -0.333008 12.167 -1 18.5s-1.83398 12.166 -3.50098 17.499s-4.33398 9.66602 -8.00098 12.999
s-8.5 5 -14.5 5s-11 -1.66699 -15 -5s-7 -7.66602 -9 -12.999s-3.5 -11.166 -4.5 -17.499s-1.5 -12.166 -1.5 -17.499v-457h-182v617h170l12 -50z" />
    <glyph glyph-name="o" unicode="o" horiz-adv-x="480" 
d="M449 209c0 -71.333 -17.6699 -125.669 -53.0029 -163.002s-87.666 -56 -156.999 -56c-43.333 0 -78.5 5.83301 -105.5 17.5s-48.167 27.334 -63.5 47.001s-25.833 42.334 -31.5 68.001s-8.5 52.834 -8.5 81.501v204c0 146 69.667 219 209 219
c30 0 57.833 -3.66699 83.5 -11s47.834 -19.5 66.501 -36.5s33.334 -39.333 44.001 -67s16 -61.834 16 -102.501v-201zM267.997 463.997c0 11.333 -1.5 22.832 -4.5 34.499s-10.833 17.5 -23.5 17.5c-6.66699 0 -12 -1.66699 -16 -5s-7 -7.5 -9 -12.5
s-3.16699 -10.667 -3.5 -17s-0.5 -12.166 -0.5 -17.499v-316c0 -12 1.5 -23.167 4.5 -33.5s11.167 -15.5 24.5 -15.5c12.667 0 20.5 5.16699 23.5 15.5s4.5 21.5 4.5 33.5v316z" />
    <glyph glyph-name="p" unicode="p" horiz-adv-x="487" 
d="M220 574c14.667 16.667 30.165 29.832 46.498 39.499s36.5 14.5 60.5 14.5c24.667 0 45.334 -4.16699 62.001 -12.5s30 -19.666 40 -33.999s17.167 -31 21.5 -50s6.5 -39.5 6.5 -61.5v-291c0 -24 -1.5 -47.333 -4.5 -70s-9.16699 -43 -18.5 -61
s-22.666 -32.333 -39.999 -43s-40.333 -16 -69 -16c-23.333 0 -42.5 4.16699 -57.5 12.5s-29.5 20.5 -43.5 36.5l-5 -3v-171h-183v753h170l10 -40zM273.998 458.998c0 10.667 -1.33398 21.665 -4.00098 32.998s-10 17 -22 17s-19.833 -5.5 -23.5 -16.5
s-5.5 -22.167 -5.5 -33.5v-295c0 -6 0.333008 -12.167 1 -18.5s2 -12.166 4 -17.499s4.83301 -9.66602 8.5 -12.999s8.83398 -5 15.501 -5s11.667 1.83301 15 5.5s5.83301 8.16699 7.5 13.5s2.66699 11.333 3 18s0.5 13 0.5 19v293z" />
    <glyph glyph-name="q" unicode="q" horiz-adv-x="486" 
d="M275 577l9.99902 40.002h170v-753h-183v177l-5 3c-14 -16 -28.5 -29.167 -43.5 -39.5s-34.167 -15.5 -57.5 -15.5c-28.667 0 -51.667 5.33301 -69 16s-30.666 25 -39.999 43s-15.5 38.333 -18.5 61s-4.5 46 -4.5 70v291c0 22 2 42.5 6 61.5s11 35.667 21 50
s23.333 25.666 40 33.999s37.667 12.5 63 12.5c24 0 44.167 -4.83301 60.5 -14.5s31.833 -22.834 46.5 -39.501zM216.999 166.002c0 -6 0.166016 -12.3311 0.499023 -18.998s1.33301 -12.667 3 -18s4.16699 -9.83301 7.5 -13.5s8.33301 -5.5 15 -5.5
s11.834 1.66699 15.501 5s6.5 7.66602 8.5 12.999s3.33301 11.166 4 17.499s1 12.5 1 18.5v295c0 11.333 -1.83301 22.5 -5.5 33.5s-11.5 16.5 -23.5 16.5s-19.333 -5.66699 -22 -17s-4 -22.333 -4 -33v-293z" />
    <glyph glyph-name="r" unicode="r" horiz-adv-x="461" 
d="M223 562c14 19.333 28.499 35.167 43.499 47.5s34.5 18.5 58.5 18.5c30 0 53.167 -5 69.5 -15s28.5 -23.5 36.5 -40.5s12.833 -36.333 14.5 -58s2.5 -44.5 2.5 -68.5v-103h-182v125c0 11.333 -1.33301 21.166 -4 29.499s-9 12.5 -19 12.5
c-9.33301 0 -15.666 -4.16699 -18.999 -12.5s-5 -18.166 -5 -29.499v-468h-183v617h169l12 -54z" />
    <glyph glyph-name="s" unicode="s" horiz-adv-x="442" 
d="M424 182c0 -68 -17.6611 -117.166 -52.9941 -147.499s-85 -45.5 -149 -45.5c-71.333 0 -122.5 15.167 -153.5 45.5s-46.5 78.166 -46.5 143.499v38l167 1v-42c0 -9.33301 0.166992 -18.5 0.5 -27.5s1.66602 -17.167 3.99902 -24.5s5.83301 -13.333 10.5 -18s11 -7 19 -7
c15.333 0 24.666 5.5 27.999 16.5s5 23.5 5 37.5c0 12 -1.66699 22.667 -5 32s-9.33301 18.5 -18 27.5s-20.334 18.333 -35.001 28s-33.334 21.167 -56.001 34.5c-18.667 10.667 -35.334 21 -50.001 31s-27.167 21.333 -37.5 34s-18.333 27.5 -24 44.5
s-8.5 37.833 -8.5 62.5c0 62.667 17.167 108.667 51.5 138s83.5 44 147.5 44c66 0 115.5 -12.833 148.5 -38.5s49.5 -69.5 49.5 -131.5v-38h-172v52c0 10 -1.66699 20 -5 30s-11.666 15 -24.999 15c-12.667 0 -20.667 -4.66699 -24 -14s-5 -19.333 -5 -30
c0 -13.333 1.66699 -24.666 5 -33.999s8.66602 -17.833 15.999 -25.5s16.666 -14.834 27.999 -21.501s25 -14 41 -22c24.667 -13.333 46.167 -25.5 64.5 -36.5s33.5 -23.333 45.5 -37s21 -29.5 27 -47.5s9 -40.333 9 -67z" />
    <glyph glyph-name="t" unicode="t" horiz-adv-x="314" 
d="M239 513l-0.00292969 -351.001c0 -30 3 -59.333 9 -88s14 -53.334 24 -74.001h-182c-3.33301 6 -7.16602 13.333 -11.499 22s-8.16602 19.334 -11.499 32.001s-6.16602 27.834 -8.49902 45.501s-3.5 38.5 -3.5 62.5v351h-49v104h49v107l184 40v-147h68v-104h-68z" />
    <glyph glyph-name="u" unicode="u" horiz-adv-x="490" 
d="M270 51c-26 -41.333 -63.335 -61.998 -112.002 -61.998c-30 0 -53.333 5.66699 -70 17s-29 26.166 -37 44.499s-12.833 39 -14.5 62s-2.5 46.167 -2.5 69.5v435h183v-456c0 -6 0.333008 -12.167 1 -18.5s1.83398 -12.166 3.50098 -17.499
s4.33398 -9.66602 8.00098 -12.999s8.5 -5 14.5 -5s11 1.66699 15 5s7 7.66602 9 12.999s3.5 11.166 4.5 17.499s1.5 12.166 1.5 17.499v457h182v-617h-170l-12 50z" />
    <glyph glyph-name="v" unicode="v" horiz-adv-x="430" 
d="M337 0h-239l-93 617h164l28 -237l22 -210h5l15 209l20 238h163z" />
    <glyph glyph-name="w" unicode="w" horiz-adv-x="662" 
d="M579 0h-209l-17 142l-19 179h-4l-19 -176l-19 -145h-209l-78 617h158l20 -189l17 -213h4l18 212l21 190h172l18 -188l15 -216h5l20 216l22 188h157z" />
    <glyph glyph-name="x" unicode="x" horiz-adv-x="449" 
d="M220 200l-21 -119l-17 -81h-176l84 322l-81 295h175l19 -94l18 -102h5l23 104l24 92h167l-88 -295l87 -322h-181l-15 80l-19 120h-4z" />
    <glyph glyph-name="y" unicode="y" horiz-adv-x="458" 
d="M359 75c-4 -23.333 -8.83398 -47.5 -14.501 -72.5s-15.167 -47.833 -28.5 -68.5s-31.666 -37.5 -54.999 -50.5s-54.333 -19.5 -93 -19.5h-108v127h26c25.333 0 38 11.333 38 34c0 6.66699 -1 14.667 -3 24l-116 568h178l26 -203l25 -217h5l19 217l19 203h172z" />
    <glyph glyph-name="z" unicode="z" horiz-adv-x="361" 
d="M16 0v122l152 378h-143v117h313v-127l-149 -373h149v-117h-322z" />
    <glyph glyph-name="braceleft" unicode="{" horiz-adv-x="348" 
d="M189 325c21.333 -8.66699 35.501 -21.168 42.501 -37.501s10.5 -39.166 10.5 -68.499v-114c0 -26 3.5 -46.833 10.5 -62.5s22.833 -23.5 47.5 -23.5h21v-113h-70c-35.333 0 -63.5 4.66699 -84.5 14s-37 22 -48 38s-18.333 34.333 -22 55s-5.5 42.667 -5.5 66v110
c0 34 -4.16699 57.5 -12.5 70.5s-23.833 19.5 -46.5 19.5h-8v102h8c24.667 0 40.667 6.66699 48 20s11 36.666 11 69.999v122c0 52 11.833 92 35.5 120s59.167 42 106.5 42h22c8.66699 0 17.167 -0.166992 25.5 -0.5s16.166 -0.5 23.499 -0.5h17v-113h-20
c-24.667 0 -40.667 -7.83301 -48 -23.5s-11 -36.5 -11 -62.5v-114c0 -29.333 -3.66699 -52.166 -11 -68.499s-21.333 -28.833 -42 -37.5v-10z" />
    <glyph glyph-name="bar" unicode="|" horiz-adv-x="405" 
d="M137 -121v910h142v-910h-142z" />
    <glyph glyph-name="braceright" unicode="}" horiz-adv-x="348" 
d="M152 335c-20.667 8.66699 -34.668 21.1699 -42.001 37.5029s-11 39.166 -11 68.499v114c0 26 -3.66699 46.833 -11 62.5s-23.333 23.5 -48 23.5h-20v113h16.5c7 0 14.833 0.166992 23.5 0.5s17.334 0.5 26.001 0.5h22c47.333 0 82.833 -14 106.5 -42s35.5 -68 35.5 -120
v-122c0 -16.667 0.666992 -30.834 2 -42.501s4.16602 -21 8.49902 -28s10.333 -12 18 -15s17.834 -4.5 30.501 -4.5h8v-102h-8c-22.667 0 -38.167 -6.5 -46.5 -19.5s-12.5 -36.5 -12.5 -70.5v-110c0 -23.333 -1.83301 -45.333 -5.5 -66s-11 -39 -22 -55
s-27.167 -28.667 -48.5 -38s-49.333 -14 -84 -14h-70v113h21c24.667 0 40.5 7.83301 47.5 23.5s10.5 36.5 10.5 62.5v114c0 29.333 3.5 52.166 10.5 68.499s21.167 28.833 42.5 37.5v10z" />
    <glyph glyph-name="asciitilde" unicode="~" 
d="M494 355c-1.33301 -21.333 -4.99805 -42.1709 -10.998 -62.5039s-14.5 -38.166 -25.5 -53.499s-24.5 -27.666 -40.5 -36.999s-34 -14 -54 -14c-22 0 -42.333 3.33301 -61 10s-36.334 14.167 -53.001 22.5s-32.5 15.833 -47.5 22.5s-29.833 10 -44.5 10
c-15.333 0 -27.833 -3.5 -37.5 -10.5s-20.167 -19.167 -31.5 -36.5l-55 19c3.33301 20.667 8.66602 39.834 15.999 57.501s16.5 33.167 27.5 46.5s24 23.833 39 31.5s32.167 11.5 51.5 11.5c22 0 42.833 -3.16699 62.5 -9.5s38.167 -13.166 55.5 -20.499l48.5 -20.5
c15 -6.33301 29.5 -9.5 43.5 -9.5c15.333 0 28 4.66699 38 14s18.333 22.333 25 39z" />
    <glyph glyph-name="exclamdown" unicode="&#xa1;" horiz-adv-x="269" 
d="M237 -135h-201l29 557h142zM222 617v-151h-171v151h171z" />
    <glyph glyph-name="cent" unicode="&#xa2;" 
d="M441 254l-0.00195312 -44.999c0 -62.667 -12 -112.167 -36 -148.5s-62.333 -58.5 -115 -66.5v-94h-105v94c-32 4.66699 -58 13.5 -78 26.5s-35.667 28.833 -47 47.5s-19.166 39.667 -23.499 63s-6.5 47.666 -6.5 72.999v204c0 125.333 51.667 196.666 155 213.999v91h105
v-90c24 -3.33301 45.5 -9.83301 64.5 -19.5s34.833 -23 47.5 -40s22.334 -38.167 29.001 -63.5s10 -55.333 10 -90v-26h-173v80c0 11.333 -1.5 22.833 -4.5 34.5s-10.833 17.5 -23.5 17.5c-6.66699 0 -12 -1.66699 -16 -5s-7 -7.5 -9 -12.5s-3.16699 -10.667 -3.5 -17
s-0.5 -12.166 -0.5 -17.499v-316c0 -12 1.5 -23.167 4.5 -33.5s11.167 -15.5 24.5 -15.5c12.667 0 20.5 5.16699 23.5 15.5s4.5 21.5 4.5 33.5v106h173z" />
    <glyph glyph-name="sterling" unicode="&#xa3;" 
d="M39 396l46.998 0.00195312l-29 84c-9.33301 28 -14 54.333 -14 79c0 63.333 18.833 113 56.5 149s91.167 54 160.5 54c76.667 0 134.334 -18.167 173.001 -54.5s58 -89.833 58 -160.5v-44h-189v72c0 26 -11.333 39 -34 39c-8 0 -15.667 -3.33301 -23 -10
s-11 -19.667 -11 -39c0 -12.667 1.83301 -24.834 5.5 -36.501s8.33398 -24 14.001 -37s11.5 -27.167 17.5 -42.5s11 -33 15 -53h123v-102h-106c0.666992 -3.33301 1 -6.5 1 -9.5v-9.5c0 -6 -0.5 -13.5 -1.5 -22.5s-2.83301 -18.833 -5.5 -29.5s-6.66699 -21.334 -12 -32.001
s-12.333 -21 -21 -31h225v-160h-455v137c26 17.333 45.667 38.833 59 64.5s20 51.5 20 77.5c0 6.66699 -0.333008 11.667 -1 15h-73v102z" />
    <glyph glyph-name="currency" unicode="&#xa4;" horiz-adv-x="551" 
d="M395 584l81.9971 -82.998l-67 -73c4.66699 -10 7.83398 -20.167 9.50098 -30.5s2.5 -19.166 2.5 -26.499c0 -10 -0.5 -19.667 -1.5 -29s-3.16699 -18.666 -6.5 -27.999l67 -67l-89 -87l-67 68c-9.33301 -4 -19.166 -7.5 -29.499 -10.5s-19.833 -4.5 -28.5 -4.5
c-12.667 0 -23 0.666992 -31 2s-15.667 4 -23 8l-65 -67l-90 90l67 66c-3.33301 8.66699 -6.16602 18.167 -8.49902 28.5s-3.5 20.166 -3.5 29.499c0 15.333 5.33301 33.666 16 54.999l-71 71l89 89l69 -69c8 3.33301 16.333 5.16602 25 5.49902s18.667 0.5 30 0.5
s21 -0.833008 29 -2.5s16.667 -4.83398 26 -9.50098zM270.997 421.002c-13.333 0 -25.166 -5.33301 -35.499 -16s-15.5 -22.334 -15.5 -35.001c0 -14.667 5.16699 -27 15.5 -37s22.166 -15.333 35.499 -16c14 0 25.833 5.16699 35.5 15.5s14.167 22.833 13.5 37.5
c0.666992 12.667 -3.83301 24.334 -13.5 35.001s-21.5 16 -35.5 16z" />
    <glyph glyph-name="yen" unicode="&#xa5;" 
d="M383 400h83v-79h-106l-14 -49v-1h120v-79h-120v-192h-177v192h-115v79h115v1l-13 49h-102v79h80l-100 352h176l24 -157l20 -153h7l22 152l26 158h176z" />
    <glyph glyph-name="brokenbar" unicode="&#xa6;" horiz-adv-x="405" 
d="M137 382v407h142v-407h-142zM279 273v-394h-142v394h142z" />
    <glyph glyph-name="section" unicode="&#xa7;" horiz-adv-x="442" 
d="M404 318c0 -28 -4.66699 -50.4961 -14 -67.4961s-23 -30.833 -41 -41.5c18 -13.333 29.667 -28.5 35 -45.5s8 -39.5 8 -67.5c0 -58.667 -15.333 -101.334 -46 -128.001s-71.667 -40 -123 -40c-38 0 -68.333 5.16699 -91 15.5s-40.167 23.666 -52.5 39.999
s-20.5 34.666 -24.5 54.999s-6 40.833 -6 61.5v13h150v-32c0 -4 0.166992 -8.5 0.5 -13.5s1.16602 -9.66699 2.49902 -14s3.33301 -8 6 -11s6.66699 -4.5 12 -4.5c8 0 13.333 3.83301 16 11.5s4 16.167 4 25.5c0 23.333 -7.5 42.333 -22.5 57s-35.833 28.667 -62.5 42
c-20 10 -37.5 19.5 -52.5 28.5s-27.167 19.167 -36.5 30.5s-16.333 24.166 -21 38.499s-7 31.5 -7 51.5v44c0 27.333 4.5 51 13.5 71s24.5 35.667 46.5 47c-16.667 11.333 -28.667 25 -36 41s-11 38.667 -11 68c0 58 15.167 100.333 45.5 127s71.166 40 122.499 40
c38 0 68.333 -5.16699 91 -15.5s40 -23.666 52 -39.999s20 -34.666 24 -54.999s6 -40.5 6 -60.5v-16h-149v34c0 4 -0.166992 8.5 -0.5 13.5s-1.16602 9.66699 -2.49902 14s-3.33301 8 -6 11s-6.66699 4.5 -12 4.5c-8 0 -13.333 -3.83301 -16 -11.5s-4 -16.167 -4 -25.5
c0 -23.333 7.83301 -42 23.5 -56s36.834 -27.667 63.501 -41c20 -10 37 -19.833 51 -29.5s25.5 -20.334 34.5 -32.001s15.833 -24.834 20.5 -39.501s7.66699 -32 9 -52v-46zM224 286.004c5.33301 0 9.99902 2.5 13.999 7.5s6 10.833 6 17.5v66
c0 4.66699 -1.83301 9.66699 -5.5 15s-10.167 8 -19.5 8c-5.33301 0 -10.666 -2.5 -15.999 -7.5s-8 -10.167 -8 -15.5v-62c0 -7.33301 2.5 -14 7.5 -20s12.167 -9 21.5 -9z" />
    <glyph glyph-name="dieresis" unicode="&#xa8;" horiz-adv-x="473" 
d="M268 676v139h136v-139h-136zM78 676v139h136v-139h-136z" />
    <glyph glyph-name="copyright" unicode="&#xa9;" horiz-adv-x="826" 
d="M122 375c0 -40 6.83301 -78 20.5 -114s33 -67.833 58 -95.5s55.333 -49.5 91 -65.5s75.834 -24 120.501 -24s85 8 121 24s66.5 37.833 91.5 65.5s44.333 59.5 58 95.5s20.5 74 20.5 114s-6.83301 78 -20.5 114s-33.167 67.5 -58.5 94.5s-55.833 48.5 -91.5 64.5
s-75.834 24 -120.501 24c-43.333 0 -82.833 -8 -118.5 -24s-66.167 -37.5 -91.5 -64.5s-45 -58.5 -59 -94.5s-21 -74 -21 -114zM27 375c0 53.333 10.167 103.333 30.5 150s47.833 87.5 82.5 122.5s75.334 62.667 122.001 83s96.667 30.5 150 30.5s103.333 -10.167 150 -30.5
s87.5 -48 122.5 -83s62.667 -75.833 83 -122.5s30.5 -96.667 30.5 -150s-10.167 -103.333 -30.5 -150s-48 -87.334 -83 -122.001s-75.833 -62.167 -122.5 -82.5s-96.667 -30.5 -150 -30.5s-103.333 10.167 -150 30.5s-87.334 47.833 -122.001 82.5
s-62.167 75.334 -82.5 122.001s-30.5 96.667 -30.5 150zM551 327l-0.00195312 -71c0 -27.333 -4.16699 -49.833 -12.5 -67.5s-19.5 -31.5 -33.5 -41.5s-29.667 -16.833 -47 -20.5s-35 -5.5 -53 -5.5c-26.667 0 -49 3.5 -67 10.5s-32.333 17 -43 30
s-18.334 28.667 -23.001 47s-7 38.833 -7 61.5v204c0 12.667 1.16699 27 3.5 43s8.33301 31.167 18 45.5s23.834 26.333 42.501 36s44 14.5 76 14.5c45.333 0 81 -10.667 107 -32s39 -57 39 -107v-49h-121v72c0 7.33301 -1.16699 15 -3.5 23s-8.16602 12 -17.499 12
s-15.333 -3.83301 -18 -11.5s-4 -15.167 -4 -22.5v-257c0 -8 1.16699 -16.333 3.5 -25s8.5 -13 18.5 -13c8.66699 0 14.334 4.33301 17.001 13s4 17 4 25v86h121z" />
    <glyph glyph-name="ordfeminine" unicode="&#xaa;" horiz-adv-x="338" 
d="M180 334c-8.66699 -10.667 -18.668 -19.501 -30.001 -26.501s-24.666 -10.5 -39.999 -10.5c-27.333 0 -49 6.66699 -65 20s-24 32.666 -24 57.999v60c0 14.667 1.5 27 4.5 37s8 18.833 15 26.5s16 14.5 27 20.5s24.5 12.333 40.5 19l53 24
c7.33301 2.66699 12.333 6.83398 15 12.501s4 11.167 4 16.5v21c0 9.33301 -1.5 16.333 -4.5 21s-8.5 7 -16.5 7c-8.66699 0 -14.167 -2.66699 -16.5 -8s-3.5 -11.666 -3.5 -18.999v-46h-118v18c0 43.333 12.167 75.333 36.5 96s59.5 31 105.5 31
c30.667 0 55.334 -3.5 74.001 -10.5s33.167 -16.833 43.5 -29.5s17.166 -27.667 20.499 -45s5 -36 5 -56v-267h-115l-6 30h-5zM178.999 481.999c-26.667 -10 -40.001 -23.667 -40.001 -41v-35c0 -8 0.833008 -15.667 2.5 -23s7.83398 -11 18.501 -11
c9.33301 0 14.833 4.16699 16.5 12.5s2.5 15.833 2.5 22.5v75z" />
    <glyph glyph-name="guillemotleft" unicode="&#xab;" horiz-adv-x="530" 
d="M131 10l-105 194l105 195h158l-103 -191l107 -198h-162zM348 10l-105 194l105 195h158l-103 -191l107 -198h-162z" />
    <glyph glyph-name="logicalnot" unicode="&#xac;" 
d="M479 91h-110v167h-327v113h437v-280z" />
    <glyph glyph-name="sfthyphen" unicode="&#xad;" horiz-adv-x="278" 
d="M19 243v130h241v-130h-241z" />
    <glyph glyph-name="registered" unicode="&#xae;" horiz-adv-x="610" 
d="M38 495c0 38 7 73.5 21 106.5s33.167 61.667 57.5 86s53 43.5 86 57.5s68.167 21 105.5 21c38 0 73.333 -7 106 -21s61.334 -33.167 86.001 -57.5s44 -53 58 -86s21 -68.5 21 -106.5c0 -37.333 -7 -72.333 -21 -105s-33.333 -61.167 -58 -85.5
s-53.334 -43.5 -86.001 -57.5s-68 -21 -106 -21c-37.333 0 -72.5 7 -105.5 21s-61.667 33.167 -86 57.5s-43.5 52.833 -57.5 85.5s-21 67.667 -21 105zM112 495c0 -27.333 5.16699 -53.333 15.5 -78s24.333 -46.167 42 -64.5s38.334 -33 62.001 -44s49.167 -16.5 76.5 -16.5
s53 5.5 77 16.5s44.833 25.667 62.5 44s31.667 39.833 42 64.5s15.5 50.667 15.5 78c0 28 -5.16699 54.167 -15.5 78.5s-24.333 45.833 -42 64.5s-38.5 33.334 -62.5 44.001s-49.667 16 -77 16s-52.833 -5.33301 -76.5 -16s-44.334 -25.334 -62.001 -44.001
s-31.667 -40.167 -42 -64.5s-15.5 -50.5 -15.5 -78.5zM381 508c13.333 -5.33301 22.167 -12.1689 26.5 -20.502s6.5 -19.833 6.5 -34.5v-74c0 -7.33301 0.333008 -13.666 1 -18.999s2.66699 -10.666 6 -15.999h-80c-2.66699 4.66699 -4.33398 10.167 -5.00098 16.5
s-1 13.166 -1 20.499v55c0 15.333 -2.33301 26.333 -7 33s-12.667 10.334 -24 11.001v-136h-86v316h114c24.667 0 44.5 -6 59.5 -18s22.5 -34.333 22.5 -67c0 -21.333 -3.16699 -36.5 -9.5 -45.5s-14.166 -15.833 -23.499 -20.5v-1zM304.001 535.997
c13.333 0.666992 21.833 3 25.5 7s5.5 12.667 5.5 26c0 10 -1.66699 17.167 -5 21.5s-12 6.5 -26 6.5v-61z" />
    <glyph glyph-name="macron" unicode="&#xaf;" horiz-adv-x="490" 
d="M87 672v110h291v-110h-291z" />
    <glyph glyph-name="degree" unicode="&#xb0;" horiz-adv-x="357" 
d="M329 614c0 -20 -3.83496 -38.832 -11.502 -56.499s-18.167 -33.334 -31.5 -47.001s-29 -24.334 -47 -32.001s-37.333 -11.5 -58 -11.5c-20 0 -39 3.83301 -57 11.5s-33.5 18.167 -46.5 31.5s-23.333 28.833 -31 46.5s-11.5 36.834 -11.5 57.501
s3.83301 39.834 11.5 57.501s18.167 33.167 31.5 46.5s29 23.833 47 31.5s37 11.5 57 11.5s38.833 -3.83301 56.5 -11.5s33.334 -18.167 47.001 -31.5s24.334 -28.833 32.001 -46.5s11.5 -36.834 11.5 -57.501zM250.998 615.001c0 19.333 -6.66699 35.666 -20 48.999
s-29.666 20 -48.999 20s-35.833 -6.66699 -49.5 -20s-20.5 -29.666 -20.5 -48.999s6.33301 -35.833 19 -49.5s29.667 -20.5 51 -20.5c19.333 0 35.666 6.83301 48.999 20.5s20 30.167 20 49.5z" />
    <glyph glyph-name="plusminus" unicode="&#xb1;" 
d="M41 0v114h437v-114h-437zM314 292v-147h-110v147h-163v113h163v147h110v-147h164v-113h-164z" />
    <glyph glyph-name="twosuperior" unicode="&#xb2;" horiz-adv-x="321" 
d="M22 393l0.00195312 106.003c0 12 0.333008 23 1 33s2.33398 19.333 5.00098 28s6.66699 16.667 12 24s12.666 14.666 21.999 21.999l96 73c12 8.66699 18 23.667 18 45v26c0 9.33301 -2 15.5 -6 18.5s-8.33301 4.5 -13 4.5c-2.66699 0 -6.33398 -1.5 -11.001 -4.5
s-7 -9.16699 -7 -18.5v-48h-116v26c0 36 12.167 65.167 36.5 87.5s58.5 33.5 102.5 33.5c46 0 80.167 -10.333 102.5 -31s33.5 -49.334 33.5 -86.001v-34c0 -16.667 -4 -32.334 -12 -47.001s-16.667 -25.667 -26 -33l-47 -37l-47 -36c-10.667 -8 -17.334 -16 -20.001 -24
s-4 -18.667 -4 -32v-8h57v61h100v-149h-277z" />
    <glyph glyph-name="threesuperior" unicode="&#xb3;" horiz-adv-x="330" 
d="M166 849c48.667 0 83.666 -9.99902 104.999 -29.999s32 -49.333 32 -88c0 -20.667 -1.83301 -37.167 -5.5 -49.5s-14.167 -23.5 -31.5 -33.5c19.333 -11.333 31.166 -27 35.499 -47s6.5 -40.333 6.5 -61v-10c0 -45.333 -10.667 -80.5 -32 -105.5
s-59.666 -37.5 -114.999 -37.5c-29.333 0 -53.166 3.5 -71.499 10.5s-32.5 16.833 -42.5 29.5s-16.667 27.5 -20 44.5s-5 35.5 -5 55.5v38h126v-69c0 -6.66699 0.833008 -13.334 2.5 -20.001s6.5 -10 14.5 -10c5.33301 0 9 2.83301 11 8.5s3 11.5 3 17.5v76
c0 10.667 -1.16699 19 -3.5 25s-10.5 9 -24.5 9h-42v86h42c11.333 0 18.833 1.83301 22.5 5.5s5.5 10.167 5.5 19.5v35c0 3.33301 -0.833008 7.83301 -2.5 13.5s-6.16699 8.5 -13.5 8.5s-12.333 -2.83301 -15 -8.5s-4 -10.167 -4 -13.5v-34h-118v10
c0 38 12.167 68.333 36.5 91s58.833 34 103.5 34z" />
    <glyph glyph-name="acute" unicode="&#xb4;" horiz-adv-x="480" 
d="M147 709l132 184l126 -94l-174 -152z" />
    <glyph glyph-name="mu" unicode="&#xb5;" horiz-adv-x="490" 
d="M288 0l-15 55.999c-14 -24.667 -32.333 -42.667 -55 -54v-138h-184v753h183v-474c0 -11.333 1.66699 -21.166 5 -29.499s10.666 -12.5 21.999 -12.5c12.667 0 20.834 4 24.501 12s5.5 17.667 5.5 29v475h182v-617h-168z" />
    <glyph glyph-name="mu" unicode="&#x3bc;" horiz-adv-x="490" 
d="M288 0l-15 55.999c-14 -24.667 -32.333 -42.667 -55 -54v-138h-184v753h183v-474c0 -11.333 1.66699 -21.166 5 -29.499s10.666 -12.5 21.999 -12.5c12.667 0 20.834 4 24.501 12s5.5 17.667 5.5 29v475h182v-617h-168z" />
    <glyph glyph-name="paragraph" unicode="&#xb6;" horiz-adv-x="458" 
d="M136 -134l0.00195312 480c-14.667 2.66699 -28.834 7.16699 -42.501 13.5s-25.834 14.333 -36.501 24s-19.334 21.167 -26.001 34.5s-10 28 -10 44v175c0 18.667 3.83301 35.334 11.5 50.001s17.834 27.167 30.501 37.5s27.5 18.166 44.5 23.499s35.167 8 54.5 8h282v-80
h-43v-810h-110v810h-44v-810h-111z" />
    <glyph glyph-name="periodcentered" unicode="&#xb7;" horiz-adv-x="218" 
d="M31 219v171h154v-171h-154z" />
    <glyph glyph-name="cedilla" unicode="&#xb8;" horiz-adv-x="395" 
d="M234 24l-30.999 -67.001h8c24 0 44.333 -6.5 61 -19.5s25 -31.167 25 -54.5c0 -15.333 -3.16699 -28.333 -9.5 -39s-14.833 -19.667 -25.5 -27s-22.667 -12.666 -36 -15.999s-27.333 -5 -42 -5c-18.667 0 -36.5 2.33301 -53.5 7s-33.833 10.667 -50.5 18l20 55
c15.333 -5.33301 28.833 -9 40.5 -11s23.167 -3 34.5 -3c8 0 14.167 2 18.5 6s6.5 9 6.5 15c0 8 -3 13.833 -9 17.5s-13 5.5 -21 5.5c-3.33301 0 -6.83301 -0.333008 -10.5 -1s-8.83398 -2.66699 -15.501 -6l-23 23l47 102h66z" />
    <glyph glyph-name="onesuperior" unicode="&#xb9;" horiz-adv-x="307" 
d="M106 393v338h-64v75h13c29.333 0 52 12 68 36h114v-449h-131z" />
    <glyph glyph-name="ordmasculine" unicode="&#xba;" horiz-adv-x="331" 
d="M309 439c0 -46 -12.002 -81.3359 -36.002 -106.003s-60 -37 -108 -37c-30 0 -54.333 3.83301 -73 11.5s-33.167 17.834 -43.5 30.501s-17.5 27.334 -21.5 44.001s-6 34.334 -6 53.001v133c0 95.333 48 143 144 143c20.667 0 39.834 -2.5 57.501 -7.5
s32.834 -13 45.501 -24s22.667 -25.5 30 -43.5s11 -40 11 -66v-131zM184.998 595.997c0 7.33301 -1.16699 14.333 -3.5 21s-7.5 10 -15.5 10c-9.33301 0 -15 -3.33301 -17 -10s-3 -13.667 -3 -21v-189c0 -7.33301 1 -14 3 -20s7.66699 -9 17 -9c8 0 13.167 3 15.5 9
s3.5 12.667 3.5 20v189z" />
    <glyph glyph-name="guillemotright" unicode="&#xbb;" horiz-adv-x="530" 
d="M238 10l107 198l-103 191h158l105 -195l-105 -194h-162zM21 10l107 198l-103 191h158l105 -195l-105 -194h-162z" />
    <glyph glyph-name="onequarter" unicode="&#xbc;" horiz-adv-x="800" 
d="M109 303v338h-64v75h13c29.333 0 52 12 68 36h114v-449h-131zM265 -29h-108l361 811h106zM720 77v-77h-128v77h-147v83l129 289h146v-286h34v-86h-34zM592 163v114l-47 -114h47z" />
    <glyph glyph-name="onehalf" unicode="&#xbd;" horiz-adv-x="800" 
d="M115 303v338h-64v75h13c29.333 0 52 12 68 36h114v-449h-131zM253 -29h-108l361 811h106zM472 0l0.00195312 106.003c0 12 0.333008 23 1 33s2.33398 19.333 5.00098 28s6.66699 16.667 12 24s12.666 14.666 21.999 21.999l96 73c12 8.66699 18 23.667 18 45v26
c0 9.33301 -2 15.5 -6 18.5s-8.33301 4.5 -13 4.5c-2.66699 0 -6.33398 -1.5 -11.001 -4.5s-7 -9.16699 -7 -18.5v-48h-116v26c0 36 12.167 65.167 36.5 87.5s58.5 33.5 102.5 33.5c46 0 80.167 -10.333 102.5 -31s33.5 -49.334 33.5 -86.001v-34
c0 -16.667 -4 -32.334 -12 -47.001s-16.667 -25.667 -26 -33l-47 -37l-47 -36c-10.667 -8 -17.334 -16 -20.001 -24s-4 -18.667 -4 -32v-8h57v61h100v-149h-277z" />
    <glyph glyph-name="threequarters" unicode="&#xbe;" horiz-adv-x="800" 
d="M738 77v-77h-128v77h-147v83l129 289h146v-286h34v-86h-34zM610 163v114l-47 -114h47zM171 759c48.667 0 83.666 -9.99902 104.999 -29.999s32 -49.333 32 -88c0 -20.667 -1.83301 -37.167 -5.5 -49.5s-14.167 -23.5 -31.5 -33.5c19.333 -11.333 31.166 -27 35.499 -47
s6.5 -40.333 6.5 -61v-10c0 -45.333 -10.667 -80.5 -32 -105.5s-59.666 -37.5 -114.999 -37.5c-29.333 0 -53.166 3.5 -71.499 10.5s-32.5 16.833 -42.5 29.5s-16.667 27.5 -20 44.5s-5 35.5 -5 55.5v38h126v-69c0 -6.66699 0.833008 -13.334 2.5 -20.001s6.5 -10 14.5 -10
c5.33301 0 9 2.83301 11 8.5s3 11.5 3 17.5v76c0 10.667 -1.16699 19 -3.5 25s-10.5 9 -24.5 9h-42v86h42c11.333 0 18.833 1.83301 22.5 5.5s5.5 10.167 5.5 19.5v35c0 3.33301 -0.833008 7.83301 -2.5 13.5s-6.16699 8.5 -13.5 8.5s-12.333 -2.83301 -15 -8.5
s-4 -10.167 -4 -13.5v-34h-118v10c0 38 12.167 68.333 36.5 91s58.833 34 103.5 34zM291.999 -28.999h-108l361 811h106z" />
    <glyph glyph-name="questiondown" unicode="&#xbf;" horiz-adv-x="485" 
d="M41 51c0 20 2.16797 38.1699 6.50098 54.5029s10 31.666 17 45.999s15.333 28 25 41l30.5 39.5l57 70c17.333 21.333 27.666 40.666 30.999 57.999s5 32.333 5 45v18h171v-44c0 -22 -2.83301 -45.833 -8.5 -71.5s-20.5 -52.834 -44.5 -81.501l-48 -57
c-21.333 -25.333 -37.333 -48 -48 -68s-16 -42 -16 -66c0 -6 0.166992 -12.167 0.5 -18.5s1.66602 -12 3.99902 -17s5.83301 -9.16699 10.5 -12.5s11.334 -5 20.001 -5c8 0 14.167 2 18.5 6s7.66602 9.16699 9.99902 15.5s3.66602 13 3.99902 20s0.5 13.5 0.5 19.5v61h171
v-46c0 -31.333 -3.5 -59.5 -10.5 -84.5s-18.5 -46.333 -34.5 -64s-36.667 -31.167 -62 -40.5s-56.333 -14 -93 -14c-39.333 0 -72.666 4.83301 -99.999 14.5s-49.666 23 -66.999 40s-30 37.5 -38 61.5s-12 50.667 -12 80zM383.001 618.003v-151h-171v151h171z" />
    <glyph glyph-name="Agrave" unicode="&#xc0;" horiz-adv-x="511" 
d="M308 0l-10 135h-78l-11 -135h-193l100 752h278l104 -752h-190zM255 614l-10 -150l-14 -195h55l-14 196l-10 149h-7zM269 776l-198 97l84 116l171 -135z" />
    <glyph glyph-name="Aacute" unicode="&#xc1;" horiz-adv-x="511" 
d="M308 0l-10 135h-78l-11 -135h-193l100 752h278l104 -752h-190zM255 614l-10 -150l-14 -195h55l-14 196l-10 149h-7zM199 854l171 135l84 -116l-198 -97z" />
    <glyph glyph-name="Acircumflex" unicode="&#xc2;" horiz-adv-x="511" 
d="M308 0l-10 135h-78l-11 -135h-193l100 752h278l104 -752h-190zM255 614l-10 -150l-14 -195h55l-14 196l-10 149h-7zM258 855l-141 -77l-67 58l141 130h138l136 -130l-67 -58z" />
    <glyph glyph-name="Atilde" unicode="&#xc3;" horiz-adv-x="511" 
d="M308 0l-10 135h-78l-11 -135h-193l100 752h278l104 -752h-190zM255 614l-10 -150l-14 -195h55l-14 196l-10 149h-7zM445 924c-2 -16.667 -6 -33.501 -12 -50.501s-13.667 -32.333 -23 -46s-20.333 -24.834 -33 -33.501s-26.667 -13 -42 -13
c-16.667 0 -31.667 1.83301 -45 5.5s-26.166 7.66699 -38.499 12s-24.5 8.33301 -36.5 12s-25 5.5 -39 5.5c-10.667 0 -20.5 -2 -29.5 -6s-18.167 -13 -27.5 -27l-49 15c1.33301 13.333 4.16602 28 8.49902 44s10.666 30.833 18.999 44.5s19 25.167 32 34.5
s29.167 14 48.5 14c16 0 30.667 -1.66699 44 -5s26 -7.16602 38 -11.499s24 -8.16602 36 -11.499s25 -5 39 -5c10.667 0 20.834 2.33301 30.501 7s19.167 13.667 28.5 27z" />
    <glyph glyph-name="Adieresis" unicode="&#xc4;" horiz-adv-x="511" 
d="M308 0l-10 135h-78l-11 -135h-193l100 752h278l104 -752h-190zM255 614l-10 -150l-14 -195h55l-14 196l-10 149h-7zM285 783v139h136v-139h-136zM95 783v139h136v-139h-136z" />
    <glyph glyph-name="Aring" unicode="&#xc5;" horiz-adv-x="511" 
d="M308 0l-10 135h-78l-11 -135h-193l100 752h278l104 -752h-190zM255 614l-10 -150l-14 -195h55l-14 196l-10 149h-7zM255 762c-17.333 0 -33.833 3.5 -49.5 10.5s-29.334 16.5 -41.001 28.5s-21 26 -28 42s-10.5 33.333 -10.5 52c0 17.333 3.5 33.833 10.5 49.5
s16.5 29.334 28.5 41.001s26.167 21 42.5 28s33.5 10.5 51.5 10.5c17.333 0 33.833 -3.5 49.5 -10.5s29.334 -16.333 41.001 -28s21 -25.334 28 -41.001s10.5 -32.167 10.5 -49.5c0 -18 -3.5 -35.167 -10.5 -51.5s-16.5 -30.5 -28.5 -42.5s-26 -21.5 -42 -28.5
s-33.333 -10.5 -52 -10.5zM259 928c-10.667 0 -19.332 -3.16699 -25.999 -9.5s-10 -14.166 -10 -23.499c0 -10.667 3.16699 -19.334 9.5 -26.001s15.166 -10 26.499 -10c9.33301 0 17.166 3.33301 23.499 10s9.5 15.334 9.5 26.001c0 9.33301 -3.16699 17.166 -9.5 23.499
s-14.166 9.5 -23.499 9.5z" />
    <glyph glyph-name="AE" unicode="&#xc6;" horiz-adv-x="662" 
d="M312 0v186h-85l-36 -186h-193l178 752h454v-150h-128v-143h120v-143h-120v-165h141v-151h-331zM252 316h60v285h-6z" />
    <glyph glyph-name="Ccedilla" unicode="&#xc7;" horiz-adv-x="519" 
d="M487 313l0.00292969 -110.998c0 -41.333 -6 -75.333 -18 -102s-28 -48 -48 -64s-42.667 -27.5 -68 -34.5s-51.333 -10.833 -78 -11.5l-15 -33h8c24 0 44.333 -6.5 61 -19.5s25 -31.167 25 -54.5c0 -15.333 -3.16699 -28.333 -9.5 -39s-14.833 -19.667 -25.5 -27
s-22.667 -12.666 -36 -15.999s-27.333 -5 -42 -5c-18.667 0 -36.5 2.33301 -53.5 7s-33.833 10.667 -50.5 18l20 55c15.333 -5.33301 28.833 -9 40.5 -11s23.167 -3 34.5 -3c8 0 14.167 2 18.5 6s6.5 9 6.5 15c0 8 -3 13.833 -9 17.5s-13 5.5 -21 5.5
c-3.33301 0 -6.83301 -0.333008 -10.5 -1s-8.83398 -2.66699 -15.501 -6l-23 23l32 70c-33.333 4 -61 12.167 -83 24.5s-39.833 28.5 -53.5 48.5s-23.334 43.5 -29.001 70.5s-8.5 56.5 -8.5 88.5v321c0 12.667 0.666992 27 2 43s4.66602 32 9.99902 48
s12.666 31.667 21.999 47s22.333 28.833 39 40.5s37 21.167 61 28.5s53 11 87 11c35.333 0 67.166 -4 95.499 -12s52.5 -20.833 72.5 -38.5s35.333 -40.334 46 -68.001s16 -60.834 16 -99.501v-78h-191v113c0 6 -0.333008 12.333 -1 19s-2.33398 12.667 -5.00098 18
s-6.16699 9.83301 -10.5 13.5s-10.166 5.5 -17.499 5.5c-14.667 0 -24.167 -6.16699 -28.5 -18.5s-6.5 -24.5 -6.5 -36.5v-404c0 -6 0.333008 -12.5 1 -19.5s2.33398 -13.333 5.00098 -19s6.33398 -10.334 11.001 -14.001s10.667 -5.5 18 -5.5c13.333 0 22.333 6.5 27 19.5
s7 25.833 7 38.5v136h191z" />
    <glyph glyph-name="Egrave" unicode="&#xc8;" horiz-adv-x="391" 
d="M41 0v752h318v-140h-128v-146h120v-141h-120v-184h141v-141h-331zM267 776l-198 97l84 116l171 -135z" />
    <glyph glyph-name="Eacute" unicode="&#xc9;" horiz-adv-x="391" 
d="M41 0v752h318v-140h-128v-146h120v-141h-120v-184h141v-141h-331zM70 854l171 135l84 -116l-198 -97z" />
    <glyph glyph-name="Ecircumflex" unicode="&#xca;" horiz-adv-x="391" 
d="M41 0v752h318v-140h-128v-146h120v-141h-120v-184h141v-141h-331zM198 855l-141 -77l-67 58l141 130h138l136 -130l-67 -58z" />
    <glyph glyph-name="Edieresis" unicode="&#xcb;" horiz-adv-x="391" 
d="M41 0v752h318v-140h-128v-146h120v-141h-120v-184h141v-141h-331zM226 796v139h136v-139h-136zM36 796v139h136v-139h-136z" />
    <glyph glyph-name="Igrave" unicode="&#xcc;" horiz-adv-x="272" 
d="M41 0v752h190v-752h-190zM177 776l-198 97l84 116l171 -135z" />
    <glyph glyph-name="Iacute" unicode="&#xcd;" horiz-adv-x="272" 
d="M41 0v752h190v-752h-190zM55 854l171 135l84 -116l-198 -97z" />
    <glyph glyph-name="Icircumflex" unicode="&#xce;" horiz-adv-x="272" 
d="M41 0v752h190v-752h-190zM137 855l-141 -77l-67 58l141 130h138l136 -130l-67 -58z" />
    <glyph glyph-name="Idieresis" unicode="&#xcf;" horiz-adv-x="272" 
d="M41 0v752h190v-752h-190zM163 783v139h136v-139h-136zM-27 783v139h136v-139h-136z" />
    <glyph glyph-name="Eth" unicode="&#xd0;" horiz-adv-x="518" 
d="M6 441h34.999v311h206c51.333 0 92.5 -5.16699 123.5 -15.5s54.833 -25.833 71.5 -46.5s27.667 -46.167 33 -76.5s8 -65.5 8 -105.5v-284c0 -36 -2.66699 -68 -8 -96s-15.666 -51.5 -30.999 -70.5s-36.833 -33.333 -64.5 -43s-63.5 -14.5 -107.5 -14.5h-231v328h-35v113z
M291.999 533c0 14.667 -0.333008 27.333 -1 38s-3 19.667 -7 27s-10 12.833 -18 16.5s-19.333 5.5 -34 5.5v-179h33v-113h-33v-195c14.667 0 26 3.33301 34 10s14 15.167 18 25.5s6.33301 21.5 7 33.5s1 23.333 1 34v297z" />
    <glyph glyph-name="Ntilde" unicode="&#xd1;" horiz-adv-x="538" 
d="M323 400v352h174v-752h-182l-54 198l-39 158h-6v-356h-175v752h175l56 -189l45 -163h6zM449 920c-2 -16.667 -6 -33.501 -12 -50.501s-13.667 -32.333 -23 -46s-20.333 -24.834 -33 -33.501s-26.667 -13 -42 -13c-16.667 0 -31.667 1.83301 -45 5.5
s-26.166 7.66699 -38.499 12s-24.5 8.33301 -36.5 12s-25 5.5 -39 5.5c-10.667 0 -20.5 -2 -29.5 -6s-18.167 -13 -27.5 -27l-49 15c1.33301 13.333 4.16602 28 8.49902 44s10.666 30.833 18.999 44.5s19 25.167 32 34.5s29.167 14 48.5 14c16 0 30.667 -1.66699 44 -5
s26 -7.16602 38 -11.499s24 -8.16602 36 -11.499s25 -5 39 -5c10.667 0 20.834 2.33301 30.501 7s19.167 13.667 28.5 27z" />
    <glyph glyph-name="Ograve" unicode="&#xd2;" horiz-adv-x="512" 
d="M477 202c0 -43.333 -6.66504 -78.8311 -19.998 -106.498s-30.5 -49.334 -51.5 -65.001s-44.5 -26.5 -70.5 -32.5s-52 -9 -78 -9c-42 0 -77.167 5.5 -105.5 16.5s-51 26.833 -68 47.5s-29.167 45.334 -36.5 74.001s-11 61 -11 97v321c0 12.667 0.666992 27 2 43
s4.66602 32 9.99902 48s12.666 31.667 21.999 47s22.333 28.833 39 40.5s37 21.167 61 28.5s53 11 87 11c32.667 0 62.667 -4 90 -12s50.5 -20.833 69.5 -38.5s33.833 -40.334 44.5 -68.001s16 -60.834 16 -99.501v-343zM286.002 580.002c0 6 -0.166992 12.333 -0.5 19
s-1.33301 12.667 -3 18s-4.5 9.83301 -8.5 13.5s-9.66699 5.5 -17 5.5s-13 -1.66699 -17 -5s-7 -7.83301 -9 -13.5s-3.16699 -11.667 -3.5 -18s-0.5 -12.5 -0.5 -18.5v-404c0 -6 0.166992 -12.5 0.5 -19.5s1.5 -13.333 3.5 -19s5.16699 -10.334 9.5 -14.001
s10.166 -5.5 17.499 -5.5c6.66699 0 11.834 1.83301 15.501 5.5s6.5 8.33398 8.5 14.001s3.16699 12 3.5 19s0.5 13.5 0.5 19.5v403zM318.002 776.002l-198 97l84 116l171 -135z" />
    <glyph glyph-name="Oacute" unicode="&#xd3;" horiz-adv-x="512" 
d="M477 202c0 -43.333 -6.66504 -78.8311 -19.998 -106.498s-30.5 -49.334 -51.5 -65.001s-44.5 -26.5 -70.5 -32.5s-52 -9 -78 -9c-42 0 -77.167 5.5 -105.5 16.5s-51 26.833 -68 47.5s-29.167 45.334 -36.5 74.001s-11 61 -11 97v321c0 12.667 0.666992 27 2 43
s4.66602 32 9.99902 48s12.666 31.667 21.999 47s22.333 28.833 39 40.5s37 21.167 61 28.5s53 11 87 11c32.667 0 62.667 -4 90 -12s50.5 -20.833 69.5 -38.5s33.833 -40.334 44.5 -68.001s16 -60.834 16 -99.501v-343zM286.002 580.002c0 6 -0.166992 12.333 -0.5 19
s-1.33301 12.667 -3 18s-4.5 9.83301 -8.5 13.5s-9.66699 5.5 -17 5.5s-13 -1.66699 -17 -5s-7 -7.83301 -9 -13.5s-3.16699 -11.667 -3.5 -18s-0.5 -12.5 -0.5 -18.5v-404c0 -6 0.166992 -12.5 0.5 -19.5s1.5 -13.333 3.5 -19s5.16699 -10.334 9.5 -14.001
s10.166 -5.5 17.499 -5.5c6.66699 0 11.834 1.83301 15.501 5.5s6.5 8.33398 8.5 14.001s3.16699 12 3.5 19s0.5 13.5 0.5 19.5v403zM189.002 854.002l171 135l84 -116l-198 -97z" />
    <glyph glyph-name="Ocircumflex" unicode="&#xd4;" horiz-adv-x="512" 
d="M477 202c0 -43.333 -6.66504 -78.8311 -19.998 -106.498s-30.5 -49.334 -51.5 -65.001s-44.5 -26.5 -70.5 -32.5s-52 -9 -78 -9c-42 0 -77.167 5.5 -105.5 16.5s-51 26.833 -68 47.5s-29.167 45.334 -36.5 74.001s-11 61 -11 97v321c0 12.667 0.666992 27 2 43
s4.66602 32 9.99902 48s12.666 31.667 21.999 47s22.333 28.833 39 40.5s37 21.167 61 28.5s53 11 87 11c32.667 0 62.667 -4 90 -12s50.5 -20.833 69.5 -38.5s33.833 -40.334 44.5 -68.001s16 -60.834 16 -99.501v-343zM286.002 580.002c0 6 -0.166992 12.333 -0.5 19
s-1.33301 12.667 -3 18s-4.5 9.83301 -8.5 13.5s-9.66699 5.5 -17 5.5s-13 -1.66699 -17 -5s-7 -7.83301 -9 -13.5s-3.16699 -11.667 -3.5 -18s-0.5 -12.5 -0.5 -18.5v-404c0 -6 0.166992 -12.5 0.5 -19.5s1.5 -13.333 3.5 -19s5.16699 -10.334 9.5 -14.001
s10.166 -5.5 17.499 -5.5c6.66699 0 11.834 1.83301 15.501 5.5s6.5 8.33398 8.5 14.001s3.16699 12 3.5 19s0.5 13.5 0.5 19.5v403zM257.002 855.002l-141 -77l-67 58l141 130h138l136 -130l-67 -58z" />
    <glyph glyph-name="Otilde" unicode="&#xd5;" horiz-adv-x="512" 
d="M477 202c0 -43.333 -6.66504 -78.8311 -19.998 -106.498s-30.5 -49.334 -51.5 -65.001s-44.5 -26.5 -70.5 -32.5s-52 -9 -78 -9c-42 0 -77.167 5.5 -105.5 16.5s-51 26.833 -68 47.5s-29.167 45.334 -36.5 74.001s-11 61 -11 97v321c0 12.667 0.666992 27 2 43
s4.66602 32 9.99902 48s12.666 31.667 21.999 47s22.333 28.833 39 40.5s37 21.167 61 28.5s53 11 87 11c32.667 0 62.667 -4 90 -12s50.5 -20.833 69.5 -38.5s33.833 -40.334 44.5 -68.001s16 -60.834 16 -99.501v-343zM286.002 580.002c0 6 -0.166992 12.333 -0.5 19
s-1.33301 12.667 -3 18s-4.5 9.83301 -8.5 13.5s-9.66699 5.5 -17 5.5s-13 -1.66699 -17 -5s-7 -7.83301 -9 -13.5s-3.16699 -11.667 -3.5 -18s-0.5 -12.5 -0.5 -18.5v-404c0 -6 0.166992 -12.5 0.5 -19.5s1.5 -13.333 3.5 -19s5.16699 -10.334 9.5 -14.001
s10.166 -5.5 17.499 -5.5c6.66699 0 11.834 1.83301 15.501 5.5s6.5 8.33398 8.5 14.001s3.16699 12 3.5 19s0.5 13.5 0.5 19.5v403zM445.002 924.002c-2 -16.667 -6 -33.501 -12 -50.501s-13.667 -32.333 -23 -46s-20.333 -24.834 -33 -33.501s-26.667 -13 -42 -13
c-16.667 0 -31.667 1.83301 -45 5.5s-26.166 7.66699 -38.499 12s-24.5 8.33301 -36.5 12s-25 5.5 -39 5.5c-10.667 0 -20.5 -2 -29.5 -6s-18.167 -13 -27.5 -27l-49 15c1.33301 13.333 4.16602 28 8.49902 44s10.666 30.833 18.999 44.5s19 25.167 32 34.5
s29.167 14 48.5 14c16 0 30.667 -1.66699 44 -5s26 -7.16602 38 -11.499s24 -8.16602 36 -11.499s25 -5 39 -5c10.667 0 20.834 2.33301 30.501 7s19.167 13.667 28.5 27z" />
    <glyph glyph-name="Odieresis" unicode="&#xd6;" horiz-adv-x="512" 
d="M477 202c0 -43.333 -6.66504 -78.8311 -19.998 -106.498s-30.5 -49.334 -51.5 -65.001s-44.5 -26.5 -70.5 -32.5s-52 -9 -78 -9c-42 0 -77.167 5.5 -105.5 16.5s-51 26.833 -68 47.5s-29.167 45.334 -36.5 74.001s-11 61 -11 97v321c0 12.667 0.666992 27 2 43
s4.66602 32 9.99902 48s12.666 31.667 21.999 47s22.333 28.833 39 40.5s37 21.167 61 28.5s53 11 87 11c32.667 0 62.667 -4 90 -12s50.5 -20.833 69.5 -38.5s33.833 -40.334 44.5 -68.001s16 -60.834 16 -99.501v-343zM286.002 580.002c0 6 -0.166992 12.333 -0.5 19
s-1.33301 12.667 -3 18s-4.5 9.83301 -8.5 13.5s-9.66699 5.5 -17 5.5s-13 -1.66699 -17 -5s-7 -7.83301 -9 -13.5s-3.16699 -11.667 -3.5 -18s-0.5 -12.5 -0.5 -18.5v-404c0 -6 0.166992 -12.5 0.5 -19.5s1.5 -13.333 3.5 -19s5.16699 -10.334 9.5 -14.001
s10.166 -5.5 17.499 -5.5c6.66699 0 11.834 1.83301 15.501 5.5s6.5 8.33398 8.5 14.001s3.16699 12 3.5 19s0.5 13.5 0.5 19.5v403zM283.002 783.002v139h136v-139h-136zM93.002 783.002v139h136v-139h-136z" />
    <glyph glyph-name="multiply" unicode="&#xd7;" 
d="M261 236l-139 -140l-78 78l140 139l-137 137l80 80l136 -137l140 139l77 -77l-139 -140l137 -137l-80 -80z" />
    <glyph glyph-name="Oslash" unicode="&#xd8;" horiz-adv-x="512" 
d="M36 -10l37.002 75v1c-13.333 20 -22.833 43.333 -28.5 70s-8.5 56 -8.5 88v321c0 12.667 0.666992 27 2 43s4.66602 32 9.99902 48s12.666 31.667 21.999 47s22.333 28.833 39 40.5s37 21.167 61 28.5s53 11 87 11c57.333 0 104.333 -12.333 141 -37l19 38h60l-38 -77
c12 -17.333 21.333 -37.666 28 -60.999s10 -50.333 10 -81v-343c0 -43.333 -6.66699 -78.833 -20 -106.5s-30.5 -49.334 -51.5 -65.001s-44.5 -26.5 -70.5 -32.5s-52 -9 -78 -9c-32 0 -59.833 3.16699 -83.5 9.5s-44.167 15.5 -61.5 27.5l-17 -36h-59zM286.002 377l-59 -119
v-81c0 -6 0.166992 -12.5 0.5 -19.5s1.5 -13.333 3.5 -19s5.16699 -10.334 9.5 -14.001s10.166 -5.5 17.499 -5.5c6.66699 0 11.834 1.83301 15.501 5.5s6.5 8.33398 8.5 14.001s3.16699 12 3.5 19s0.5 13.5 0.5 19.5v200zM227.002 378l59 120v82
c0 6 -0.166992 12.333 -0.5 19s-1.33301 12.667 -3 18s-4.5 9.83301 -8.5 13.5s-9.66699 5.5 -17 5.5s-13 -1.66699 -17 -5s-7 -7.83301 -9 -13.5s-3.16699 -11.667 -3.5 -18s-0.5 -12.5 -0.5 -18.5v-203z" />
    <glyph glyph-name="Ugrave" unicode="&#xd9;" horiz-adv-x="517" 
d="M479 753v-551c0 -43.333 -6.66699 -78.833 -20 -106.5s-30.5 -49.334 -51.5 -65.001s-44.5 -26.5 -70.5 -32.5s-52 -9 -78 -9c-42 0 -77.167 5.5 -105.5 16.5s-51 26.833 -68 47.5s-29.167 45.334 -36.5 74.001s-11 61 -11 97v529h191v-576
c0 -6 0.166992 -12.5 0.5 -19.5s1.5 -13.333 3.5 -19s5.16699 -10.334 9.5 -14.001s10.166 -5.5 17.499 -5.5c6.66699 0 11.834 1.83301 15.501 5.5s6.5 8.33398 8.5 14.001s3.16699 12 3.5 19s0.5 13.5 0.5 19.5v576h191zM273 776l-198 97l84 116l171 -135z" />
    <glyph glyph-name="Uacute" unicode="&#xda;" horiz-adv-x="517" 
d="M479 753v-551c0 -43.333 -6.66699 -78.833 -20 -106.5s-30.5 -49.334 -51.5 -65.001s-44.5 -26.5 -70.5 -32.5s-52 -9 -78 -9c-42 0 -77.167 5.5 -105.5 16.5s-51 26.833 -68 47.5s-29.167 45.334 -36.5 74.001s-11 61 -11 97v529h191v-576
c0 -6 0.166992 -12.5 0.5 -19.5s1.5 -13.333 3.5 -19s5.16699 -10.334 9.5 -14.001s10.166 -5.5 17.499 -5.5c6.66699 0 11.834 1.83301 15.501 5.5s6.5 8.33398 8.5 14.001s3.16699 12 3.5 19s0.5 13.5 0.5 19.5v576h191zM182 854l171 135l84 -116l-198 -97z" />
    <glyph glyph-name="Ucircumflex" unicode="&#xdb;" horiz-adv-x="517" 
d="M479 753v-551c0 -43.333 -6.66699 -78.833 -20 -106.5s-30.5 -49.334 -51.5 -65.001s-44.5 -26.5 -70.5 -32.5s-52 -9 -78 -9c-42 0 -77.167 5.5 -105.5 16.5s-51 26.833 -68 47.5s-29.167 45.334 -36.5 74.001s-11 61 -11 97v529h191v-576
c0 -6 0.166992 -12.5 0.5 -19.5s1.5 -13.333 3.5 -19s5.16699 -10.334 9.5 -14.001s10.166 -5.5 17.499 -5.5c6.66699 0 11.834 1.83301 15.501 5.5s6.5 8.33398 8.5 14.001s3.16699 12 3.5 19s0.5 13.5 0.5 19.5v576h191zM259 855l-141 -77l-67 58l141 130h138l136 -130
l-67 -58z" />
    <glyph glyph-name="Udieresis" unicode="&#xdc;" horiz-adv-x="517" 
d="M479 753v-551c0 -43.333 -6.66699 -78.833 -20 -106.5s-30.5 -49.334 -51.5 -65.001s-44.5 -26.5 -70.5 -32.5s-52 -9 -78 -9c-42 0 -77.167 5.5 -105.5 16.5s-51 26.833 -68 47.5s-29.167 45.334 -36.5 74.001s-11 61 -11 97v529h191v-576
c0 -6 0.166992 -12.5 0.5 -19.5s1.5 -13.333 3.5 -19s5.16699 -10.334 9.5 -14.001s10.166 -5.5 17.499 -5.5c6.66699 0 11.834 1.83301 15.501 5.5s6.5 8.33398 8.5 14.001s3.16699 12 3.5 19s0.5 13.5 0.5 19.5v576h191zM284 783v139h136v-139h-136zM94 783v139h136v-139
h-136z" />
    <glyph glyph-name="Yacute" unicode="&#xdd;" horiz-adv-x="469" 
d="M319 272v-272h-177v272l-135 480h179l23 -152l22 -168h4l25 170l25 150h173zM175 854l171 135l84 -116l-198 -97z" />
    <glyph glyph-name="Thorn" unicode="&#xde;" horiz-adv-x="486" 
d="M40 756h189.001v-166h25c78 0 133.667 -17.167 167 -51.5s50 -87.166 50 -158.499c0 -41.333 -4.5 -76.333 -13.5 -105s-22.5 -51.834 -40.5 -69.501s-40.333 -30.5 -67 -38.5s-57.334 -12 -92.001 -12h-27v-155h-190zM231.001 284h11.001c20 0 34.167 7.5 42.5 22.5
s12.5 38.167 12.5 69.5c0 33.333 -4.83301 55.833 -14.5 67.5s-23.834 17.5 -42.501 17.5h-9v-177z" />
    <glyph glyph-name="germandbls" unicode="&#xdf;" horiz-adv-x="487" 
d="M388 436c46.667 -16.667 69.9961 -58.001 69.9961 -124.001v-171c0 -28 -4.16699 -51.667 -12.5 -71s-19.666 -35 -33.999 -47s-31.333 -20.667 -51 -26s-40.5 -8 -62.5 -8h-50v115h9c10 0 16.833 3.5 20.5 10.5s5.5 15.167 5.5 24.5v183c0 20 -2.5 34.667 -7.5 44
s-15.5 14 -31.5 14v109h3c12.667 0 20.834 3.66699 24.501 11s5.5 20 5.5 38v99c0 10.667 -3 19.334 -9 26.001s-13 10 -21 10c-10 0 -18.167 -4 -24.5 -12s-9.5 -18.333 -9.5 -31v-630h-176v577c0 26 4.16699 51.333 12.5 76s21 46.334 38 65.001s38.833 33.667 65.5 45
s58.667 17 96 17c39.333 0 71.833 -6.33301 97.5 -19s45.834 -27.834 60.501 -45.501s24.834 -36.167 30.501 -55.5s8.5 -35.333 8.5 -48v-72c0 -23.333 -5.83301 -43.833 -17.5 -61.5s-25.167 -30.167 -40.5 -37.5v-5z" />
    <glyph glyph-name="agrave" unicode="&#xe0;" horiz-adv-x="484" 
d="M261 47c-12 -17.333 -26.3359 -31.3389 -43.0029 -42.0059s-36.334 -16 -59.001 -16c-40 0 -71.5 10.333 -94.5 31s-34.5 50.334 -34.5 89.001v92c0 22.667 2.33301 41.834 7 57.501s12 29.334 22 41.001s23 22.167 39 31.5s35.667 19.333 59 30l77 35
c10 4.66699 17 11.334 21 20.001s6 17 6 25v33c0 15.333 -2.16699 26.5 -6.5 33.5s-12.166 10.5 -23.499 10.5c-12 0 -19.833 -4.16699 -23.5 -12.5s-5.5 -18.166 -5.5 -29.499v-70h-172v27c0 66.667 18.167 115.834 54.5 147.501s87.833 47.5 154.5 47.5
c44.667 0 80.334 -5.33301 107.001 -16s47.334 -25.667 62.001 -45s24.334 -42.333 29.001 -69s7 -55.667 7 -87v-411h-166l-10 47h-7zM259.997 280.994c-18.667 -8.66699 -33.002 -18.667 -43.002 -30s-15 -24.333 -15 -39v-59c0 -12.667 1.33301 -25 4 -37
s11.667 -18 27 -18c6.66699 0 11.834 1.83301 15.501 5.5s6.33398 8.5 8.00098 14.5s2.66699 12.333 3 19s0.5 13 0.5 19v125zM260.995 649.994l-171 151l120 97l135 -186z" />
    <glyph glyph-name="aacute" unicode="&#xe1;" horiz-adv-x="484" 
d="M261 47c-12 -17.333 -26.3359 -31.3389 -43.0029 -42.0059s-36.334 -16 -59.001 -16c-40 0 -71.5 10.333 -94.5 31s-34.5 50.334 -34.5 89.001v92c0 22.667 2.33301 41.834 7 57.501s12 29.334 22 41.001s23 22.167 39 31.5s35.667 19.333 59 30l77 35
c10 4.66699 17 11.334 21 20.001s6 17 6 25v33c0 15.333 -2.16699 26.5 -6.5 33.5s-12.166 10.5 -23.499 10.5c-12 0 -19.833 -4.16699 -23.5 -12.5s-5.5 -18.166 -5.5 -29.499v-70h-172v27c0 66.667 18.167 115.834 54.5 147.501s87.833 47.5 154.5 47.5
c44.667 0 80.334 -5.33301 107.001 -16s47.334 -25.667 62.001 -45s24.334 -42.333 29.001 -69s7 -55.667 7 -87v-411h-166l-10 47h-7zM259.997 280.994c-18.667 -8.66699 -33.002 -18.667 -43.002 -30s-15 -24.333 -15 -39v-59c0 -12.667 1.33301 -25 4 -37
s11.667 -18 27 -18c6.66699 0 11.834 1.83301 15.501 5.5s6.33398 8.5 8.00098 14.5s2.66699 12.333 3 19s0.5 13 0.5 19v125zM146.995 708.994l132 184l126 -94l-174 -152z" />
    <glyph glyph-name="acircumflex" unicode="&#xe2;" horiz-adv-x="484" 
d="M261 47c-12 -17.333 -26.3359 -31.3389 -43.0029 -42.0059s-36.334 -16 -59.001 -16c-40 0 -71.5 10.333 -94.5 31s-34.5 50.334 -34.5 89.001v92c0 22.667 2.33301 41.834 7 57.501s12 29.334 22 41.001s23 22.167 39 31.5s35.667 19.333 59 30l77 35
c10 4.66699 17 11.334 21 20.001s6 17 6 25v33c0 15.333 -2.16699 26.5 -6.5 33.5s-12.166 10.5 -23.499 10.5c-12 0 -19.833 -4.16699 -23.5 -12.5s-5.5 -18.166 -5.5 -29.499v-70h-172v27c0 66.667 18.167 115.834 54.5 147.501s87.833 47.5 154.5 47.5
c44.667 0 80.334 -5.33301 107.001 -16s47.334 -25.667 62.001 -45s24.334 -42.333 29.001 -69s7 -55.667 7 -87v-411h-166l-10 47h-7zM259.997 280.994c-18.667 -8.66699 -33.002 -18.667 -43.002 -30s-15 -24.333 -15 -39v-59c0 -12.667 1.33301 -25 4 -37
s11.667 -18 27 -18c6.66699 0 11.834 1.83301 15.501 5.5s6.33398 8.5 8.00098 14.5s2.66699 12.333 3 19s0.5 13 0.5 19v125zM240.995 743.994l-141 -107l-67 58l141 160h138l136 -160l-67 -58z" />
    <glyph glyph-name="atilde" unicode="&#xe3;" horiz-adv-x="484" 
d="M261 47c-12 -17.333 -26.3359 -31.3389 -43.0029 -42.0059s-36.334 -16 -59.001 -16c-40 0 -71.5 10.333 -94.5 31s-34.5 50.334 -34.5 89.001v92c0 22.667 2.33301 41.834 7 57.501s12 29.334 22 41.001s23 22.167 39 31.5s35.667 19.333 59 30l77 35
c10 4.66699 17 11.334 21 20.001s6 17 6 25v33c0 15.333 -2.16699 26.5 -6.5 33.5s-12.166 10.5 -23.499 10.5c-12 0 -19.833 -4.16699 -23.5 -12.5s-5.5 -18.166 -5.5 -29.499v-70h-172v27c0 66.667 18.167 115.834 54.5 147.501s87.833 47.5 154.5 47.5
c44.667 0 80.334 -5.33301 107.001 -16s47.334 -25.667 62.001 -45s24.334 -42.333 29.001 -69s7 -55.667 7 -87v-411h-166l-10 47h-7zM259.997 280.994c-18.667 -8.66699 -33.002 -18.667 -43.002 -30s-15 -24.333 -15 -39v-59c0 -12.667 1.33301 -25 4 -37
s11.667 -18 27 -18c6.66699 0 11.834 1.83301 15.501 5.5s6.33398 8.5 8.00098 14.5s2.66699 12.333 3 19s0.5 13 0.5 19v125zM426.995 803.994c-2 -16.667 -6 -33.501 -12 -50.501s-13.667 -32.333 -23 -46s-20.333 -24.834 -33 -33.501s-26.667 -13 -42 -13
c-16.667 0 -31.667 1.83301 -45 5.5s-26.166 7.66699 -38.499 12s-24.5 8.33301 -36.5 12s-25 5.5 -39 5.5c-10.667 0 -20.5 -2 -29.5 -6s-18.167 -13 -27.5 -27l-49 15c1.33301 13.333 4.16602 28 8.49902 44s10.666 30.833 18.999 44.5s19 25.167 32 34.5
s29.167 14 48.5 14c16 0 30.667 -1.66699 44 -5s26 -7.16602 38 -11.499s24 -8.16602 36 -11.499s25 -5 39 -5c10.667 0 20.834 2.33301 30.501 7s19.167 13.667 28.5 27z" />
    <glyph glyph-name="adieresis" unicode="&#xe4;" horiz-adv-x="484" 
d="M261 47c-12 -17.333 -26.3359 -31.3389 -43.0029 -42.0059s-36.334 -16 -59.001 -16c-40 0 -71.5 10.333 -94.5 31s-34.5 50.334 -34.5 89.001v92c0 22.667 2.33301 41.834 7 57.501s12 29.334 22 41.001s23 22.167 39 31.5s35.667 19.333 59 30l77 35
c10 4.66699 17 11.334 21 20.001s6 17 6 25v33c0 15.333 -2.16699 26.5 -6.5 33.5s-12.166 10.5 -23.499 10.5c-12 0 -19.833 -4.16699 -23.5 -12.5s-5.5 -18.166 -5.5 -29.499v-70h-172v27c0 66.667 18.167 115.834 54.5 147.501s87.833 47.5 154.5 47.5
c44.667 0 80.334 -5.33301 107.001 -16s47.334 -25.667 62.001 -45s24.334 -42.333 29.001 -69s7 -55.667 7 -87v-411h-166l-10 47h-7zM259.997 280.994c-18.667 -8.66699 -33.002 -18.667 -43.002 -30s-15 -24.333 -15 -39v-59c0 -12.667 1.33301 -25 4 -37
s11.667 -18 27 -18c6.66699 0 11.834 1.83301 15.501 5.5s6.33398 8.5 8.00098 14.5s2.66699 12.333 3 19s0.5 13 0.5 19v125zM261.995 675.994v139h136v-139h-136zM71.9951 675.994v139h136v-139h-136z" />
    <glyph glyph-name="aring" unicode="&#xe5;" horiz-adv-x="484" 
d="M261 47c-12 -17.333 -26.3359 -31.3389 -43.0029 -42.0059s-36.334 -16 -59.001 -16c-40 0 -71.5 10.333 -94.5 31s-34.5 50.334 -34.5 89.001v92c0 22.667 2.33301 41.834 7 57.501s12 29.334 22 41.001s23 22.167 39 31.5s35.667 19.333 59 30l77 35
c10 4.66699 17 11.334 21 20.001s6 17 6 25v33c0 15.333 -2.16699 26.5 -6.5 33.5s-12.166 10.5 -23.499 10.5c-12 0 -19.833 -4.16699 -23.5 -12.5s-5.5 -18.166 -5.5 -29.499v-70h-172v27c0 66.667 18.167 115.834 54.5 147.501s87.833 47.5 154.5 47.5
c44.667 0 80.334 -5.33301 107.001 -16s47.334 -25.667 62.001 -45s24.334 -42.333 29.001 -69s7 -55.667 7 -87v-411h-166l-10 47h-7zM259.997 280.994c-18.667 -8.66699 -33.002 -18.667 -43.002 -30s-15 -24.333 -15 -39v-59c0 -12.667 1.33301 -25 4 -37
s11.667 -18 27 -18c6.66699 0 11.834 1.83301 15.501 5.5s6.33398 8.5 8.00098 14.5s2.66699 12.333 3 19s0.5 13 0.5 19v125zM238.995 642.994c-17.333 0 -33.833 3.5 -49.5 10.5s-29.334 16.5 -41.001 28.5s-21 26 -28 42s-10.5 33.333 -10.5 52
c0 17.333 3.5 33.833 10.5 49.5s16.5 29.334 28.5 41.001s26.167 21 42.5 28s33.5 10.5 51.5 10.5c17.333 0 33.833 -3.5 49.5 -10.5s29.334 -16.333 41.001 -28s21 -25.334 28 -41.001s10.5 -32.167 10.5 -49.5c0 -18 -3.5 -35.167 -10.5 -51.5s-16.5 -30.5 -28.5 -42.5
s-26 -21.5 -42 -28.5s-33.333 -10.5 -52 -10.5zM242.995 808.994c-10.667 0 -19.332 -3.16699 -25.999 -9.5s-10 -14.166 -10 -23.499c0 -10.667 3.16699 -19.334 9.5 -26.001s15.166 -10 26.499 -10c9.33301 0 17.166 3.33301 23.499 10s9.5 15.334 9.5 26.001
c0 9.33301 -3.16699 17.166 -9.5 23.499s-14.166 9.5 -23.499 9.5z" />
    <glyph glyph-name="ae" unicode="&#xe6;" horiz-adv-x="712" 
d="M445 301l-0.00585938 -153.007c0 -12 1.5 -23.167 4.5 -33.5s11.167 -15.5 24.5 -15.5c12.667 0 20.5 5.16699 23.5 15.5s4.5 21.5 4.5 33.5v109h181v-48c0 -71.333 -17.667 -125.666 -53 -162.999s-87.666 -56 -156.999 -56c-36 0 -66.333 4 -91 12s-45 19 -61 33
c-13.333 -10.667 -26.833 -19 -40.5 -25s-27 -10.5 -40 -13.5s-25.5 -5 -37.5 -6s-23.333 -1.5 -34 -1.5c-48.667 0 -84 10.333 -106 31s-33 50.334 -33 89.001v92c0 22.667 2.33301 41.834 7 57.501s12 29.334 22 41.001s23 22.167 39 31.5s35.667 19.333 59 30l77 35
c10 4.66699 17 11.334 21 20.001s6 17 6 25v33c0 15.333 -2.16699 26.5 -6.5 33.5s-12.166 10.5 -23.499 10.5c-12 0 -19.833 -4.16699 -23.5 -12.5s-5.5 -18.166 -5.5 -29.499v-70h-172v27c0 66.667 17.833 115.834 53.5 147.501s86.834 47.5 153.501 47.5
c27.333 0 50.833 -2.16699 70.5 -6.5s37.167 -10.166 52.5 -17.499c30.667 15.333 68.334 23 113.001 23c30 0 57.833 -3.66699 83.5 -11s47.834 -19.5 66.501 -36.5s33.334 -39.333 44.001 -67s16 -61.834 16 -102.501v-109h-238zM259.994 280.993
c-18.667 -8.66699 -33 -18.667 -43 -30s-15 -24.333 -15 -39v-59c0 -12.667 1.33301 -25 4 -37s11.667 -18 27 -18c6 0 10.833 1.83301 14.5 5.5s6.5 8.16699 8.5 13.5s3.16699 11.333 3.5 18s0.5 13 0.5 19v127zM501.994 408.993v54.999c0 11.333 -1.5 22.833 -4.5 34.5
s-10.833 17.5 -23.5 17.5c-6.66699 0 -12 -1.66699 -16 -5s-7 -7.5 -9 -12.5s-3.16699 -10.667 -3.5 -17s-0.5 -12.166 -0.5 -17.499v-55h57z" />
    <glyph glyph-name="ccedilla" unicode="&#xe7;" horiz-adv-x="464" 
d="M441 254l0.00292969 -45.002c0 -68.667 -14.667 -121.667 -44 -159s-77.333 -57.333 -144 -60l-15 -33h8c24 0 44.333 -6.5 61 -19.5s25 -31.167 25 -54.5c0 -15.333 -3.16699 -28.333 -9.5 -39s-14.833 -19.667 -25.5 -27s-22.667 -12.666 -36 -15.999
s-27.333 -5 -42 -5c-18.667 0 -36.5 2.33301 -53.5 7s-33.833 10.667 -50.5 18l20 55c15.333 -5.33301 28.833 -9 40.5 -11s23.167 -3 34.5 -3c8 0 14.167 2 18.5 6s6.5 9 6.5 15c0 8 -3 13.833 -9 17.5s-13 5.5 -21 5.5c-3.33301 0 -6.83301 -0.333008 -10.5 -1
s-8.83398 -2.66699 -15.501 -6l-23 23l33 72c-32.667 4 -59.334 12.5 -80.001 25.5s-36.834 28.833 -48.501 47.5s-19.667 39.834 -24 63.501s-6.5 48.167 -6.5 73.5v204c0 146 69.667 219 209 219c32 0 60.667 -3.66699 86 -11s46.5 -19.5 63.5 -36.5s30 -39.333 39 -67
s13.5 -61.834 13.5 -102.501v-26h-173v80c0 11.333 -1.5 22.833 -4.5 34.5s-10.833 17.5 -23.5 17.5c-6.66699 0 -12 -1.66699 -16 -5s-7 -7.5 -9 -12.5s-3.16699 -10.667 -3.5 -17s-0.5 -12.166 -0.5 -17.499v-316c0 -12 1.5 -23.167 4.5 -33.5s11.167 -15.5 24.5 -15.5
c12.667 0 20.5 5.16699 23.5 15.5s4.5 21.5 4.5 33.5v106h173z" />
    <glyph glyph-name="egrave" unicode="&#xe8;" horiz-adv-x="480" 
d="M268 409v54.999c0 11.333 -1.5 22.833 -4.5 34.5s-10.833 17.5 -23.5 17.5c-6.66699 0 -12 -1.66699 -16 -5s-7 -7.5 -9 -12.5s-3.16699 -10.667 -3.5 -17s-0.5 -12.166 -0.5 -17.499v-55h57zM211 300.999l-0.00292969 -153.003c0 -12 1.5 -23.167 4.5 -33.5
s11.167 -15.5 24.5 -15.5c12.667 0 20.5 5.16699 23.5 15.5s4.5 21.5 4.5 33.5v109h181v-48c0 -71.333 -17.667 -125.666 -53 -162.999s-87.666 -56 -156.999 -56c-43.333 0 -78.5 5.83301 -105.5 17.5s-48.167 27.334 -63.5 47.001s-25.833 42.334 -31.5 68.001
s-8.5 52.834 -8.5 81.501v204c0 146 69.667 219 209 219c30 0 57.833 -3.66699 83.5 -11s47.834 -19.5 66.501 -36.5s33.334 -39.333 44.001 -67s16 -61.834 16 -102.501v-109h-238zM250.997 649.996l-171 151l120 97l135 -186z" />
    <glyph glyph-name="eacute" unicode="&#xe9;" horiz-adv-x="480" 
d="M268 409v54.999c0 11.333 -1.5 22.833 -4.5 34.5s-10.833 17.5 -23.5 17.5c-6.66699 0 -12 -1.66699 -16 -5s-7 -7.5 -9 -12.5s-3.16699 -10.667 -3.5 -17s-0.5 -12.166 -0.5 -17.499v-55h57zM211 300.999l-0.00292969 -153.003c0 -12 1.5 -23.167 4.5 -33.5
s11.167 -15.5 24.5 -15.5c12.667 0 20.5 5.16699 23.5 15.5s4.5 21.5 4.5 33.5v109h181v-48c0 -71.333 -17.667 -125.666 -53 -162.999s-87.666 -56 -156.999 -56c-43.333 0 -78.5 5.83301 -105.5 17.5s-48.167 27.334 -63.5 47.001s-25.833 42.334 -31.5 68.001
s-8.5 52.834 -8.5 81.501v204c0 146 69.667 219 209 219c30 0 57.833 -3.66699 83.5 -11s47.834 -19.5 66.501 -36.5s33.334 -39.333 44.001 -67s16 -61.834 16 -102.501v-109h-238zM146.997 708.996l132 184l126 -94l-174 -152z" />
    <glyph glyph-name="ecircumflex" unicode="&#xea;" horiz-adv-x="480" 
d="M268 409v54.999c0 11.333 -1.5 22.833 -4.5 34.5s-10.833 17.5 -23.5 17.5c-6.66699 0 -12 -1.66699 -16 -5s-7 -7.5 -9 -12.5s-3.16699 -10.667 -3.5 -17s-0.5 -12.166 -0.5 -17.499v-55h57zM211 300.999l-0.00292969 -153.003c0 -12 1.5 -23.167 4.5 -33.5
s11.167 -15.5 24.5 -15.5c12.667 0 20.5 5.16699 23.5 15.5s4.5 21.5 4.5 33.5v109h181v-48c0 -71.333 -17.667 -125.666 -53 -162.999s-87.666 -56 -156.999 -56c-43.333 0 -78.5 5.83301 -105.5 17.5s-48.167 27.334 -63.5 47.001s-25.833 42.334 -31.5 68.001
s-8.5 52.834 -8.5 81.501v204c0 146 69.667 219 209 219c30 0 57.833 -3.66699 83.5 -11s47.834 -19.5 66.501 -36.5s33.334 -39.333 44.001 -67s16 -61.834 16 -102.501v-109h-238zM238.997 743.996l-141 -107l-67 58l141 160h138l136 -160l-67 -58z" />
    <glyph glyph-name="edieresis" unicode="&#xeb;" horiz-adv-x="480" 
d="M268 409v54.999c0 11.333 -1.5 22.833 -4.5 34.5s-10.833 17.5 -23.5 17.5c-6.66699 0 -12 -1.66699 -16 -5s-7 -7.5 -9 -12.5s-3.16699 -10.667 -3.5 -17s-0.5 -12.166 -0.5 -17.499v-55h57zM211 300.999l-0.00292969 -153.003c0 -12 1.5 -23.167 4.5 -33.5
s11.167 -15.5 24.5 -15.5c12.667 0 20.5 5.16699 23.5 15.5s4.5 21.5 4.5 33.5v109h181v-48c0 -71.333 -17.667 -125.666 -53 -162.999s-87.666 -56 -156.999 -56c-43.333 0 -78.5 5.83301 -105.5 17.5s-48.167 27.334 -63.5 47.001s-25.833 42.334 -31.5 68.001
s-8.5 52.834 -8.5 81.501v204c0 146 69.667 219 209 219c30 0 57.833 -3.66699 83.5 -11s47.834 -19.5 66.501 -36.5s33.334 -39.333 44.001 -67s16 -61.834 16 -102.501v-109h-238zM269.997 675.996v139h136v-139h-136zM79.9971 675.996v139h136v-139h-136z" />
    <glyph glyph-name="igrave" unicode="&#xec;" horiz-adv-x="259" 
d="M36 0v617h188v-617h-188zM128 650l-171 151l120 97l135 -186z" />
    <glyph glyph-name="iacute" unicode="&#xed;" horiz-adv-x="259" 
d="M36 0v617h188v-617h-188zM52 709l132 184l126 -94l-174 -152z" />
    <glyph glyph-name="icircumflex" unicode="&#xee;" horiz-adv-x="259" 
d="M36 0v617h188v-617h-188zM136 744l-141 -107l-67 58l141 160h138l136 -160l-67 -58z" />
    <glyph glyph-name="idieresis" unicode="&#xef;" horiz-adv-x="259" 
d="M36 0v617h188v-617h-188zM157 676v139h136v-139h-136zM-33 676v139h136v-139h-136z" />
    <glyph glyph-name="eth" unicode="&#xf0;" horiz-adv-x="462" 
d="M406 664c11.333 -23.333 19.499 -48.8369 24.499 -76.5039s7.5 -56.834 7.5 -87.501v-291c0 -71.333 -17.667 -125.666 -53 -162.999s-87.666 -56 -156.999 -56c-43.333 0 -78.5 5.83301 -105.5 17.5s-48.167 27.334 -63.5 47.001s-25.833 42.334 -31.5 68.001
s-8.5 52.834 -8.5 81.501v75c0 73.333 16.667 128.166 50 164.499s79.333 54.5 138 54.5c8 0 19.5 -1.5 34.5 -4.5s28.167 -9.16699 39.5 -18.5v23c0 14 -0.666992 28 -2 42s-4 27.333 -8 40l-82 -51l-38 55l84 52c-12.667 10.667 -28.5 18.834 -47.5 24.501
s-42.5 8.83398 -70.5 9.50098l8 136c58.667 -0.666992 107.667 -8.5 147 -23.5s71.333 -35.833 96 -62.5l64 40l37 -57zM256.999 359.996c-0.666992 8.66699 -4 15.332 -10 19.999s-12 7 -18 7c-6.66699 0 -12 -1.66699 -16 -5s-7 -7.5 -9 -12.5s-3.16699 -10.667 -3.5 -17
s-0.5 -12.166 -0.5 -17.499v-187c0 -12 1.5 -23.167 4.5 -33.5s11.167 -15.5 24.5 -15.5c12.667 0 20.5 5.16699 23.5 15.5s4.5 21.5 4.5 33.5v212z" />
    <glyph glyph-name="ntilde" unicode="&#xf1;" horiz-adv-x="491" 
d="M222 566c26 41.333 63.335 61.998 112.002 61.998c30 0 53.333 -5.66699 70 -17s29 -26.166 37 -44.499s12.833 -39 14.5 -62s2.5 -46.167 2.5 -69.5v-435h-183v456c0 6 -0.333008 12.167 -1 18.5s-1.83398 12.166 -3.50098 17.499s-4.33398 9.66602 -8.00098 12.999
s-8.5 5 -14.5 5s-11 -1.66699 -15 -5s-7 -7.66602 -9 -12.999s-3.5 -11.166 -4.5 -17.499s-1.5 -12.166 -1.5 -17.499v-457h-182v617h170l12 -50zM435.002 803.998c-2 -16.667 -6 -33.501 -12 -50.501s-13.667 -32.333 -23 -46s-20.333 -24.834 -33 -33.501
s-26.667 -13 -42 -13c-16.667 0 -31.667 1.83301 -45 5.5s-26.166 7.66699 -38.499 12s-24.5 8.33301 -36.5 12s-25 5.5 -39 5.5c-10.667 0 -20.5 -2 -29.5 -6s-18.167 -13 -27.5 -27l-49 15c1.33301 13.333 4.16602 28 8.49902 44s10.666 30.833 18.999 44.5
s19 25.167 32 34.5s29.167 14 48.5 14c16 0 30.667 -1.66699 44 -5s26 -7.16602 38 -11.499s24 -8.16602 36 -11.499s25 -5 39 -5c10.667 0 20.834 2.33301 30.501 7s19.167 13.667 28.5 27z" />
    <glyph glyph-name="ograve" unicode="&#xf2;" horiz-adv-x="480" 
d="M449 209c0 -71.333 -17.6699 -125.669 -53.0029 -163.002s-87.666 -56 -156.999 -56c-43.333 0 -78.5 5.83301 -105.5 17.5s-48.167 27.334 -63.5 47.001s-25.833 42.334 -31.5 68.001s-8.5 52.834 -8.5 81.501v204c0 146 69.667 219 209 219
c30 0 57.833 -3.66699 83.5 -11s47.834 -19.5 66.501 -36.5s33.334 -39.333 44.001 -67s16 -61.834 16 -102.501v-201zM267.997 463.997c0 11.333 -1.5 22.832 -4.5 34.499s-10.833 17.5 -23.5 17.5c-6.66699 0 -12 -1.66699 -16 -5s-7 -7.5 -9 -12.5
s-3.16699 -10.667 -3.5 -17s-0.5 -12.166 -0.5 -17.499v-316c0 -12 1.5 -23.167 4.5 -33.5s11.167 -15.5 24.5 -15.5c12.667 0 20.5 5.16699 23.5 15.5s4.5 21.5 4.5 33.5v316zM253.997 649.996l-171 151l120 97l135 -186z" />
    <glyph glyph-name="oacute" unicode="&#xf3;" horiz-adv-x="480" 
d="M449 209c0 -71.333 -17.6699 -125.669 -53.0029 -163.002s-87.666 -56 -156.999 -56c-43.333 0 -78.5 5.83301 -105.5 17.5s-48.167 27.334 -63.5 47.001s-25.833 42.334 -31.5 68.001s-8.5 52.834 -8.5 81.501v204c0 146 69.667 219 209 219
c30 0 57.833 -3.66699 83.5 -11s47.834 -19.5 66.501 -36.5s33.334 -39.333 44.001 -67s16 -61.834 16 -102.501v-201zM267.997 463.997c0 11.333 -1.5 22.832 -4.5 34.499s-10.833 17.5 -23.5 17.5c-6.66699 0 -12 -1.66699 -16 -5s-7 -7.5 -9 -12.5
s-3.16699 -10.667 -3.5 -17s-0.5 -12.166 -0.5 -17.499v-316c0 -12 1.5 -23.167 4.5 -33.5s11.167 -15.5 24.5 -15.5c12.667 0 20.5 5.16699 23.5 15.5s4.5 21.5 4.5 33.5v316zM139.997 708.996l132 184l126 -94l-174 -152z" />
    <glyph glyph-name="ocircumflex" unicode="&#xf4;" horiz-adv-x="480" 
d="M449 209c0 -71.333 -17.6699 -125.669 -53.0029 -163.002s-87.666 -56 -156.999 -56c-43.333 0 -78.5 5.83301 -105.5 17.5s-48.167 27.334 -63.5 47.001s-25.833 42.334 -31.5 68.001s-8.5 52.834 -8.5 81.501v204c0 146 69.667 219 209 219
c30 0 57.833 -3.66699 83.5 -11s47.834 -19.5 66.501 -36.5s33.334 -39.333 44.001 -67s16 -61.834 16 -102.501v-201zM267.997 463.997c0 11.333 -1.5 22.832 -4.5 34.499s-10.833 17.5 -23.5 17.5c-6.66699 0 -12 -1.66699 -16 -5s-7 -7.5 -9 -12.5
s-3.16699 -10.667 -3.5 -17s-0.5 -12.166 -0.5 -17.499v-316c0 -12 1.5 -23.167 4.5 -33.5s11.167 -15.5 24.5 -15.5c12.667 0 20.5 5.16699 23.5 15.5s4.5 21.5 4.5 33.5v316zM240.997 743.996l-141 -107l-67 58l141 160h138l136 -160l-67 -58z" />
    <glyph glyph-name="otilde" unicode="&#xf5;" horiz-adv-x="480" 
d="M449 209c0 -71.333 -17.6699 -125.669 -53.0029 -163.002s-87.666 -56 -156.999 -56c-43.333 0 -78.5 5.83301 -105.5 17.5s-48.167 27.334 -63.5 47.001s-25.833 42.334 -31.5 68.001s-8.5 52.834 -8.5 81.501v204c0 146 69.667 219 209 219
c30 0 57.833 -3.66699 83.5 -11s47.834 -19.5 66.501 -36.5s33.334 -39.333 44.001 -67s16 -61.834 16 -102.501v-201zM267.997 463.997c0 11.333 -1.5 22.832 -4.5 34.499s-10.833 17.5 -23.5 17.5c-6.66699 0 -12 -1.66699 -16 -5s-7 -7.5 -9 -12.5
s-3.16699 -10.667 -3.5 -17s-0.5 -12.166 -0.5 -17.499v-316c0 -12 1.5 -23.167 4.5 -33.5s11.167 -15.5 24.5 -15.5c12.667 0 20.5 5.16699 23.5 15.5s4.5 21.5 4.5 33.5v316zM429.997 803.996c-2 -16.667 -6 -33.501 -12 -50.501s-13.667 -32.333 -23 -46
s-20.333 -24.834 -33 -33.501s-26.667 -13 -42 -13c-16.667 0 -31.667 1.83301 -45 5.5s-26.166 7.66699 -38.499 12s-24.5 8.33301 -36.5 12s-25 5.5 -39 5.5c-10.667 0 -20.5 -2 -29.5 -6s-18.167 -13 -27.5 -27l-49 15c1.33301 13.333 4.16602 28 8.49902 44
s10.666 30.833 18.999 44.5s19 25.167 32 34.5s29.167 14 48.5 14c16 0 30.667 -1.66699 44 -5s26 -7.16602 38 -11.499s24 -8.16602 36 -11.499s25 -5 39 -5c10.667 0 20.834 2.33301 30.501 7s19.167 13.667 28.5 27z" />
    <glyph glyph-name="odieresis" unicode="&#xf6;" horiz-adv-x="480" 
d="M449 209c0 -71.333 -17.6699 -125.669 -53.0029 -163.002s-87.666 -56 -156.999 -56c-43.333 0 -78.5 5.83301 -105.5 17.5s-48.167 27.334 -63.5 47.001s-25.833 42.334 -31.5 68.001s-8.5 52.834 -8.5 81.501v204c0 146 69.667 219 209 219
c30 0 57.833 -3.66699 83.5 -11s47.834 -19.5 66.501 -36.5s33.334 -39.333 44.001 -67s16 -61.834 16 -102.501v-201zM267.997 463.997c0 11.333 -1.5 22.832 -4.5 34.499s-10.833 17.5 -23.5 17.5c-6.66699 0 -12 -1.66699 -16 -5s-7 -7.5 -9 -12.5
s-3.16699 -10.667 -3.5 -17s-0.5 -12.166 -0.5 -17.499v-316c0 -12 1.5 -23.167 4.5 -33.5s11.167 -15.5 24.5 -15.5c12.667 0 20.5 5.16699 23.5 15.5s4.5 21.5 4.5 33.5v316zM268.997 675.996v139h136v-139h-136zM78.9971 675.996v139h136v-139h-136z" />
    <glyph glyph-name="divide" unicode="&#xf7;" 
d="M345 487c0 -21.333 -7.66699 -39.667 -23 -55s-34.333 -23 -57 -23s-41.5 7.5 -56.5 22.5s-22.5 33.5 -22.5 55.5c0 22.667 7.66699 41.5 23 56.5s34.333 22.5 57 22.5c21.333 0 39.833 -7.5 55.5 -22.5s23.5 -33.833 23.5 -56.5zM345 138.999
c0 -21.333 -7.5 -39.833 -22.5 -55.5s-33.833 -23.5 -56.5 -23.5s-41.667 7.5 -57 22.5s-23 33.833 -23 56.5c0 22 7.66699 40.667 23 56s34.333 23 57 23c21.333 0 39.833 -7.66699 55.5 -23s23.5 -34 23.5 -56zM47 256.999v114h437v-114h-437z" />
    <glyph glyph-name="oslash" unicode="&#xf8;" horiz-adv-x="480" 
d="M31 -12l37.9971 66.999c-15.333 19.333 -25.666 41.833 -30.999 67.5s-8 52.834 -8 81.501v204c0 146 69.667 219 209 219c26 0 50.5 -2.83301 73.5 -8.5s43.5 -14.834 61.5 -27.501l20 36h57l-41 -71c12.667 -17.333 22.334 -38 29.001 -62s10 -52 10 -84v-201
c0 -71.333 -17.667 -125.666 -53 -162.999s-87.666 -56 -156.999 -56c-30 0 -56 2.83301 -78 8.5s-41 13.5 -57 23.5l-19 -34h-54zM210.997 304.999l57 99.999v59c0 11.333 -1.5 22.833 -4.5 34.5s-10.833 17.5 -23.5 17.5c-6.66699 0 -12 -1.66699 -16 -5s-7 -7.5 -9 -12.5
s-3.16699 -10.667 -3.5 -17s-0.5 -12.166 -0.5 -17.499v-159zM267.997 307.998l-57 -100v-60c0 -12 1.5 -23.167 4.5 -33.5s11.167 -15.5 24.5 -15.5c12.667 0 20.5 5.16699 23.5 15.5s4.5 21.5 4.5 33.5v160z" />
    <glyph glyph-name="ugrave" unicode="&#xf9;" horiz-adv-x="490" 
d="M270 51c-26 -41.333 -63.335 -61.998 -112.002 -61.998c-30 0 -53.333 5.66699 -70 17s-29 26.166 -37 44.499s-12.833 39 -14.5 62s-2.5 46.167 -2.5 69.5v435h183v-456c0 -6 0.333008 -12.167 1 -18.5s1.83398 -12.166 3.50098 -17.499
s4.33398 -9.66602 8.00098 -12.999s8.5 -5 14.5 -5s11 1.66699 15 5s7 7.66602 9 12.999s3.5 11.166 4.5 17.499s1.5 12.166 1.5 17.499v457h182v-617h-170l-12 50zM260.998 650.002l-171 151l120 97l135 -186z" />
    <glyph glyph-name="uacute" unicode="&#xfa;" horiz-adv-x="490" 
d="M270 51c-26 -41.333 -63.335 -61.998 -112.002 -61.998c-30 0 -53.333 5.66699 -70 17s-29 26.166 -37 44.499s-12.833 39 -14.5 62s-2.5 46.167 -2.5 69.5v435h183v-456c0 -6 0.333008 -12.167 1 -18.5s1.83398 -12.166 3.50098 -17.499
s4.33398 -9.66602 8.00098 -12.999s8.5 -5 14.5 -5s11 1.66699 15 5s7 7.66602 9 12.999s3.5 11.166 4.5 17.499s1.5 12.166 1.5 17.499v457h182v-617h-170l-12 50zM147.998 709.002l132 184l126 -94l-174 -152z" />
    <glyph glyph-name="ucircumflex" unicode="&#xfb;" horiz-adv-x="490" 
d="M270 51c-26 -41.333 -63.335 -61.998 -112.002 -61.998c-30 0 -53.333 5.66699 -70 17s-29 26.166 -37 44.499s-12.833 39 -14.5 62s-2.5 46.167 -2.5 69.5v435h183v-456c0 -6 0.333008 -12.167 1 -18.5s1.83398 -12.166 3.50098 -17.499
s4.33398 -9.66602 8.00098 -12.999s8.5 -5 14.5 -5s11 1.66699 15 5s7 7.66602 9 12.999s3.5 11.166 4.5 17.499s1.5 12.166 1.5 17.499v457h182v-617h-170l-12 50zM245.998 744.002l-141 -107l-67 58l141 160h138l136 -160l-67 -58z" />
    <glyph glyph-name="udieresis" unicode="&#xfc;" horiz-adv-x="490" 
d="M270 51c-26 -41.333 -63.335 -61.998 -112.002 -61.998c-30 0 -53.333 5.66699 -70 17s-29 26.166 -37 44.499s-12.833 39 -14.5 62s-2.5 46.167 -2.5 69.5v435h183v-456c0 -6 0.333008 -12.167 1 -18.5s1.83398 -12.166 3.50098 -17.499
s4.33398 -9.66602 8.00098 -12.999s8.5 -5 14.5 -5s11 1.66699 15 5s7 7.66602 9 12.999s3.5 11.166 4.5 17.499s1.5 12.166 1.5 17.499v457h182v-617h-170l-12 50zM271.998 676.002v139h136v-139h-136zM81.998 676.002v139h136v-139h-136z" />
    <glyph glyph-name="yacute" unicode="&#xfd;" horiz-adv-x="458" 
d="M359 75c-4 -23.333 -8.83398 -47.5 -14.501 -72.5s-15.167 -47.833 -28.5 -68.5s-31.666 -37.5 -54.999 -50.5s-54.333 -19.5 -93 -19.5h-108v127h26c25.333 0 38 11.333 38 34c0 6.66699 -1 14.667 -3 24l-116 568h178l26 -203l25 -217h5l19 217l19 203h172z
M142.999 709l132 184l126 -94l-174 -152z" />
    <glyph glyph-name="thorn" unicode="&#xfe;" horiz-adv-x="487" 
d="M222 578c29.333 33.333 64.3311 49.999 104.998 49.999c24.667 0 45.334 -4.16699 62.001 -12.5s30 -19.666 40 -33.999s17.167 -31 21.5 -50s6.5 -39.5 6.5 -61.5v-291c0 -24 -1.5 -47.333 -4.5 -70s-9.16699 -43 -18.5 -61s-22.666 -32.333 -39.999 -43
s-40.333 -16 -69 -16c-23.333 0 -42.5 4.16699 -57.5 12.5s-29.5 20.5 -43.5 36.5l-5 -3v-171h-183v908h183v-193zM273.998 458.999c0 10.667 -1.33398 21.665 -4.00098 32.998s-10 17 -22 17s-19.833 -5.5 -23.5 -16.5s-5.5 -22.167 -5.5 -33.5v-295
c0 -6 0.333008 -12.167 1 -18.5s2 -12.166 4 -17.499s4.83301 -9.66602 8.5 -12.999s8.83398 -5 15.501 -5s11.667 1.83301 15 5.5s5.83301 8.16699 7.5 13.5s2.66699 11.333 3 18s0.5 13 0.5 19v293z" />
    <glyph glyph-name="ydieresis" unicode="&#xff;" horiz-adv-x="458" 
d="M359 75c-4 -23.333 -8.83398 -47.5 -14.501 -72.5s-15.167 -47.833 -28.5 -68.5s-31.666 -37.5 -54.999 -50.5s-54.333 -19.5 -93 -19.5h-108v127h26c25.333 0 38 11.333 38 34c0 6.66699 -1 14.667 -3 24l-116 568h178l26 -203l25 -217h5l19 217l19 203h172z
M261.999 675v139h136v-139h-136zM71.999 675v139h136v-139h-136z" />
    <glyph glyph-name="Amacron" unicode="&#x100;" horiz-adv-x="511" 
d="M308 0l-10 135h-78l-11 -135h-193l100 752h278l104 -752h-190zM255 614l-10 -150l-14 -195h55l-14 196l-10 149h-7zM109 802v110h291v-110h-291z" />
    <glyph glyph-name="amacron" unicode="&#x101;" horiz-adv-x="484" 
d="M261 47c-12 -17.333 -26.3359 -31.3389 -43.0029 -42.0059s-36.334 -16 -59.001 -16c-40 0 -71.5 10.333 -94.5 31s-34.5 50.334 -34.5 89.001v92c0 22.667 2.33301 41.834 7 57.501s12 29.334 22 41.001s23 22.167 39 31.5s35.667 19.333 59 30l77 35
c10 4.66699 17 11.334 21 20.001s6 17 6 25v33c0 15.333 -2.16699 26.5 -6.5 33.5s-12.166 10.5 -23.499 10.5c-12 0 -19.833 -4.16699 -23.5 -12.5s-5.5 -18.166 -5.5 -29.499v-70h-172v27c0 66.667 18.167 115.834 54.5 147.501s87.833 47.5 154.5 47.5
c44.667 0 80.334 -5.33301 107.001 -16s47.334 -25.667 62.001 -45s24.334 -42.333 29.001 -69s7 -55.667 7 -87v-411h-166l-10 47h-7zM259.997 280.994c-18.667 -8.66699 -33.002 -18.667 -43.002 -30s-15 -24.333 -15 -39v-59c0 -12.667 1.33301 -25 4 -37
s11.667 -18 27 -18c6.66699 0 11.834 1.83301 15.501 5.5s6.33398 8.5 8.00098 14.5s2.66699 12.333 3 19s0.5 13 0.5 19v125zM99.9951 671.994v110h291v-110h-291z" />
    <glyph glyph-name="Abreve" unicode="&#x102;" horiz-adv-x="511" 
d="M308 0l-10 135h-78l-11 -135h-193l100 752h278l104 -752h-190zM255 614l-10 -150l-14 -195h55l-14 196l-10 149h-7zM257 779c-30 0 -56.6689 6 -80.002 18s-43.166 27.167 -59.499 45.5s-28.666 38.166 -36.999 59.499s-12.5 41.666 -12.5 60.999h113
c0 -8 1.66699 -16.333 5 -25s8.16602 -16.834 14.499 -24.501s14.333 -13.834 24 -18.501s20.5 -7 32.5 -7s22.833 2.33301 32.5 7s17.667 10.834 24 18.501s11.166 15.834 14.499 24.501s5 17 5 25h113c0 -19.333 -4.16699 -39.666 -12.5 -60.999
s-20.666 -41.166 -36.999 -59.499s-36.166 -33.5 -59.499 -45.5s-50 -18 -80 -18z" />
    <glyph glyph-name="abreve" unicode="&#x103;" horiz-adv-x="484" 
d="M261 47c-12 -17.333 -26.3359 -31.3389 -43.0029 -42.0059s-36.334 -16 -59.001 -16c-40 0 -71.5 10.333 -94.5 31s-34.5 50.334 -34.5 89.001v92c0 22.667 2.33301 41.834 7 57.501s12 29.334 22 41.001s23 22.167 39 31.5s35.667 19.333 59 30l77 35
c10 4.66699 17 11.334 21 20.001s6 17 6 25v33c0 15.333 -2.16699 26.5 -6.5 33.5s-12.166 10.5 -23.499 10.5c-12 0 -19.833 -4.16699 -23.5 -12.5s-5.5 -18.166 -5.5 -29.499v-70h-172v27c0 66.667 18.167 115.834 54.5 147.501s87.833 47.5 154.5 47.5
c44.667 0 80.334 -5.33301 107.001 -16s47.334 -25.667 62.001 -45s24.334 -42.333 29.001 -69s7 -55.667 7 -87v-411h-166l-10 47h-7zM259.997 280.994c-18.667 -8.66699 -33.002 -18.667 -43.002 -30s-15 -24.333 -15 -39v-59c0 -12.667 1.33301 -25 4 -37
s11.667 -18 27 -18c6.66699 0 11.834 1.83301 15.501 5.5s6.33398 8.5 8.00098 14.5s2.66699 12.333 3 19s0.5 13 0.5 19v125zM244.995 652.994c-30 0 -56.6689 6 -80.002 18s-43.166 27.167 -59.499 45.5s-28.666 38.166 -36.999 59.499s-12.5 41.666 -12.5 60.999h113
c0 -8 1.66699 -16.333 5 -25s8.16602 -16.834 14.499 -24.501s14.333 -13.834 24 -18.501s20.5 -7 32.5 -7s22.833 2.33301 32.5 7s17.667 10.834 24 18.501s11.166 15.834 14.499 24.501s5 17 5 25h113c0 -19.333 -4.16699 -39.666 -12.5 -60.999
s-20.666 -41.166 -36.999 -59.499s-36.166 -33.5 -59.499 -45.5s-50 -18 -80 -18z" />
    <glyph glyph-name="Aogonek" unicode="&#x104;" horiz-adv-x="511" 
d="M413 0c-19.333 -18 -32.665 -33.5 -39.998 -46.5s-11 -25.833 -11 -38.5c0 -5.33301 2 -9.66602 6 -12.999s8.66699 -5 14 -5s11.5 1.16699 18.5 3.5s17.167 7.16602 30.5 14.499l27 -75c-12.667 -11.333 -27.834 -20.166 -45.501 -26.499s-34.167 -9.5 -49.5 -9.5
c-14 0 -27.167 2 -39.5 6s-23.333 10 -33 18s-17.334 17.667 -23.001 29s-8.5 24.666 -8.5 39.999c0 21.333 4.83301 40.5 14.5 57.5s21.167 32.5 34.5 46.5l-10 134h-78l-11 -135h-193l100 752h278l104 -752h-85zM255.001 614l-10 -150l-14 -195h55l-14 196l-10 149h-7z
" />
    <glyph glyph-name="aogonek" unicode="&#x105;" horiz-adv-x="484" 
d="M261 47c-12 -17.333 -26.335 -31.3379 -43.002 -42.0049s-36.334 -16 -59.001 -16c-40 0 -71.5 10.333 -94.5 31s-34.5 50.334 -34.5 89.001v92c0 22.667 2.33301 41.834 7 57.501s12 29.334 22 41.001s23 22.167 39 31.5s35.667 19.333 59 30l77 35
c10 4.66699 17 11.334 21 20.001s6 17 6 25v33c0 15.333 -2.16699 26.5 -6.5 33.5s-12.166 10.5 -23.499 10.5c-12 0 -19.833 -4.16699 -23.5 -12.5s-5.5 -18.166 -5.5 -29.499v-70h-172v27c0 66.667 18.167 115.834 54.5 147.501s87.833 47.5 154.5 47.5
c44.667 0 80.334 -5.33301 107.001 -16s47.334 -25.667 62.001 -45s24.334 -42.333 29.001 -69s7 -55.667 7 -87v-411h-62c-19.333 -18 -32.666 -33.5 -39.999 -46.5s-11 -25.833 -11 -38.5c0 -5.33301 2 -9.66602 6 -12.999s8.66699 -5 14 -5s11.5 1.16699 18.5 3.5
s17.167 7.16602 30.5 14.499l27 -75c-12.667 -11.333 -27.834 -20.166 -45.501 -26.499s-34.167 -9.5 -49.5 -9.5c-14 0 -27.167 2 -39.5 6s-23.333 10 -33 18s-17.334 17.667 -23.001 29s-8.5 24.666 -8.5 39.999c0 21.333 4.83301 40.666 14.5 57.999s21.167 33 34.5 47
l-9 45h-7zM259.998 280.995c-18.667 -8.66699 -33.002 -18.667 -43.002 -30s-15 -24.333 -15 -39v-59c0 -12.667 1.33301 -25 4 -37s11.667 -18 27 -18c6.66699 0 11.834 1.83301 15.501 5.5s6.33398 8.5 8.00098 14.5s2.66699 12.333 3 19s0.5 13 0.5 19v125z" />
    <glyph glyph-name="Cacute" unicode="&#x106;" horiz-adv-x="519" 
d="M487 313l0.00195312 -110.997c0 -43.333 -6.66699 -78.833 -20 -106.5s-30.833 -49.334 -52.5 -65.001s-46.334 -26.5 -74.001 -32.5s-55.5 -9 -83.5 -9c-42 0 -77.167 5.5 -105.5 16.5s-51 26.833 -68 47.5s-29.167 45.334 -36.5 74.001s-11 61 -11 97v321
c0 12.667 0.666992 27 2 43s4.66602 32 9.99902 48s12.666 31.667 21.999 47s22.333 28.833 39 40.5s37 21.167 61 28.5s53 11 87 11c35.333 0 67.166 -4 95.499 -12s52.5 -20.833 72.5 -38.5s35.333 -40.334 46 -68.001s16 -60.834 16 -99.501v-78h-191v113
c0 6 -0.333008 12.333 -1 19s-2.33398 12.667 -5.00098 18s-6.16699 9.83301 -10.5 13.5s-10.166 5.5 -17.499 5.5c-14.667 0 -24.167 -6.16699 -28.5 -18.5s-6.5 -24.5 -6.5 -36.5v-404c0 -6 0.333008 -12.5 1 -19.5s2.33398 -13.333 5.00098 -19
s6.33398 -10.334 11.001 -14.001s10.667 -5.5 18 -5.5c13.333 0 22.333 6.5 27 19.5s7 25.833 7 38.5v136h191zM181.002 858.003l171 135l84 -116l-198 -97z" />
    <glyph glyph-name="cacute" unicode="&#x107;" horiz-adv-x="464" 
d="M441 254v-45.0039c0 -71.333 -15.833 -125.666 -47.5 -162.999s-83.167 -56 -154.5 -56c-43.333 0 -78.5 5.83301 -105.5 17.5s-48.167 27.334 -63.5 47.001s-25.833 42.334 -31.5 68.001s-8.5 52.834 -8.5 81.501v204c0 146 69.667 219 209 219
c32 0 60.667 -3.66699 86 -11s46.5 -19.5 63.5 -36.5s30 -39.333 39 -67s13.5 -61.834 13.5 -102.501v-26h-173v80c0 11.333 -1.5 22.833 -4.5 34.5s-10.833 17.5 -23.5 17.5c-6.66699 0 -12 -1.66699 -16 -5s-7 -7.5 -9 -12.5s-3.16699 -10.667 -3.5 -17
s-0.5 -12.166 -0.5 -17.499v-316c0 -12 1.5 -23.167 4.5 -33.5s11.167 -15.5 24.5 -15.5c12.667 0 20.5 5.16699 23.5 15.5s4.5 21.5 4.5 33.5v106h173zM140 708.996l132 184l126 -94l-174 -152z" />
    <glyph glyph-name="Ccircumflex" unicode="&#x108;" horiz-adv-x="519" 
d="M487 313l0.00195312 -110.997c0 -43.333 -6.66699 -78.833 -20 -106.5s-30.833 -49.334 -52.5 -65.001s-46.334 -26.5 -74.001 -32.5s-55.5 -9 -83.5 -9c-42 0 -77.167 5.5 -105.5 16.5s-51 26.833 -68 47.5s-29.167 45.334 -36.5 74.001s-11 61 -11 97v321
c0 12.667 0.666992 27 2 43s4.66602 32 9.99902 48s12.666 31.667 21.999 47s22.333 28.833 39 40.5s37 21.167 61 28.5s53 11 87 11c35.333 0 67.166 -4 95.499 -12s52.5 -20.833 72.5 -38.5s35.333 -40.334 46 -68.001s16 -60.834 16 -99.501v-78h-191v113
c0 6 -0.333008 12.333 -1 19s-2.33398 12.667 -5.00098 18s-6.16699 9.83301 -10.5 13.5s-10.166 5.5 -17.499 5.5c-14.667 0 -24.167 -6.16699 -28.5 -18.5s-6.5 -24.5 -6.5 -36.5v-404c0 -6 0.333008 -12.5 1 -19.5s2.33398 -13.333 5.00098 -19
s6.33398 -10.334 11.001 -14.001s10.667 -5.5 18 -5.5c13.333 0 22.333 6.5 27 19.5s7 25.833 7 38.5v136h191zM263.002 855.003l-141 -77l-67 58l141 130h138l136 -130l-67 -58z" />
    <glyph glyph-name="ccircumflex" unicode="&#x109;" horiz-adv-x="464" 
d="M441 254v-45.0039c0 -71.333 -15.833 -125.666 -47.5 -162.999s-83.167 -56 -154.5 -56c-43.333 0 -78.5 5.83301 -105.5 17.5s-48.167 27.334 -63.5 47.001s-25.833 42.334 -31.5 68.001s-8.5 52.834 -8.5 81.501v204c0 146 69.667 219 209 219
c32 0 60.667 -3.66699 86 -11s46.5 -19.5 63.5 -36.5s30 -39.333 39 -67s13.5 -61.834 13.5 -102.501v-26h-173v80c0 11.333 -1.5 22.833 -4.5 34.5s-10.833 17.5 -23.5 17.5c-6.66699 0 -12 -1.66699 -16 -5s-7 -7.5 -9 -12.5s-3.16699 -10.667 -3.5 -17
s-0.5 -12.166 -0.5 -17.499v-316c0 -12 1.5 -23.167 4.5 -33.5s11.167 -15.5 24.5 -15.5c12.667 0 20.5 5.16699 23.5 15.5s4.5 21.5 4.5 33.5v106h173zM239 743.996l-141 -107l-67 58l141 160h138l136 -160l-67 -58z" />
    <glyph glyph-name="Cdotaccent" unicode="&#x10a;" horiz-adv-x="519" 
d="M487 313l0.00195312 -110.997c0 -43.333 -6.66699 -78.833 -20 -106.5s-30.833 -49.334 -52.5 -65.001s-46.334 -26.5 -74.001 -32.5s-55.5 -9 -83.5 -9c-42 0 -77.167 5.5 -105.5 16.5s-51 26.833 -68 47.5s-29.167 45.334 -36.5 74.001s-11 61 -11 97v321
c0 12.667 0.666992 27 2 43s4.66602 32 9.99902 48s12.666 31.667 21.999 47s22.333 28.833 39 40.5s37 21.167 61 28.5s53 11 87 11c35.333 0 67.166 -4 95.499 -12s52.5 -20.833 72.5 -38.5s35.333 -40.334 46 -68.001s16 -60.834 16 -99.501v-78h-191v113
c0 6 -0.333008 12.333 -1 19s-2.33398 12.667 -5.00098 18s-6.16699 9.83301 -10.5 13.5s-10.166 5.5 -17.499 5.5c-14.667 0 -24.167 -6.16699 -28.5 -18.5s-6.5 -24.5 -6.5 -36.5v-404c0 -6 0.333008 -12.5 1 -19.5s2.33398 -13.333 5.00098 -19
s6.33398 -10.334 11.001 -14.001s10.667 -5.5 18 -5.5c13.333 0 22.333 6.5 27 19.5s7 25.833 7 38.5v136h191zM195.002 786.003v139h136v-139h-136z" />
    <glyph glyph-name="cdotaccent" unicode="&#x10b;" horiz-adv-x="464" 
d="M441 254v-45.0039c0 -71.333 -15.833 -125.666 -47.5 -162.999s-83.167 -56 -154.5 -56c-43.333 0 -78.5 5.83301 -105.5 17.5s-48.167 27.334 -63.5 47.001s-25.833 42.334 -31.5 68.001s-8.5 52.834 -8.5 81.501v204c0 146 69.667 219 209 219
c32 0 60.667 -3.66699 86 -11s46.5 -19.5 63.5 -36.5s30 -39.333 39 -67s13.5 -61.834 13.5 -102.501v-26h-173v80c0 11.333 -1.5 22.833 -4.5 34.5s-10.833 17.5 -23.5 17.5c-6.66699 0 -12 -1.66699 -16 -5s-7 -7.5 -9 -12.5s-3.16699 -10.667 -3.5 -17
s-0.5 -12.166 -0.5 -17.499v-316c0 -12 1.5 -23.167 4.5 -33.5s11.167 -15.5 24.5 -15.5c12.667 0 20.5 5.16699 23.5 15.5s4.5 21.5 4.5 33.5v106h173zM174 665.996v139h136v-139h-136z" />
    <glyph glyph-name="Ccaron" unicode="&#x10c;" horiz-adv-x="519" 
d="M487 313l0.00195312 -110.997c0 -43.333 -6.66699 -78.833 -20 -106.5s-30.833 -49.334 -52.5 -65.001s-46.334 -26.5 -74.001 -32.5s-55.5 -9 -83.5 -9c-42 0 -77.167 5.5 -105.5 16.5s-51 26.833 -68 47.5s-29.167 45.334 -36.5 74.001s-11 61 -11 97v321
c0 12.667 0.666992 27 2 43s4.66602 32 9.99902 48s12.666 31.667 21.999 47s22.333 28.833 39 40.5s37 21.167 61 28.5s53 11 87 11c35.333 0 67.166 -4 95.499 -12s52.5 -20.833 72.5 -38.5s35.333 -40.334 46 -68.001s16 -60.834 16 -99.501v-78h-191v113
c0 6 -0.333008 12.333 -1 19s-2.33398 12.667 -5.00098 18s-6.16699 9.83301 -10.5 13.5s-10.166 5.5 -17.499 5.5c-14.667 0 -24.167 -6.16699 -28.5 -18.5s-6.5 -24.5 -6.5 -36.5v-404c0 -6 0.333008 -12.5 1 -19.5s2.33398 -13.333 5.00098 -19
s6.33398 -10.334 11.001 -14.001s10.667 -5.5 18 -5.5c13.333 0 22.333 6.5 27 19.5s7 25.833 7 38.5v136h191zM401.002 976.003l67 -58l-136 -130h-138l-141 130l67 58l141 -77z" />
    <glyph glyph-name="ccaron" unicode="&#x10d;" horiz-adv-x="464" 
d="M441 254v-45.0039c0 -71.333 -15.833 -125.666 -47.5 -162.999s-83.167 -56 -154.5 -56c-43.333 0 -78.5 5.83301 -105.5 17.5s-48.167 27.334 -63.5 47.001s-25.833 42.334 -31.5 68.001s-8.5 52.834 -8.5 81.501v204c0 146 69.667 219 209 219
c32 0 60.667 -3.66699 86 -11s46.5 -19.5 63.5 -36.5s30 -39.333 39 -67s13.5 -61.834 13.5 -102.501v-26h-173v80c0 11.333 -1.5 22.833 -4.5 34.5s-10.833 17.5 -23.5 17.5c-6.66699 0 -12 -1.66699 -16 -5s-7 -7.5 -9 -12.5s-3.16699 -10.667 -3.5 -17
s-0.5 -12.166 -0.5 -17.499v-316c0 -12 1.5 -23.167 4.5 -33.5s11.167 -15.5 24.5 -15.5c12.667 0 20.5 5.16699 23.5 15.5s4.5 21.5 4.5 33.5v106h173zM378 864.996l67 -58l-136 -160h-138l-141 160l67 58l141 -107z" />
    <glyph glyph-name="Dcaron" unicode="&#x10e;" horiz-adv-x="518" 
d="M483 224c0 -36 -2.66797 -68 -8.00098 -96s-15.666 -51.5 -30.999 -70.5s-36.833 -33.333 -64.5 -43s-63.5 -14.5 -107.5 -14.5h-231v752h206c51.333 0 92.5 -5.16699 123.5 -15.5s54.833 -25.833 71.5 -46.5s27.667 -46.167 33 -76.5s8 -65.5 8 -105.5v-284z
M291.999 533c0 14.667 -0.333008 27.333 -1 38s-3 19.667 -7 27s-10 12.833 -18 16.5s-19.333 5.5 -34 5.5v-487c14.667 0 26 3.33301 34 10s14 15.167 18 25.5s6.33301 21.5 7 33.5s1 23.333 1 34v297zM385.999 965.999l67 -58l-136 -130h-138l-141 130l67 58l141 -77z" />
    <glyph glyph-name="dcaron" unicode="&#x10f;" horiz-adv-x="632" 
d="M566 500h-77l37 121h-34v151h147v-150zM268 43c-14.667 -16.667 -30.166 -29.832 -46.499 -39.499s-36.5 -14.5 -60.5 -14.5c-25.333 0 -46.333 4.16699 -63 12.5s-30 19.666 -40 33.999s-17 31 -21 50s-6 39.5 -6 61.5v291c0 24 1.5 47.333 4.5 70s9.16699 43 18.5 61
s22.666 32.333 39.999 43s40.333 16 69 16c23.333 0 42.5 -4.16699 57.5 -12.5s29.5 -20.5 43.5 -36.5l5 3v190h183v-772h-170l-10 40zM214.001 158.002c0 -10.667 1.33398 -21.665 4.00098 -32.998s10 -17 22 -17s19.833 5.5 23.5 16.5s5.5 22.167 5.5 33.5v295
c0 6 -0.333008 12.167 -1 18.5s-2 12.166 -4 17.499s-4.83301 9.66602 -8.5 12.999s-8.83398 5 -15.501 5s-11.667 -1.83301 -15 -5.5s-5.83301 -8.16699 -7.5 -13.5s-2.66699 -11.333 -3 -18s-0.5 -13 -0.5 -19v-293z" />
    <glyph glyph-name="Dcroat" unicode="&#x110;" horiz-adv-x="518" 
d="M6 444h34.999v308h206c51.333 0 92.5 -5.16699 123.5 -15.5s54.833 -25.833 71.5 -46.5s27.667 -46.167 33 -76.5s8 -65.5 8 -105.5v-284c0 -36 -2.66699 -68 -8 -96s-15.666 -51.5 -30.999 -70.5s-36.833 -33.333 -64.5 -43s-63.5 -14.5 -107.5 -14.5h-231v331h-35v113z
M291.999 533c0 14.667 -0.333008 27.333 -1 38s-3 19.667 -7 27s-10 12.833 -18 16.5s-19.333 5.5 -34 5.5v-176h33v-113h-33v-198c14.667 0 26 3.33301 34 10s14 15.167 18 25.5s6.33301 21.5 7 33.5s1 23.333 1 34v297z" />
    <glyph glyph-name="dcroat" unicode="&#x111;" horiz-adv-x="487" 
d="M191 717l78.001 0.00195312v55h183v-55h34v-88h-34v-629h-170l-10 40l-4 3c-14.667 -16.667 -30.167 -29.834 -46.5 -39.501s-36.5 -14.5 -60.5 -14.5c-25.333 0 -46.333 4.16699 -63 12.5s-30 19.666 -40 33.999s-17 31 -21 50s-6 39.5 -6 61.5v241
c0 24 1.5 47.333 4.5 70s9.16699 43 18.5 61s22.666 32.333 39.999 43s40.333 16 69 16c23.333 0 42.5 -4.16699 57.5 -12.5s29.5 -20.5 43.5 -36.5l5 3v97h-78v88zM214.001 158.002c0 -10.667 1.33398 -21.665 4.00098 -32.998s10 -17 22 -17s19.833 5.5 23.5 16.5
s5.5 22.167 5.5 33.5v245c0 6 -0.333008 12.167 -1 18.5s-2 12.166 -4 17.499s-4.83301 9.66602 -8.5 12.999s-8.83398 5 -15.501 5s-11.667 -1.83301 -15 -5.5s-5.83301 -8.16699 -7.5 -13.5s-2.66699 -11.333 -3 -18s-0.5 -13 -0.5 -19v-243z" />
    <glyph glyph-name="Emacron" unicode="&#x112;" horiz-adv-x="391" 
d="M41 0v752h318v-140h-128v-146h120v-141h-120v-184h141v-141h-331zM49 802v110h291v-110h-291z" />
    <glyph glyph-name="emacron" unicode="&#x113;" horiz-adv-x="480" 
d="M268 409v54.999c0 11.333 -1.5 22.833 -4.5 34.5s-10.833 17.5 -23.5 17.5c-6.66699 0 -12 -1.66699 -16 -5s-7 -7.5 -9 -12.5s-3.16699 -10.667 -3.5 -17s-0.5 -12.166 -0.5 -17.499v-55h57zM211 300.999l-0.00292969 -153.003c0 -12 1.5 -23.167 4.5 -33.5
s11.167 -15.5 24.5 -15.5c12.667 0 20.5 5.16699 23.5 15.5s4.5 21.5 4.5 33.5v109h181v-48c0 -71.333 -17.667 -125.666 -53 -162.999s-87.666 -56 -156.999 -56c-43.333 0 -78.5 5.83301 -105.5 17.5s-48.167 27.334 -63.5 47.001s-25.833 42.334 -31.5 68.001
s-8.5 52.834 -8.5 81.501v204c0 146 69.667 219 209 219c30 0 57.833 -3.66699 83.5 -11s47.834 -19.5 66.501 -36.5s33.334 -39.333 44.001 -67s16 -61.834 16 -102.501v-109h-238zM90.9971 671.996v110h291v-110h-291z" />
    <glyph glyph-name="Ebreve" unicode="&#x114;" horiz-adv-x="391" 
d="M41 0v752h318v-140h-128v-146h120v-141h-120v-184h141v-141h-331zM195 779c-30 0 -56.6689 6 -80.002 18s-43.166 27.167 -59.499 45.5s-28.666 38.166 -36.999 59.499s-12.5 41.666 -12.5 60.999h113c0 -8 1.66699 -16.333 5 -25s8.16602 -16.834 14.499 -24.501
s14.333 -13.834 24 -18.501s20.5 -7 32.5 -7s22.833 2.33301 32.5 7s17.667 10.834 24 18.501s11.166 15.834 14.499 24.501s5 17 5 25h113c0 -19.333 -4.16699 -39.666 -12.5 -60.999s-20.666 -41.166 -36.999 -59.499s-36.166 -33.5 -59.499 -45.5s-50 -18 -80 -18z" />
    <glyph glyph-name="ebreve" unicode="&#x115;" horiz-adv-x="480" 
d="M268 409v54.999c0 11.333 -1.5 22.833 -4.5 34.5s-10.833 17.5 -23.5 17.5c-6.66699 0 -12 -1.66699 -16 -5s-7 -7.5 -9 -12.5s-3.16699 -10.667 -3.5 -17s-0.5 -12.166 -0.5 -17.499v-55h57zM211 300.999l-0.00292969 -153.003c0 -12 1.5 -23.167 4.5 -33.5
s11.167 -15.5 24.5 -15.5c12.667 0 20.5 5.16699 23.5 15.5s4.5 21.5 4.5 33.5v109h181v-48c0 -71.333 -17.667 -125.666 -53 -162.999s-87.666 -56 -156.999 -56c-43.333 0 -78.5 5.83301 -105.5 17.5s-48.167 27.334 -63.5 47.001s-25.833 42.334 -31.5 68.001
s-8.5 52.834 -8.5 81.501v204c0 146 69.667 219 209 219c30 0 57.833 -3.66699 83.5 -11s47.834 -19.5 66.501 -36.5s33.334 -39.333 44.001 -67s16 -61.834 16 -102.501v-109h-238zM239.997 652.996c-30 0 -56.6689 6 -80.002 18s-43.166 27.167 -59.499 45.5
s-28.666 38.166 -36.999 59.499s-12.5 41.666 -12.5 60.999h113c0 -8 1.66699 -16.333 5 -25s8.16602 -16.834 14.499 -24.501s14.333 -13.834 24 -18.501s20.5 -7 32.5 -7s22.833 2.33301 32.5 7s17.667 10.834 24 18.501s11.166 15.834 14.499 24.501s5 17 5 25h113
c0 -19.333 -4.16699 -39.666 -12.5 -60.999s-20.666 -41.166 -36.999 -59.499s-36.166 -33.5 -59.499 -45.5s-50 -18 -80 -18z" />
    <glyph glyph-name="Edotaccent" unicode="&#x116;" horiz-adv-x="391" 
d="M41 0v752h318v-140h-128v-146h120v-141h-120v-184h141v-141h-331zM131 786v139h136v-139h-136z" />
    <glyph glyph-name="edotaccent" unicode="&#x117;" horiz-adv-x="480" 
d="M268 409v54.999c0 11.333 -1.5 22.833 -4.5 34.5s-10.833 17.5 -23.5 17.5c-6.66699 0 -12 -1.66699 -16 -5s-7 -7.5 -9 -12.5s-3.16699 -10.667 -3.5 -17s-0.5 -12.166 -0.5 -17.499v-55h57zM211 300.999l-0.00292969 -153.003c0 -12 1.5 -23.167 4.5 -33.5
s11.167 -15.5 24.5 -15.5c12.667 0 20.5 5.16699 23.5 15.5s4.5 21.5 4.5 33.5v109h181v-48c0 -71.333 -17.667 -125.666 -53 -162.999s-87.666 -56 -156.999 -56c-43.333 0 -78.5 5.83301 -105.5 17.5s-48.167 27.334 -63.5 47.001s-25.833 42.334 -31.5 68.001
s-8.5 52.834 -8.5 81.501v204c0 146 69.667 219 209 219c30 0 57.833 -3.66699 83.5 -11s47.834 -19.5 66.501 -36.5s33.334 -39.333 44.001 -67s16 -61.834 16 -102.501v-109h-238zM174.997 665.996v139h136v-139h-136z" />
    <glyph glyph-name="Eogonek" unicode="&#x118;" horiz-adv-x="391" 
d="M372 0c-20 -18.667 -33.6641 -34.5 -40.9971 -47.5s-11 -25.833 -11 -38.5c0 -5.33301 2 -9.66602 6 -12.999s8.66699 -5 14 -5s11.5 1.16699 18.5 3.5s17.167 7.16602 30.5 14.499l27 -75c-12.667 -11.333 -27.834 -20.166 -45.501 -26.499s-34.167 -9.5 -49.5 -9.5
c-14 0 -27.167 2 -39.5 6s-23.333 10 -33 18s-17.334 17.667 -23.001 29s-8.5 24.666 -8.5 39.999c0 21.333 4.66699 40.5 14 57.5s20.666 32.5 33.999 46.5h-224v752h318v-140h-128v-146h120v-141h-120v-184h141v-141v0z" />
    <glyph glyph-name="eogonek" unicode="&#x119;" horiz-adv-x="480" 
d="M211 301l0.000976562 -152.999c0 -12 1.5 -23.167 4.5 -33.5s11.167 -15.5 24.5 -15.5c12.667 0 20.5 5.16699 23.5 15.5s4.5 21.5 4.5 33.5v109h181v-48c0 -63.333 -14 -113.333 -42 -150s-69.333 -58.667 -124 -66c-14.667 -14.667 -24.667 -27.667 -30 -39
s-8 -22.666 -8 -33.999c0 -5.33301 2 -9.66602 6 -12.999s8.66699 -5 14 -5s11.5 1.16699 18.5 3.5s17.167 7.16602 30.5 14.499l27 -75c-12.667 -11.333 -27.834 -20.166 -45.501 -26.499s-34.167 -9.5 -49.5 -9.5c-14 0 -27.167 2 -39.5 6s-23.333 10 -33 18
s-17.334 17.667 -23.001 29s-8.5 24.666 -8.5 39.999c0 18.667 3.66699 35.5 11 50.5s16.333 29.167 27 42.5c-30.667 4.66699 -55.834 13.667 -75.501 27s-35 29.166 -46 47.499s-18.5 39 -22.5 62s-6 47.167 -6 72.5v204c0 146 69.667 219 209 219
c30 0 57.833 -3.66699 83.5 -11s47.834 -19.5 66.501 -36.5s33.334 -39.333 44.001 -67s16 -61.834 16 -102.501v-109h-238zM268.001 409.001v54.999c0 11.333 -1.5 22.833 -4.5 34.5s-10.833 17.5 -23.5 17.5c-6.66699 0 -12 -1.66699 -16 -5s-7 -7.5 -9 -12.5
s-3.16699 -10.667 -3.5 -17s-0.5 -12.166 -0.5 -17.499v-55h57z" />
    <glyph glyph-name="Ecaron" unicode="&#x11a;" horiz-adv-x="391" 
d="M41 0v752h318v-140h-128v-146h120v-141h-120v-184h141v-141h-331zM341 966l67 -58l-136 -130h-138l-141 130l67 58l141 -77z" />
    <glyph glyph-name="ecaron" unicode="&#x11b;" horiz-adv-x="480" 
d="M268 409v54.999c0 11.333 -1.5 22.833 -4.5 34.5s-10.833 17.5 -23.5 17.5c-6.66699 0 -12 -1.66699 -16 -5s-7 -7.5 -9 -12.5s-3.16699 -10.667 -3.5 -17s-0.5 -12.166 -0.5 -17.499v-55h57zM211 300.999l-0.00292969 -153.003c0 -12 1.5 -23.167 4.5 -33.5
s11.167 -15.5 24.5 -15.5c12.667 0 20.5 5.16699 23.5 15.5s4.5 21.5 4.5 33.5v109h181v-48c0 -71.333 -17.667 -125.666 -53 -162.999s-87.666 -56 -156.999 -56c-43.333 0 -78.5 5.83301 -105.5 17.5s-48.167 27.334 -63.5 47.001s-25.833 42.334 -31.5 68.001
s-8.5 52.834 -8.5 81.501v204c0 146 69.667 219 209 219c30 0 57.833 -3.66699 83.5 -11s47.834 -19.5 66.501 -36.5s33.334 -39.333 44.001 -67s16 -61.834 16 -102.501v-109h-238zM380.997 874.996l67 -58l-136 -160h-138l-141 160l67 58l141 -107z" />
    <glyph glyph-name="Gcircumflex" unicode="&#x11c;" horiz-adv-x="517" 
d="M347 54c-13.333 -22 -30.5 -38.165 -51.5 -48.498s-43.167 -15.5 -66.5 -15.5c-38 0 -69.333 4.83301 -94 14.5s-44.334 23.667 -59.001 42s-25 41.166 -31 68.499s-9 59 -9 95v335c0 19.333 2.16699 41.5 6.5 66.5s14.166 48.833 29.499 71.5s37.833 41.667 67.5 57
s70.167 23 121.5 23c70.667 0 126 -16.833 166 -50.5s60 -89.5 60 -167.5v-78h-191v113c0 6 -0.333008 12.333 -1 19s-2.33398 12.667 -5.00098 18s-6.16699 9.83301 -10.5 13.5s-10.166 5.5 -17.499 5.5c-14.667 0 -24.167 -6.16699 -28.5 -18.5s-6.5 -24.5 -6.5 -36.5
v-404c0 -6 0.333008 -12.5 1 -19.5s2.33398 -13.333 5.00098 -19s6.33398 -10.334 11.001 -14.001s10.667 -5.5 18 -5.5c14.667 0 24 5.5 28 16.5s6 23.5 6 37.5v116h-33v115h224v-404h-116l-21 54h-3zM263 855.002l-141 -77l-67 58l141 130h138l136 -130l-67 -58z" />
    <glyph glyph-name="gcircumflex" unicode="&#x11d;" horiz-adv-x="544" 
d="M97 114c-26.667 11.333 -45.835 23.166 -57.502 35.499s-17.5 31.166 -17.5 56.499c0 20 7.5 39.333 22.5 58s37.5 33.334 67.5 44.001c-21.333 14 -37.333 31.333 -48 52s-16 46 -16 76c0 60.667 19.5 107.834 58.5 141.501s92.167 50.5 159.5 50.5
c78.667 0 136.667 -17 174 -51c12.667 14 29.334 27 50.001 39s42 19.667 64 23v-109c-31.333 0 -57 -4 -77 -12c3.33301 -9.33301 5.5 -20 6.5 -32s1.5 -26 1.5 -42c0 -22.667 -4.5 -44.334 -13.5 -65.001s-22.5 -39 -40.5 -55s-40.667 -28.667 -68 -38
s-59.666 -14 -96.999 -14c-8 0 -15.167 0.166992 -21.5 0.5s-13.166 0.833008 -20.499 1.5l-21.5 -12.5c-5 -3 -7.5 -6.83301 -7.5 -11.5c0 -9.33301 7.33301 -15 22 -17s31.334 -3 50.001 -3c82.667 0 145.834 -14 189.501 -42s65.5 -76 65.5 -144
c0 -26.667 -5.66699 -51.667 -17 -75s-28 -43.833 -50 -61.5s-49.333 -31.5 -82 -41.5s-70.334 -15 -113.001 -15c-48 0 -87.333 4.5 -118 13.5s-54.834 20.833 -72.501 35.5s-30 31.334 -37 50.001s-10.5 37.667 -10.5 57c0 24 7.16699 45 21.5 63s32.166 31.667 53.499 41
v3zM298.999 474c0 14 -2.5 24.833 -7.5 32.5s-13.5 11.5 -25.5 11.5c-20 0 -30 -14.667 -30 -44v-54c0 -13.333 2 -23.5 6 -30.5s12 -10.5 24 -10.5s20.5 3.33301 25.5 10s7.5 17 7.5 31v54zM231.999 102c-9.33301 -4.66699 -17.832 -11.667 -25.499 -21
s-11.5 -23 -11.5 -41c0 -7.33301 0.833008 -14.666 2.5 -21.999s5 -13.833 10 -19.5s12 -10.334 21 -14.001s21.167 -5.5 36.5 -5.5c25.333 0 43.666 6.5 54.999 19.5s17 26.167 17 39.5c0 19.333 -4.33301 33.5 -13 42.5s-23.667 15.167 -45 18.5c-13.333 2 -29 3 -47 3z
M268 744l-141 -107l-67 58l141 160h138l136 -160l-67 -58z" />
    <glyph glyph-name="Gbreve" unicode="&#x11e;" horiz-adv-x="517" 
d="M347 54c-13.333 -22 -30.5 -38.165 -51.5 -48.498s-43.167 -15.5 -66.5 -15.5c-38 0 -69.333 4.83301 -94 14.5s-44.334 23.667 -59.001 42s-25 41.166 -31 68.499s-9 59 -9 95v335c0 19.333 2.16699 41.5 6.5 66.5s14.166 48.833 29.499 71.5s37.833 41.667 67.5 57
s70.167 23 121.5 23c70.667 0 126 -16.833 166 -50.5s60 -89.5 60 -167.5v-78h-191v113c0 6 -0.333008 12.333 -1 19s-2.33398 12.667 -5.00098 18s-6.16699 9.83301 -10.5 13.5s-10.166 5.5 -17.499 5.5c-14.667 0 -24.167 -6.16699 -28.5 -18.5s-6.5 -24.5 -6.5 -36.5
v-404c0 -6 0.333008 -12.5 1 -19.5s2.33398 -13.333 5.00098 -19s6.33398 -10.334 11.001 -14.001s10.667 -5.5 18 -5.5c14.667 0 24 5.5 28 16.5s6 23.5 6 37.5v116h-33v115h224v-404h-116l-21 54h-3zM263 789.002c-30 0 -56.6689 6 -80.002 18
s-43.166 27.167 -59.499 45.5s-28.666 38.166 -36.999 59.499s-12.5 41.666 -12.5 60.999h113c0 -8 1.66699 -16.333 5 -25s8.16602 -16.834 14.499 -24.501s14.333 -13.834 24 -18.501s20.5 -7 32.5 -7s22.833 2.33301 32.5 7s17.667 10.834 24 18.501
s11.166 15.834 14.499 24.501s5 17 5 25h113c0 -19.333 -4.16699 -39.666 -12.5 -60.999s-20.666 -41.166 -36.999 -59.499s-36.166 -33.5 -59.499 -45.5s-50 -18 -80 -18z" />
    <glyph glyph-name="gbreve" unicode="&#x11f;" horiz-adv-x="544" 
d="M97 114c-26.667 11.333 -45.835 23.166 -57.502 35.499s-17.5 31.166 -17.5 56.499c0 20 7.5 39.333 22.5 58s37.5 33.334 67.5 44.001c-21.333 14 -37.333 31.333 -48 52s-16 46 -16 76c0 60.667 19.5 107.834 58.5 141.501s92.167 50.5 159.5 50.5
c78.667 0 136.667 -17 174 -51c12.667 14 29.334 27 50.001 39s42 19.667 64 23v-109c-31.333 0 -57 -4 -77 -12c3.33301 -9.33301 5.5 -20 6.5 -32s1.5 -26 1.5 -42c0 -22.667 -4.5 -44.334 -13.5 -65.001s-22.5 -39 -40.5 -55s-40.667 -28.667 -68 -38
s-59.666 -14 -96.999 -14c-8 0 -15.167 0.166992 -21.5 0.5s-13.166 0.833008 -20.499 1.5l-21.5 -12.5c-5 -3 -7.5 -6.83301 -7.5 -11.5c0 -9.33301 7.33301 -15 22 -17s31.334 -3 50.001 -3c82.667 0 145.834 -14 189.501 -42s65.5 -76 65.5 -144
c0 -26.667 -5.66699 -51.667 -17 -75s-28 -43.833 -50 -61.5s-49.333 -31.5 -82 -41.5s-70.334 -15 -113.001 -15c-48 0 -87.333 4.5 -118 13.5s-54.834 20.833 -72.501 35.5s-30 31.334 -37 50.001s-10.5 37.667 -10.5 57c0 24 7.16699 45 21.5 63s32.166 31.667 53.499 41
v3zM298.999 474c0 14 -2.5 24.833 -7.5 32.5s-13.5 11.5 -25.5 11.5c-20 0 -30 -14.667 -30 -44v-54c0 -13.333 2 -23.5 6 -30.5s12 -10.5 24 -10.5s20.5 3.33301 25.5 10s7.5 17 7.5 31v54zM231.999 102c-9.33301 -4.66699 -17.832 -11.667 -25.499 -21
s-11.5 -23 -11.5 -41c0 -7.33301 0.833008 -14.666 2.5 -21.999s5 -13.833 10 -19.5s12 -10.334 21 -14.001s21.167 -5.5 36.5 -5.5c25.333 0 43.666 6.5 54.999 19.5s17 26.167 17 39.5c0 19.333 -4.33301 33.5 -13 42.5s-23.667 15.167 -45 18.5c-13.333 2 -29 3 -47 3z
M268 663c-30 0 -56.6689 6 -80.002 18s-43.166 27.167 -59.499 45.5s-28.666 38.166 -36.999 59.499s-12.5 41.666 -12.5 60.999h113c0 -8 1.66699 -16.333 5 -25s8.16602 -16.834 14.499 -24.501s14.333 -13.834 24 -18.501s20.5 -7 32.5 -7s22.833 2.33301 32.5 7
s17.667 10.834 24 18.501s11.166 15.834 14.499 24.501s5 17 5 25h113c0 -19.333 -4.16699 -39.666 -12.5 -60.999s-20.666 -41.166 -36.999 -59.499s-36.166 -33.5 -59.499 -45.5s-50 -18 -80 -18z" />
    <glyph glyph-name="Gdotaccent" unicode="&#x120;" horiz-adv-x="517" 
d="M347 54c-13.333 -22 -30.5 -38.165 -51.5 -48.498s-43.167 -15.5 -66.5 -15.5c-38 0 -69.333 4.83301 -94 14.5s-44.334 23.667 -59.001 42s-25 41.166 -31 68.499s-9 59 -9 95v335c0 19.333 2.16699 41.5 6.5 66.5s14.166 48.833 29.499 71.5s37.833 41.667 67.5 57
s70.167 23 121.5 23c70.667 0 126 -16.833 166 -50.5s60 -89.5 60 -167.5v-78h-191v113c0 6 -0.333008 12.333 -1 19s-2.33398 12.667 -5.00098 18s-6.16699 9.83301 -10.5 13.5s-10.166 5.5 -17.499 5.5c-14.667 0 -24.167 -6.16699 -28.5 -18.5s-6.5 -24.5 -6.5 -36.5
v-404c0 -6 0.333008 -12.5 1 -19.5s2.33398 -13.333 5.00098 -19s6.33398 -10.334 11.001 -14.001s10.667 -5.5 18 -5.5c14.667 0 24 5.5 28 16.5s6 23.5 6 37.5v116h-33v115h224v-404h-116l-21 54h-3zM193 786.002v139h136v-139h-136z" />
    <glyph glyph-name="gdotaccent" unicode="&#x121;" horiz-adv-x="544" 
d="M97 114c-26.667 11.333 -45.835 23.166 -57.502 35.499s-17.5 31.166 -17.5 56.499c0 20 7.5 39.333 22.5 58s37.5 33.334 67.5 44.001c-21.333 14 -37.333 31.333 -48 52s-16 46 -16 76c0 60.667 19.5 107.834 58.5 141.501s92.167 50.5 159.5 50.5
c78.667 0 136.667 -17 174 -51c12.667 14 29.334 27 50.001 39s42 19.667 64 23v-109c-31.333 0 -57 -4 -77 -12c3.33301 -9.33301 5.5 -20 6.5 -32s1.5 -26 1.5 -42c0 -22.667 -4.5 -44.334 -13.5 -65.001s-22.5 -39 -40.5 -55s-40.667 -28.667 -68 -38
s-59.666 -14 -96.999 -14c-8 0 -15.167 0.166992 -21.5 0.5s-13.166 0.833008 -20.499 1.5l-21.5 -12.5c-5 -3 -7.5 -6.83301 -7.5 -11.5c0 -9.33301 7.33301 -15 22 -17s31.334 -3 50.001 -3c82.667 0 145.834 -14 189.501 -42s65.5 -76 65.5 -144
c0 -26.667 -5.66699 -51.667 -17 -75s-28 -43.833 -50 -61.5s-49.333 -31.5 -82 -41.5s-70.334 -15 -113.001 -15c-48 0 -87.333 4.5 -118 13.5s-54.834 20.833 -72.501 35.5s-30 31.334 -37 50.001s-10.5 37.667 -10.5 57c0 24 7.16699 45 21.5 63s32.166 31.667 53.499 41
v3zM298.999 474c0 14 -2.5 24.833 -7.5 32.5s-13.5 11.5 -25.5 11.5c-20 0 -30 -14.667 -30 -44v-54c0 -13.333 2 -23.5 6 -30.5s12 -10.5 24 -10.5s20.5 3.33301 25.5 10s7.5 17 7.5 31v54zM231.999 102c-9.33301 -4.66699 -17.832 -11.667 -25.499 -21
s-11.5 -23 -11.5 -41c0 -7.33301 0.833008 -14.666 2.5 -21.999s5 -13.833 10 -19.5s12 -10.334 21 -14.001s21.167 -5.5 36.5 -5.5c25.333 0 43.666 6.5 54.999 19.5s17 26.167 17 39.5c0 19.333 -4.33301 33.5 -13 42.5s-23.667 15.167 -45 18.5c-13.333 2 -29 3 -47 3z
M198 666v139h136v-139h-136z" />
    <glyph glyph-name="Gcommaaccent" unicode="&#x122;" horiz-adv-x="517" 
d="M347 54c-13.333 -22 -30.5 -38.165 -51.5 -48.498s-43.167 -15.5 -66.5 -15.5c-38 0 -69.333 4.83301 -94 14.5s-44.334 23.667 -59.001 42s-25 41.166 -31 68.499s-9 59 -9 95v335c0 19.333 2.16699 41.5 6.5 66.5s14.166 48.833 29.499 71.5s37.833 41.667 67.5 57
s70.167 23 121.5 23c70.667 0 126 -16.833 166 -50.5s60 -89.5 60 -167.5v-78h-191v113c0 6 -0.333008 12.333 -1 19s-2.33398 12.667 -5.00098 18s-6.16699 9.83301 -10.5 13.5s-10.166 5.5 -17.499 5.5c-14.667 0 -24.167 -6.16699 -28.5 -18.5s-6.5 -24.5 -6.5 -36.5
v-404c0 -6 0.333008 -12.5 1 -19.5s2.33398 -13.333 5.00098 -19s6.33398 -10.334 11.001 -14.001s10.667 -5.5 18 -5.5c14.667 0 24 5.5 28 16.5s6 23.5 6 37.5v116h-33v115h224v-404h-116l-21 54h-3zM266 -301.998h-77l37 121h-34v151h147v-150z" />
    <glyph glyph-name="gcommaaccent" unicode="&#x123;" horiz-adv-x="544" 
d="M266 940h77l-37 -121h34v-151h-147v150zM97 114c-26.667 11.333 -45.835 23.166 -57.502 35.499s-17.5 31.166 -17.5 56.499c0 20 7.5 39.333 22.5 58s37.5 33.334 67.5 44.001c-21.333 14 -37.333 31.333 -48 52s-16 46 -16 76c0 60.667 19.5 107.834 58.5 141.501
s92.167 50.5 159.5 50.5c78.667 0 136.667 -17 174 -51c12.667 14 29.334 27 50.001 39s42 19.667 64 23v-109c-31.333 0 -57 -4 -77 -12c3.33301 -9.33301 5.5 -20 6.5 -32s1.5 -26 1.5 -42c0 -22.667 -4.5 -44.334 -13.5 -65.001s-22.5 -39 -40.5 -55
s-40.667 -28.667 -68 -38s-59.666 -14 -96.999 -14c-8 0 -15.167 0.166992 -21.5 0.5s-13.166 0.833008 -20.499 1.5l-21.5 -12.5c-5 -3 -7.5 -6.83301 -7.5 -11.5c0 -9.33301 7.33301 -15 22 -17s31.334 -3 50.001 -3c82.667 0 145.834 -14 189.501 -42s65.5 -76 65.5 -144
c0 -26.667 -5.66699 -51.667 -17 -75s-28 -43.833 -50 -61.5s-49.333 -31.5 -82 -41.5s-70.334 -15 -113.001 -15c-48 0 -87.333 4.5 -118 13.5s-54.834 20.833 -72.501 35.5s-30 31.334 -37 50.001s-10.5 37.667 -10.5 57c0 24 7.16699 45 21.5 63s32.166 31.667 53.499 41
v3zM298.999 474c0 14 -2.5 24.833 -7.5 32.5s-13.5 11.5 -25.5 11.5c-20 0 -30 -14.667 -30 -44v-54c0 -13.333 2 -23.5 6 -30.5s12 -10.5 24 -10.5s20.5 3.33301 25.5 10s7.5 17 7.5 31v54zM231.999 102c-9.33301 -4.66699 -17.832 -11.667 -25.499 -21
s-11.5 -23 -11.5 -41c0 -7.33301 0.833008 -14.666 2.5 -21.999s5 -13.833 10 -19.5s12 -10.334 21 -14.001s21.167 -5.5 36.5 -5.5c25.333 0 43.666 6.5 54.999 19.5s17 26.167 17 39.5c0 19.333 -4.33301 33.5 -13 42.5s-23.667 15.167 -45 18.5c-13.333 2 -29 3 -47 3z
" />
    <glyph glyph-name="Hcircumflex" unicode="&#x124;" horiz-adv-x="531" 
d="M299 0v325h-67v-325h-191v752h191v-286h67v286h191v-752h-191zM268 855l-141 -77l-67 58l141 130h138l136 -130l-67 -58z" />
    <glyph glyph-name="hcircumflex" unicode="&#x125;" horiz-adv-x="491" 
d="M224 579c14.667 15.333 30.835 27.332 48.502 35.999s36.5 13 56.5 13c30 0 53.667 -5 71 -15s30.333 -23.167 39 -39.5s14.167 -35.333 16.5 -57s3.5 -44.5 3.5 -68.5v-448h-183v453c0 6 -0.166992 12.167 -0.5 18.5s-1.33301 12.166 -3 17.499
s-4.33398 9.66602 -8.00098 12.999s-8.83398 5 -15.501 5c-6 0 -11 -1.66699 -15 -5s-7 -7.66602 -9 -12.999s-3.33301 -11.166 -4 -17.499s-1 -12.166 -1 -17.499v-454h-184v772h183v-192zM133.001 860.999l-141 -77l-67 58l141 130h138l136 -130l-67 -58z" />
    <glyph glyph-name="Hbar" unicode="&#x126;" horiz-adv-x="531" 
d="M299 0v325h-67v-325h-191v570h-38v85h38v97h191v-97h67v97h191v-97h27v-85h-27v-570h-191zM299 466v104h-67v-104h67z" />
    <glyph glyph-name="hbar" unicode="&#x127;" horiz-adv-x="491" 
d="M224 529c14.667 15.333 30.835 27.332 48.502 35.999s36.5 13 56.5 13c30 0 53.667 -5 71 -15s30.333 -23.167 39 -39.5s14.167 -35.333 16.5 -57s3.5 -44.5 3.5 -68.5v-398h-183v403c0 6 -0.166992 12.167 -0.5 18.5s-1.33301 12.166 -3 17.499
s-4.33398 9.66602 -8.00098 12.999s-8.83398 5 -15.501 5c-6 0 -11 -1.66699 -15 -5s-7 -7.66602 -9 -12.999s-3.33301 -11.166 -4 -17.499s-1 -12.166 -1 -17.499v-404h-184v632h-36v85h36v55h183v-55h130v-85h-130v-102z" />
    <glyph glyph-name="Itilde" unicode="&#x128;" horiz-adv-x="355" 
d="M81 0v752h190v-752h-190zM365 912c-2 -16.667 -6 -33.501 -12 -50.501s-13.667 -32.333 -23 -46s-20.333 -24.834 -33 -33.501s-26.667 -13 -42 -13c-16.667 0 -31.667 1.83301 -45 5.5s-26.166 7.66699 -38.499 12s-24.5 8.33301 -36.5 12s-25 5.5 -39 5.5
c-10.667 0 -20.5 -2 -29.5 -6s-18.167 -13 -27.5 -27l-49 15c1.33301 13.333 4.16602 28 8.49902 44s10.666 30.833 18.999 44.5s19 25.167 32 34.5s29.167 14 48.5 14c16 0 30.667 -1.66699 44 -5s26 -7.16602 38 -11.499s24 -8.16602 36 -11.499s25 -5 39 -5
c10.667 0 20.834 2.33301 30.501 7s19.167 13.667 28.5 27z" />
    <glyph glyph-name="itilde" unicode="&#x129;" horiz-adv-x="355" 
d="M82 0v617h188v-617h-188zM365 804c-2 -16.667 -6 -33.501 -12 -50.501s-13.667 -32.333 -23 -46s-20.333 -24.834 -33 -33.501s-26.667 -13 -42 -13c-16.667 0 -31.667 1.83301 -45 5.5s-26.166 7.66699 -38.499 12s-24.5 8.33301 -36.5 12s-25 5.5 -39 5.5
c-10.667 0 -20.5 -2 -29.5 -6s-18.167 -13 -27.5 -27l-49 15c1.33301 13.333 4.16602 28 8.49902 44s10.666 30.833 18.999 44.5s19 25.167 32 34.5s29.167 14 48.5 14c16 0 30.667 -1.66699 44 -5s26 -7.16602 38 -11.499s24 -8.16602 36 -11.499s25 -5 39 -5
c10.667 0 20.834 2.33301 30.501 7s19.167 13.667 28.5 27z" />
    <glyph glyph-name="Imacron" unicode="&#x12a;" horiz-adv-x="272" 
d="M41 0v752h190v-752h-190zM-9 802v110h291v-110h-291z" />
    <glyph glyph-name="imacron" unicode="&#x12b;" horiz-adv-x="259" 
d="M36 0v617h188v-617h-188zM-14 672v110h291v-110h-291z" />
    <glyph glyph-name="Ibreve" unicode="&#x12c;" horiz-adv-x="358" 
d="M85 0v752h190v-752h-190zM179 779c-30 0 -56.6689 6 -80.002 18s-43.166 27.167 -59.499 45.5s-28.666 38.166 -36.999 59.499s-12.5 41.666 -12.5 60.999h113c0 -8 1.66699 -16.333 5 -25s8.16602 -16.834 14.499 -24.501s14.333 -13.834 24 -18.501s20.5 -7 32.5 -7
s22.833 2.33301 32.5 7s17.667 10.834 24 18.501s11.166 15.834 14.499 24.501s5 17 5 25h113c0 -19.333 -4.16699 -39.666 -12.5 -60.999s-20.666 -41.166 -36.999 -59.499s-36.166 -33.5 -59.499 -45.5s-50 -18 -80 -18z" />
    <glyph glyph-name="ibreve" unicode="&#x12d;" horiz-adv-x="358" 
d="M85 0v617h188v-617h-188zM178 659c-30 0 -56.6689 6 -80.002 18s-43.166 27.167 -59.499 45.5s-28.666 38.166 -36.999 59.499s-12.5 41.666 -12.5 60.999h113c0 -8 1.66699 -16.333 5 -25s8.16602 -16.834 14.499 -24.501s14.333 -13.834 24 -18.501s20.5 -7 32.5 -7
s22.833 2.33301 32.5 7s17.667 10.834 24 18.501s11.166 15.834 14.499 24.501s5 17 5 25h113c0 -19.333 -4.16699 -39.666 -12.5 -60.999s-20.666 -41.166 -36.999 -59.499s-36.166 -33.5 -59.499 -45.5s-50 -18 -80 -18z" />
    <glyph glyph-name="Iogonek" unicode="&#x12e;" horiz-adv-x="272" 
d="M188 0c-19.333 -18 -32.665 -33.5 -39.998 -46.5s-11 -25.833 -11 -38.5c0 -5.33301 2 -9.66602 6 -12.999s8.66699 -5 14 -5s11.5 1.16699 18.5 3.5s17.167 7.16602 30.5 14.499l27 -75c-12.667 -11.333 -27.834 -20.166 -45.501 -26.499s-34.167 -9.5 -49.5 -9.5
c-14 0 -27.167 2 -39.5 6s-23.333 10 -33 18s-17.334 17.667 -23.001 29s-8.5 24.666 -8.5 39.999c0 21.333 4.66699 40.333 14 57s20.333 32 33 46h-40v752h190v-752h-43z" />
    <glyph glyph-name="iogonek" unicode="&#x12f;" horiz-adv-x="259" 
d="M182 0c-19.333 -18 -32.498 -33.333 -39.498 -46s-10.5 -25.334 -10.5 -38.001c0 -5.33301 2 -9.66602 6 -12.999s8.66699 -5 14 -5s11.5 1.16699 18.5 3.5s17.167 7.16602 30.5 14.499l27 -75c-12.667 -11.333 -27.834 -20.166 -45.501 -26.499s-34.167 -9.5 -49.5 -9.5
c-14 0 -27.167 2 -39.5 6s-23.333 10 -33 18s-17.334 17.667 -23.001 29s-8.5 24.666 -8.5 39.999c0 20.667 4.5 39.334 13.5 56.001s19.833 32 32.5 46h-39v617h188v-617h-42zM36.002 652v120h188v-120h-188z" />
    <glyph glyph-name="Idotaccent" unicode="&#x130;" horiz-adv-x="272" 
d="M41 0v752h190v-752h-190zM72 786v139h136v-139h-136z" />
    <glyph glyph-name="dotlessi" unicode="&#x131;" horiz-adv-x="259" 
d="M36 0v617h188v-617h-188z" />
    <glyph glyph-name="IJ" unicode="&#x132;" horiz-adv-x="734" 
d="M35 0v752h190v-752h-190zM449 169c0 -12.667 1.99707 -24.167 5.99707 -34.5s12.333 -15.5 25 -15.5c11.333 0 18.833 5.66699 22.5 17s5.5 23.333 5.5 36v580h191v-519c0 -26.667 -2.16699 -54.334 -6.5 -83.001s-14 -55 -29 -79s-37.5 -43.667 -67.5 -59
s-70.333 -23 -121 -23c-45.333 0 -82.166 6.16699 -110.499 18.5s-50.166 29.5 -65.499 51.5s-25.666 47.833 -30.999 77.5s-8 61.834 -8 96.501v69h189v-133z" />
    <glyph glyph-name="ij" unicode="&#x133;" horiz-adv-x="536" 
d="M35 652v120h188v-120h-188zM35 0v617h188v-617h-188zM312 652v120h189v-120h-189zM501 92c0 -32 -1.33203 -61.833 -3.99902 -89.5s-9.33398 -51.667 -20.001 -72s-26.667 -36.5 -48 -48.5s-50.333 -18 -87 -18h-87v127h25c11.333 0 19.5 3 24.5 9s7.5 16.667 7.5 32v585
h189v-525z" />
    <glyph glyph-name="Jcircumflex" unicode="&#x134;" horiz-adv-x="460" 
d="M179 170c0 -12.667 1.99707 -24.167 5.99707 -34.5s12.333 -15.5 25 -15.5c11.333 0 18.833 5.66699 22.5 17s5.5 23.333 5.5 36v580h191v-519c0 -26.667 -2.16699 -54.334 -6.5 -83.001s-14 -55 -29 -79s-37.5 -43.667 -67.5 -59s-70.333 -23 -121 -23
c-45.333 0 -82.166 6.16699 -110.499 18.5s-50.166 29.5 -65.499 51.5s-25.666 47.833 -30.999 77.5s-8 61.834 -8 96.501v69h189v-133zM333.997 857l-141 -77l-67 58l141 130h138l136 -130l-67 -58z" />
    <glyph glyph-name="jcircumflex" unicode="&#x135;" horiz-adv-x="265" 
d="M230 92c0 -32 -1.33203 -61.833 -3.99902 -89.5s-9.33398 -51.667 -20.001 -72s-26.667 -36.5 -48 -48.5s-50.333 -18 -87 -18h-87v127h25c11.333 0 19.5 3 24.5 9s7.5 16.667 7.5 32v585h189v-525zM135.001 744l-141 -107l-67 58l141 160h138l136 -160l-67 -58z" />
    <glyph glyph-name="Kcommaaccent" unicode="&#x136;" horiz-adv-x="513" 
d="M238 478l73 274h188l-114 -339l121 -413h-197l-73 304h-4v-304h-191v752h191v-274h6zM265 -299h-77l37 121h-34v151h147v-150z" />
    <glyph glyph-name="kcommaaccent" unicode="&#x137;" horiz-adv-x="473" 
d="M226 444l54 173h188l-103 -249l102 -368h-185l-57 251h-6v-251h-183v752h183v-308h7zM251 -302h-77l37 121h-34v151h147v-150z" />
    <glyph glyph-name="kgreenlandic" unicode="&#x138;" horiz-adv-x="473" 
d="M226 444l54 173h188l-103 -249l102 -368h-185l-57 251h-6v-251h-183v617h183v-173h7z" />
    <glyph glyph-name="Lacute" unicode="&#x139;" horiz-adv-x="358" 
d="M41 0v752h191v-601h116v-151h-307zM53 858l171 135l84 -116l-198 -97z" />
    <glyph glyph-name="lacute" unicode="&#x13a;" horiz-adv-x="259" 
d="M36 0v752h188v-752h-188zM60 864l171 135l84 -116l-198 -97z" />
    <glyph glyph-name="Lcommaaccent" unicode="&#x13b;" horiz-adv-x="358" 
d="M41 0v752h191v-601h116v-151h-307zM194 -302h-77l37 121h-34v151h147v-150z" />
    <glyph glyph-name="lcommaaccent" unicode="&#x13c;" horiz-adv-x="259" 
d="M36 0v752h188v-752h-188zM131 -302h-77l37 121h-34v151h147v-150z" />
    <glyph glyph-name="Lcaron" unicode="&#x13d;" horiz-adv-x="427" 
d="M41 0v752h191v-601h116v-151h-307zM353 479h-77l37 121h-34v151h147v-150z" />
    <glyph glyph-name="lcaron" unicode="&#x13e;" horiz-adv-x="401" 
d="M331 480h-77l37 121h-34v151h147v-150zM36 0v752h188v-752h-188z" />
    <glyph glyph-name="Ldot" unicode="&#x13f;" horiz-adv-x="441" 
d="M41 0v752h191v-601h116v-151h-307zM280 380v139h136v-139h-136z" />
    <glyph glyph-name="ldot" unicode="&#x140;" horiz-adv-x="411" 
d="M260 357v139h136v-139h-136zM36 0v752h188v-752h-188z" />
    <glyph glyph-name="Lslash" unicode="&#x141;" horiz-adv-x="365" 
d="M-32 279l93 56v417h191v-302l56 34l50 -88l-106 -64v-181h116v-151h-307v217l-44 -26z" />
    <glyph glyph-name="lslash" unicode="&#x142;" horiz-adv-x="309" 
d="M-19 327l75 44v381h188v-269l33 20l50 -88l-83 -49v-366h-188v254l-26 -15z" />
    <glyph glyph-name="Nacute" unicode="&#x143;" horiz-adv-x="538" 
d="M323 400v352h174v-752h-182l-54 198l-39 158h-6v-356h-175v752h175l56 -189l45 -163h6zM198 854l171 135l84 -116l-198 -97z" />
    <glyph glyph-name="nacute" unicode="&#x144;" horiz-adv-x="491" 
d="M222 566c26 41.333 63.335 61.998 112.002 61.998c30 0 53.333 -5.66699 70 -17s29 -26.166 37 -44.499s12.833 -39 14.5 -62s2.5 -46.167 2.5 -69.5v-435h-183v456c0 6 -0.333008 12.167 -1 18.5s-1.83398 12.166 -3.50098 17.499s-4.33398 9.66602 -8.00098 12.999
s-8.5 5 -14.5 5s-11 -1.66699 -15 -5s-7 -7.66602 -9 -12.999s-3.5 -11.166 -4.5 -17.499s-1.5 -12.166 -1.5 -17.499v-457h-182v617h170l12 -50zM155.002 708.998l132 184l126 -94l-174 -152z" />
    <glyph glyph-name="Ncommaaccent" unicode="&#x145;" horiz-adv-x="538" 
d="M323 400v352h174v-752h-182l-54 198l-39 158h-6v-356h-175v752h175l56 -189l45 -163h6zM251 -302h-77l37 121h-34v151h147v-150z" />
    <glyph glyph-name="ncommaaccent" unicode="&#x146;" horiz-adv-x="491" 
d="M222 566c26 41.333 63.335 61.998 112.002 61.998c30 0 53.333 -5.66699 70 -17s29 -26.166 37 -44.499s12.833 -39 14.5 -62s2.5 -46.167 2.5 -69.5v-435h-183v456c0 6 -0.333008 12.167 -1 18.5s-1.83398 12.166 -3.50098 17.499s-4.33398 9.66602 -8.00098 12.999
s-8.5 5 -14.5 5s-11 -1.66699 -15 -5s-7 -7.66602 -9 -12.999s-3.5 -11.166 -4.5 -17.499s-1.5 -12.166 -1.5 -17.499v-457h-182v617h170l12 -50zM248.002 -307.002h-77l37 121h-34v151h147v-150z" />
    <glyph glyph-name="Ncaron" unicode="&#x147;" horiz-adv-x="538" 
d="M323 400v352h174v-752h-182l-54 198l-39 158h-6v-356h-175v752h175l56 -189l45 -163h6zM405 966l67 -58l-136 -130h-138l-141 130l67 58l141 -77z" />
    <glyph glyph-name="ncaron" unicode="&#x148;" horiz-adv-x="491" 
d="M222 566c26 41.333 63.335 61.998 112.002 61.998c30 0 53.333 -5.66699 70 -17s29 -26.166 37 -44.499s12.833 -39 14.5 -62s2.5 -46.167 2.5 -69.5v-435h-183v456c0 6 -0.333008 12.167 -1 18.5s-1.83398 12.166 -3.50098 17.499s-4.33398 9.66602 -8.00098 12.999
s-8.5 5 -14.5 5s-11 -1.66699 -15 -5s-7 -7.66602 -9 -12.999s-3.5 -11.166 -4.5 -17.499s-1.5 -12.166 -1.5 -17.499v-457h-182v617h170l12 -50zM387.002 864.998l67 -58l-136 -160h-138l-141 160l67 58l141 -107z" />
    <glyph glyph-name="napostrophe" unicode="&#x149;" horiz-adv-x="612" 
d="M343 566c26 41.333 63.335 61.998 112.002 61.998c30 0 53.333 -5.66699 70 -17s29 -26.166 37 -44.499s12.833 -39 14.5 -62s2.5 -46.167 2.5 -69.5v-435h-183v456c0 6 -0.333008 12.167 -1 18.5s-1.83398 12.166 -3.50098 17.499s-4.33398 9.66602 -8.00098 12.999
s-8.5 5 -14.5 5s-11 -1.66699 -15 -5s-7 -7.66602 -9 -12.999s-3.5 -11.166 -4.5 -17.499s-1.5 -12.166 -1.5 -17.499v-457h-182v617h170l12 -50zM72.002 518.998h-77l37 121h-34v151h147v-150z" />
    <glyph glyph-name="Eng" unicode="&#x14a;" horiz-adv-x="538" 
d="M323 400v352.001h174v-814c0 -18.667 -2.33301 -37 -7 -55s-12.834 -34 -24.501 -48s-27.167 -25.333 -46.5 -34s-43.666 -13 -72.999 -13c-15.333 0 -32.666 1.66699 -51.999 5s-37.666 9 -54.999 17l17 111c3.33301 -0.666992 6.66602 -1 9.99902 -1h9
c17.333 0 28.166 2.66699 32.499 8s6.5 13.666 6.5 24.999v73l-92 330h-6v-356h-175v752h175l56 -189l45 -163h6z" />
    <glyph glyph-name="eng" unicode="&#x14b;" horiz-adv-x="491" 
d="M222 566c26 41.333 63.335 61.999 112.002 61.999c30 0 53.333 -5.66699 70 -17s29 -26.166 37 -44.499s12.833 -39 14.5 -62s2.5 -46.167 2.5 -69.5v-477c0 -18.667 -2.33301 -37 -7 -55s-12.834 -34 -24.501 -48s-27.167 -25.333 -46.5 -34s-43.666 -13 -72.999 -13
c-15.333 0 -32.666 1.66699 -51.999 5s-37.666 9 -54.999 17l17 111c3.33301 -0.666992 6.66602 -1 9.99902 -1h9c17.333 0 28.166 2.66699 32.499 8s6.5 13.666 6.5 24.999v483c0 6 -0.333008 12.167 -1 18.5s-1.83398 12.166 -3.50098 17.499
s-4.33398 9.66602 -8.00098 12.999s-8.5 5 -14.5 5s-11 -1.66699 -15 -5s-7 -7.66602 -9 -12.999s-3.5 -11.166 -4.5 -17.499s-1.5 -12.166 -1.5 -17.499v-457h-182v617h170l12 -50z" />
    <glyph glyph-name="Omacron" unicode="&#x14c;" horiz-adv-x="512" 
d="M477 202c0 -43.333 -6.66504 -78.8311 -19.998 -106.498s-30.5 -49.334 -51.5 -65.001s-44.5 -26.5 -70.5 -32.5s-52 -9 -78 -9c-42 0 -77.167 5.5 -105.5 16.5s-51 26.833 -68 47.5s-29.167 45.334 -36.5 74.001s-11 61 -11 97v321c0 12.667 0.666992 27 2 43
s4.66602 32 9.99902 48s12.666 31.667 21.999 47s22.333 28.833 39 40.5s37 21.167 61 28.5s53 11 87 11c32.667 0 62.667 -4 90 -12s50.5 -20.833 69.5 -38.5s33.833 -40.334 44.5 -68.001s16 -60.834 16 -99.501v-343zM286.002 580.002c0 6 -0.166992 12.333 -0.5 19
s-1.33301 12.667 -3 18s-4.5 9.83301 -8.5 13.5s-9.66699 5.5 -17 5.5s-13 -1.66699 -17 -5s-7 -7.83301 -9 -13.5s-3.16699 -11.667 -3.5 -18s-0.5 -12.5 -0.5 -18.5v-404c0 -6 0.166992 -12.5 0.5 -19.5s1.5 -13.333 3.5 -19s5.16699 -10.334 9.5 -14.001
s10.166 -5.5 17.499 -5.5c6.66699 0 11.834 1.83301 15.501 5.5s6.5 8.33398 8.5 14.001s3.16699 12 3.5 19s0.5 13.5 0.5 19.5v403zM113.002 802.002v110h291v-110h-291z" />
    <glyph glyph-name="omacron" unicode="&#x14d;" horiz-adv-x="480" 
d="M449 209c0 -71.333 -17.6699 -125.669 -53.0029 -163.002s-87.666 -56 -156.999 -56c-43.333 0 -78.5 5.83301 -105.5 17.5s-48.167 27.334 -63.5 47.001s-25.833 42.334 -31.5 68.001s-8.5 52.834 -8.5 81.501v204c0 146 69.667 219 209 219
c30 0 57.833 -3.66699 83.5 -11s47.834 -19.5 66.501 -36.5s33.334 -39.333 44.001 -67s16 -61.834 16 -102.501v-201zM267.997 463.997c0 11.333 -1.5 22.832 -4.5 34.499s-10.833 17.5 -23.5 17.5c-6.66699 0 -12 -1.66699 -16 -5s-7 -7.5 -9 -12.5
s-3.16699 -10.667 -3.5 -17s-0.5 -12.166 -0.5 -17.499v-316c0 -12 1.5 -23.167 4.5 -33.5s11.167 -15.5 24.5 -15.5c12.667 0 20.5 5.16699 23.5 15.5s4.5 21.5 4.5 33.5v316zM90.9971 671.996v110h291v-110h-291z" />
    <glyph glyph-name="Obreve" unicode="&#x14e;" horiz-adv-x="512" 
d="M477 202c0 -43.333 -6.66504 -78.8311 -19.998 -106.498s-30.5 -49.334 -51.5 -65.001s-44.5 -26.5 -70.5 -32.5s-52 -9 -78 -9c-42 0 -77.167 5.5 -105.5 16.5s-51 26.833 -68 47.5s-29.167 45.334 -36.5 74.001s-11 61 -11 97v321c0 12.667 0.666992 27 2 43
s4.66602 32 9.99902 48s12.666 31.667 21.999 47s22.333 28.833 39 40.5s37 21.167 61 28.5s53 11 87 11c32.667 0 62.667 -4 90 -12s50.5 -20.833 69.5 -38.5s33.833 -40.334 44.5 -68.001s16 -60.834 16 -99.501v-343zM286.002 580.002c0 6 -0.166992 12.333 -0.5 19
s-1.33301 12.667 -3 18s-4.5 9.83301 -8.5 13.5s-9.66699 5.5 -17 5.5s-13 -1.66699 -17 -5s-7 -7.83301 -9 -13.5s-3.16699 -11.667 -3.5 -18s-0.5 -12.5 -0.5 -18.5v-404c0 -6 0.166992 -12.5 0.5 -19.5s1.5 -13.333 3.5 -19s5.16699 -10.334 9.5 -14.001
s10.166 -5.5 17.499 -5.5c6.66699 0 11.834 1.83301 15.501 5.5s6.5 8.33398 8.5 14.001s3.16699 12 3.5 19s0.5 13.5 0.5 19.5v403zM256.002 789.002c-30 0 -56.6689 6 -80.002 18s-43.166 27.167 -59.499 45.5s-28.666 38.166 -36.999 59.499s-12.5 41.666 -12.5 60.999
h113c0 -8 1.66699 -16.333 5 -25s8.16602 -16.834 14.499 -24.501s14.333 -13.834 24 -18.501s20.5 -7 32.5 -7s22.833 2.33301 32.5 7s17.667 10.834 24 18.501s11.166 15.834 14.499 24.501s5 17 5 25h113c0 -19.333 -4.16699 -39.666 -12.5 -60.999
s-20.666 -41.166 -36.999 -59.499s-36.166 -33.5 -59.499 -45.5s-50 -18 -80 -18z" />
    <glyph glyph-name="obreve" unicode="&#x14f;" horiz-adv-x="480" 
d="M449 209c0 -71.333 -17.6699 -125.669 -53.0029 -163.002s-87.666 -56 -156.999 -56c-43.333 0 -78.5 5.83301 -105.5 17.5s-48.167 27.334 -63.5 47.001s-25.833 42.334 -31.5 68.001s-8.5 52.834 -8.5 81.501v204c0 146 69.667 219 209 219
c30 0 57.833 -3.66699 83.5 -11s47.834 -19.5 66.501 -36.5s33.334 -39.333 44.001 -67s16 -61.834 16 -102.501v-201zM267.997 463.997c0 11.333 -1.5 22.832 -4.5 34.499s-10.833 17.5 -23.5 17.5c-6.66699 0 -12 -1.66699 -16 -5s-7 -7.5 -9 -12.5
s-3.16699 -10.667 -3.5 -17s-0.5 -12.166 -0.5 -17.499v-316c0 -12 1.5 -23.167 4.5 -33.5s11.167 -15.5 24.5 -15.5c12.667 0 20.5 5.16699 23.5 15.5s4.5 21.5 4.5 33.5v316zM240.997 652.996c-30 0 -56.6689 6 -80.002 18s-43.166 27.167 -59.499 45.5
s-28.666 38.166 -36.999 59.499s-12.5 41.666 -12.5 60.999h113c0 -8 1.66699 -16.333 5 -25s8.16602 -16.834 14.499 -24.501s14.333 -13.834 24 -18.501s20.5 -7 32.5 -7s22.833 2.33301 32.5 7s17.667 10.834 24 18.501s11.166 15.834 14.499 24.501s5 17 5 25h113
c0 -19.333 -4.16699 -39.666 -12.5 -60.999s-20.666 -41.166 -36.999 -59.499s-36.166 -33.5 -59.499 -45.5s-50 -18 -80 -18z" />
    <glyph glyph-name="Ohungarumlaut" unicode="&#x150;" horiz-adv-x="512" 
d="M477 202c0 -43.333 -6.66504 -78.8311 -19.998 -106.498s-30.5 -49.334 -51.5 -65.001s-44.5 -26.5 -70.5 -32.5s-52 -9 -78 -9c-42 0 -77.167 5.5 -105.5 16.5s-51 26.833 -68 47.5s-29.167 45.334 -36.5 74.001s-11 61 -11 97v321c0 12.667 0.666992 27 2 43
s4.66602 32 9.99902 48s12.666 31.667 21.999 47s22.333 28.833 39 40.5s37 21.167 61 28.5s53 11 87 11c32.667 0 62.667 -4 90 -12s50.5 -20.833 69.5 -38.5s33.833 -40.334 44.5 -68.001s16 -60.834 16 -99.501v-343zM286.002 580.002c0 6 -0.166992 12.333 -0.5 19
s-1.33301 12.667 -3 18s-4.5 9.83301 -8.5 13.5s-9.66699 5.5 -17 5.5s-13 -1.66699 -17 -5s-7 -7.83301 -9 -13.5s-3.16699 -11.667 -3.5 -18s-0.5 -12.5 -0.5 -18.5v-404c0 -6 0.166992 -12.5 0.5 -19.5s1.5 -13.333 3.5 -19s5.16699 -10.334 9.5 -14.001
s10.166 -5.5 17.499 -5.5c6.66699 0 11.834 1.83301 15.501 5.5s6.5 8.33398 8.5 14.001s3.16699 12 3.5 19s0.5 13.5 0.5 19.5v403zM301.002 836.002l144 147l92 -98l-173 -115zM100.002 836.002l144 147l92 -98l-173 -115z" />
    <glyph glyph-name="ohungarumlaut" unicode="&#x151;" horiz-adv-x="480" 
d="M449 209c0 -71.333 -17.6699 -125.669 -53.0029 -163.002s-87.666 -56 -156.999 -56c-43.333 0 -78.5 5.83301 -105.5 17.5s-48.167 27.334 -63.5 47.001s-25.833 42.334 -31.5 68.001s-8.5 52.834 -8.5 81.501v204c0 146 69.667 219 209 219
c30 0 57.833 -3.66699 83.5 -11s47.834 -19.5 66.501 -36.5s33.334 -39.333 44.001 -67s16 -61.834 16 -102.501v-201zM267.997 463.997c0 11.333 -1.5 22.832 -4.5 34.499s-10.833 17.5 -23.5 17.5c-6.66699 0 -12 -1.66699 -16 -5s-7 -7.5 -9 -12.5
s-3.16699 -10.667 -3.5 -17s-0.5 -12.166 -0.5 -17.499v-316c0 -12 1.5 -23.167 4.5 -33.5s11.167 -15.5 24.5 -15.5c12.667 0 20.5 5.16699 23.5 15.5s4.5 21.5 4.5 33.5v316zM244.997 708.996l132 184l126 -94l-174 -152zM40.9971 708.996l132 184l126 -94l-174 -152z" />
    <glyph glyph-name="OE" unicode="&#x152;" horiz-adv-x="639" 
d="M343 0c-14 -4 -28.3311 -6.83398 -42.998 -8.50098s-29 -2.5 -43 -2.5c-42 0 -77.167 5.5 -105.5 16.5s-51 26.833 -68 47.5s-29.167 45.334 -36.5 74.001s-11 61 -11 97v321c0 12.667 0.666992 27 2 43s4.66602 32 9.99902 48s12.666 31.667 21.999 47
s22.333 28.833 39 40.5s37 21.167 61 28.5s53 11 87 11c30 0 58.667 -3.66699 86 -11h264v-140h-128v-146h120v-141h-120v-184h141v-141h-277zM286.002 579.999c0 6 -0.166992 12.333 -0.5 19s-1.33301 12.667 -3 18s-4.5 9.83301 -8.5 13.5s-9.66699 5.5 -17 5.5
s-13 -1.66699 -17 -5s-7 -7.83301 -9 -13.5s-3.16699 -11.667 -3.5 -18s-0.5 -12.5 -0.5 -18.5v-404c0 -6 0.166992 -12.5 0.5 -19.5s1.5 -13.333 3.5 -19s5.16699 -10.334 9.5 -14.001s10.166 -5.5 17.499 -5.5c6.66699 0 11.834 1.83301 15.501 5.5
s6.5 8.33398 8.5 14.001s3.16699 12 3.5 19s0.5 13.5 0.5 19.5v403z" />
    <glyph glyph-name="oe" unicode="&#x153;" horiz-adv-x="723" 
d="M455 301l-0.00195312 -153.003c0 -12 1.5 -23.167 4.5 -33.5s11.167 -15.5 24.5 -15.5c12.667 0 20.5 5.16699 23.5 15.5s4.5 21.5 4.5 33.5v109h181v-48c0 -71.333 -17.667 -125.666 -53 -162.999s-87.666 -56 -156.999 -56c-54 0 -96 12.333 -126 37
c-30.667 -24.667 -70 -37 -118 -37c-43.333 0 -78.5 5.83301 -105.5 17.5s-48.167 27.334 -63.5 47.001s-25.833 42.334 -31.5 68.001s-8.5 52.834 -8.5 81.501v204c0 146 69.667 219 209 219c23.333 0 45.166 -3 65.499 -9s39.166 -15.667 56.499 -29
c15.333 13.333 33.333 23 54 29s43.334 9 68.001 9c30 0 57.833 -3.66699 83.5 -11s47.834 -19.5 66.501 -36.5s33.334 -39.333 44.001 -67s16 -61.834 16 -102.501v-109h-238zM267.998 463.997c0 11.333 -1.5 22.832 -4.5 34.499s-10.833 17.5 -23.5 17.5
c-6.66699 0 -12 -1.66699 -16 -5s-7 -7.5 -9 -12.5s-3.16699 -10.667 -3.5 -17s-0.5 -12.166 -0.5 -17.499v-316c0 -12 1.5 -23.167 4.5 -33.5s11.167 -15.5 24.5 -15.5c12.667 0 20.5 5.16699 23.5 15.5s4.5 21.5 4.5 33.5v316zM511.998 408.996v54.999
c0 11.333 -1.5 22.833 -4.5 34.5s-10.833 17.5 -23.5 17.5c-6.66699 0 -12 -1.66699 -16 -5s-7 -7.5 -9 -12.5s-3.16699 -10.667 -3.5 -17s-0.5 -12.166 -0.5 -17.499v-55h57z" />
    <glyph glyph-name="Racute" unicode="&#x154;" horiz-adv-x="505" 
d="M402 397c27.333 -10.667 45.668 -24.6689 55.001 -42.002s14 -41.666 14 -72.999v-210c0 -14 0.333008 -26.667 1 -38s4.66699 -22.666 12 -33.999h-176c-5.33301 9.33301 -8.83301 20.5 -10.5 33.5s-2.5 27.833 -2.5 44.5v172c0 31.333 -4.5 53.833 -13.5 67.5
s-25.833 21.167 -50.5 22.5v-340h-190v753h259c56 0 98.5 -15.5 127.5 -46.5s43.5 -80.833 43.5 -149.5c0 -44.667 -4.83301 -79 -14.5 -103s-27.834 -41.667 -54.501 -53v-4zM231.002 623.998v-167.999c14 0.666992 25.167 2 33.5 4s14.666 6.16699 18.999 12.5
s7.33301 15.166 9 26.499s2.5 26.333 2.5 45c0 16 -0.666992 29.167 -2 39.5s-4.16602 18.5 -8.49902 24.5s-10.5 10.167 -18.5 12.5s-19 3.5 -33 3.5h-2zM168.002 853.999l171 135l84 -116l-198 -97z" />
    <glyph glyph-name="racute" unicode="&#x155;" horiz-adv-x="461" 
d="M223 562c14 19.333 28.499 35.167 43.499 47.5s34.5 18.5 58.5 18.5c30 0 53.167 -5 69.5 -15s28.5 -23.5 36.5 -40.5s12.833 -36.333 14.5 -58s2.5 -44.5 2.5 -68.5v-103h-182v125c0 11.333 -1.33301 21.166 -4 29.499s-9 12.5 -19 12.5
c-9.33301 0 -15.666 -4.16699 -18.999 -12.5s-5 -18.166 -5 -29.499v-468h-183v617h169l12 -54zM135.999 709.001l132 184l126 -94l-174 -152z" />
    <glyph glyph-name="Rcommaaccent" unicode="&#x156;" horiz-adv-x="505" 
d="M402 397c27.333 -10.667 45.668 -24.6689 55.001 -42.002s14 -41.666 14 -72.999v-210c0 -14 0.333008 -26.667 1 -38s4.66699 -22.666 12 -33.999h-176c-5.33301 9.33301 -8.83301 20.5 -10.5 33.5s-2.5 27.833 -2.5 44.5v172c0 31.333 -4.5 53.833 -13.5 67.5
s-25.833 21.167 -50.5 22.5v-340h-190v753h259c56 0 98.5 -15.5 127.5 -46.5s43.5 -80.833 43.5 -149.5c0 -44.667 -4.83301 -79 -14.5 -103s-27.834 -41.667 -54.501 -53v-4zM231.002 623.998v-167.999c14 0.666992 25.167 2 33.5 4s14.666 6.16699 18.999 12.5
s7.33301 15.166 9 26.499s2.5 26.333 2.5 45c0 16 -0.666992 29.167 -2 39.5s-4.16602 18.5 -8.49902 24.5s-10.5 10.167 -18.5 12.5s-19 3.5 -33 3.5h-2zM265.002 -302.001h-77l37 121h-34v151h147v-150z" />
    <glyph glyph-name="rcommaaccent" unicode="&#x157;" horiz-adv-x="461" 
d="M223 562c14 19.333 28.499 35.167 43.499 47.5s34.5 18.5 58.5 18.5c30 0 53.167 -5 69.5 -15s28.5 -23.5 36.5 -40.5s12.833 -36.333 14.5 -58s2.5 -44.5 2.5 -68.5v-103h-182v125c0 11.333 -1.33301 21.166 -4 29.499s-9 12.5 -19 12.5
c-9.33301 0 -15.666 -4.16699 -18.999 -12.5s-5 -18.166 -5 -29.499v-468h-183v617h169l12 -54zM125.999 -301.999h-77l37 121h-34v151h147v-150z" />
    <glyph glyph-name="Rcaron" unicode="&#x158;" horiz-adv-x="505" 
d="M402 397c27.333 -10.667 45.668 -24.6689 55.001 -42.002s14 -41.666 14 -72.999v-210c0 -14 0.333008 -26.667 1 -38s4.66699 -22.666 12 -33.999h-176c-5.33301 9.33301 -8.83301 20.5 -10.5 33.5s-2.5 27.833 -2.5 44.5v172c0 31.333 -4.5 53.833 -13.5 67.5
s-25.833 21.167 -50.5 22.5v-340h-190v753h259c56 0 98.5 -15.5 127.5 -46.5s43.5 -80.833 43.5 -149.5c0 -44.667 -4.83301 -79 -14.5 -103s-27.834 -41.667 -54.501 -53v-4zM231.002 623.998v-167.999c14 0.666992 25.167 2 33.5 4s14.666 6.16699 18.999 12.5
s7.33301 15.166 9 26.499s2.5 26.333 2.5 45c0 16 -0.666992 29.167 -2 39.5s-4.16602 18.5 -8.49902 24.5s-10.5 10.167 -18.5 12.5s-19 3.5 -33 3.5h-2zM381.002 965.999l67 -58l-136 -130h-138l-141 130l67 58l141 -77z" />
    <glyph glyph-name="rcaron" unicode="&#x159;" horiz-adv-x="461" 
d="M223 562c14 19.333 28.499 35.167 43.499 47.5s34.5 18.5 58.5 18.5c30 0 53.167 -5 69.5 -15s28.5 -23.5 36.5 -40.5s12.833 -36.333 14.5 -58s2.5 -44.5 2.5 -68.5v-103h-182v125c0 11.333 -1.33301 21.166 -4 29.499s-9 12.5 -19 12.5
c-9.33301 0 -15.666 -4.16699 -18.999 -12.5s-5 -18.166 -5 -29.499v-468h-183v617h169l12 -54zM349.999 865.001l67 -58l-136 -160h-138l-141 160l67 58l141 -107z" />
    <glyph glyph-name="Sacute" unicode="&#x15a;" horiz-adv-x="485" 
d="M461 192c0 -36.667 -4.99902 -67.835 -14.999 -93.502s-24.333 -46.667 -43 -63s-41.334 -28.166 -68.001 -35.499s-57 -11 -91 -11c-48 0 -86.167 6.83301 -114.5 20.5s-49.833 31.667 -64.5 54s-24 47.5 -28 75.5s-6 56.667 -6 86v52h177v-96
c0 -7.33301 0.333008 -14.666 1 -21.999s2.16699 -14.333 4.5 -21s5.83301 -12 10.5 -16s10.667 -6 18 -6c8 0 14.5 1.83301 19.5 5.5s8.83301 8.33398 11.5 14.001s4.5 12 5.5 19s1.5 13.833 1.5 20.5c0 20.667 -1.5 37.667 -4.5 51s-8.5 25.333 -16.5 36
s-18.833 20.834 -32.5 30.501s-31.5 21.5 -53.5 35.5c-26 16.667 -48.333 32.167 -67 46.5s-34 29.666 -46 45.999s-20.833 35.333 -26.5 57s-8.5 48.167 -8.5 79.5c0 36 5.16699 67 15.5 93s25 47.333 44 64s41.5 29 67.5 37s55 12 87 12c46 0 82.667 -6.33301 110 -19
s48.166 -29 62.499 -49s23.666 -42.5 27.999 -67.5s6.5 -50.167 6.5 -75.5v-43h-178v67c0 15.333 -2 29.166 -6 41.499s-12.667 18.5 -26 18.5s-22 -5.66699 -26 -17s-6 -23 -6 -35c0 -19.333 2.33301 -35.166 7 -47.499s11.834 -23.333 21.501 -33s22 -19.167 37 -28.5
l54.5 -34c30.667 -19.333 55 -37.5 73 -54.5s31.833 -34.667 41.5 -53s15.834 -38.833 18.501 -61.5s4 -49.334 4 -80.001zM142.001 863.999l171 135l84 -116l-198 -97z" />
    <glyph glyph-name="sacute" unicode="&#x15b;" horiz-adv-x="442" 
d="M424 182c0 -68 -17.6611 -117.166 -52.9941 -147.499s-85 -45.5 -149 -45.5c-71.333 0 -122.5 15.167 -153.5 45.5s-46.5 78.166 -46.5 143.499v38l167 1v-42c0 -9.33301 0.166992 -18.5 0.5 -27.5s1.66602 -17.167 3.99902 -24.5s5.83301 -13.333 10.5 -18s11 -7 19 -7
c15.333 0 24.666 5.5 27.999 16.5s5 23.5 5 37.5c0 12 -1.66699 22.667 -5 32s-9.33301 18.5 -18 27.5s-20.334 18.333 -35.001 28s-33.334 21.167 -56.001 34.5c-18.667 10.667 -35.334 21 -50.001 31s-27.167 21.333 -37.5 34s-18.333 27.5 -24 44.5
s-8.5 37.833 -8.5 62.5c0 62.667 17.167 108.667 51.5 138s83.5 44 147.5 44c66 0 115.5 -12.833 148.5 -38.5s49.5 -69.5 49.5 -131.5v-38h-172v52c0 10 -1.66699 20 -5 30s-11.666 15 -24.999 15c-12.667 0 -20.667 -4.66699 -24 -14s-5 -19.333 -5 -30
c0 -13.333 1.66699 -24.666 5 -33.999s8.66602 -17.833 15.999 -25.5s16.666 -14.834 27.999 -21.501s25 -14 41 -22c24.667 -13.333 46.167 -25.5 64.5 -36.5s33.5 -23.333 45.5 -37s21 -29.5 27 -47.5s9 -40.333 9 -67zM137.006 709.001l132 184l126 -94l-174 -152z" />
    <glyph glyph-name="Scircumflex" unicode="&#x15c;" horiz-adv-x="485" 
d="M461 192c0 -36.667 -4.99902 -67.835 -14.999 -93.502s-24.333 -46.667 -43 -63s-41.334 -28.166 -68.001 -35.499s-57 -11 -91 -11c-48 0 -86.167 6.83301 -114.5 20.5s-49.833 31.667 -64.5 54s-24 47.5 -28 75.5s-6 56.667 -6 86v52h177v-96
c0 -7.33301 0.333008 -14.666 1 -21.999s2.16699 -14.333 4.5 -21s5.83301 -12 10.5 -16s10.667 -6 18 -6c8 0 14.5 1.83301 19.5 5.5s8.83301 8.33398 11.5 14.001s4.5 12 5.5 19s1.5 13.833 1.5 20.5c0 20.667 -1.5 37.667 -4.5 51s-8.5 25.333 -16.5 36
s-18.833 20.834 -32.5 30.501s-31.5 21.5 -53.5 35.5c-26 16.667 -48.333 32.167 -67 46.5s-34 29.666 -46 45.999s-20.833 35.333 -26.5 57s-8.5 48.167 -8.5 79.5c0 36 5.16699 67 15.5 93s25 47.333 44 64s41.5 29 67.5 37s55 12 87 12c46 0 82.667 -6.33301 110 -19
s48.166 -29 62.499 -49s23.666 -42.5 27.999 -67.5s6.5 -50.167 6.5 -75.5v-43h-178v67c0 15.333 -2 29.166 -6 41.499s-12.667 18.5 -26 18.5s-22 -5.66699 -26 -17s-6 -23 -6 -35c0 -19.333 2.33301 -35.166 7 -47.499s11.834 -23.333 21.501 -33s22 -19.167 37 -28.5
l54.5 -34c30.667 -19.333 55 -37.5 73 -54.5s31.833 -34.667 41.5 -53s15.834 -38.833 18.501 -61.5s4 -49.334 4 -80.001zM239.001 854.999l-141 -77l-67 58l141 130h138l136 -130l-67 -58z" />
    <glyph glyph-name="scircumflex" unicode="&#x15d;" horiz-adv-x="442" 
d="M424 182c0 -68 -17.6611 -117.166 -52.9941 -147.499s-85 -45.5 -149 -45.5c-71.333 0 -122.5 15.167 -153.5 45.5s-46.5 78.166 -46.5 143.499v38l167 1v-42c0 -9.33301 0.166992 -18.5 0.5 -27.5s1.66602 -17.167 3.99902 -24.5s5.83301 -13.333 10.5 -18s11 -7 19 -7
c15.333 0 24.666 5.5 27.999 16.5s5 23.5 5 37.5c0 12 -1.66699 22.667 -5 32s-9.33301 18.5 -18 27.5s-20.334 18.333 -35.001 28s-33.334 21.167 -56.001 34.5c-18.667 10.667 -35.334 21 -50.001 31s-27.167 21.333 -37.5 34s-18.333 27.5 -24 44.5
s-8.5 37.833 -8.5 62.5c0 62.667 17.167 108.667 51.5 138s83.5 44 147.5 44c66 0 115.5 -12.833 148.5 -38.5s49.5 -69.5 49.5 -131.5v-38h-172v52c0 10 -1.66699 20 -5 30s-11.666 15 -24.999 15c-12.667 0 -20.667 -4.66699 -24 -14s-5 -19.333 -5 -30
c0 -13.333 1.66699 -24.666 5 -33.999s8.66602 -17.833 15.999 -25.5s16.666 -14.834 27.999 -21.501s25 -14 41 -22c24.667 -13.333 46.167 -25.5 64.5 -36.5s33.5 -23.333 45.5 -37s21 -29.5 27 -47.5s9 -40.333 9 -67zM224.006 744.001l-141 -107l-67 58l141 160h138
l136 -160l-67 -58z" />
    <glyph glyph-name="Scedilla" unicode="&#x15e;" horiz-adv-x="485" 
d="M461 192c0 -66.667 -15.999 -115.672 -47.999 -147.005s-77 -49.333 -135 -54l-15 -34h8c24 0 44.333 -6.5 61 -19.5s25 -31.167 25 -54.5c0 -15.333 -3.16699 -28.333 -9.5 -39s-14.833 -19.667 -25.5 -27s-22.667 -12.666 -36 -15.999s-27.333 -5 -42 -5
c-18.667 0 -36.5 2.33301 -53.5 7s-33.833 10.667 -50.5 18l20 55c15.333 -5.33301 28.833 -9 40.5 -11s23.167 -3 34.5 -3c8 0 14.167 2 18.5 6s6.5 9 6.5 15c0 8 -3 13.833 -9 17.5s-13 5.5 -21 5.5c-3.33301 0 -6.83301 -0.333008 -10.5 -1s-8.83398 -2.66699 -15.501 -6
l-23 23l31 69c-40.667 2.66699 -73 11.334 -97 26.001s-42.167 32.834 -54.5 54.501s-20.333 45.834 -24 72.501s-5.5 53.667 -5.5 81v52h177v-96c0 -7.33301 0.333008 -14.666 1 -21.999s2.16699 -14.333 4.5 -21s5.83301 -12 10.5 -16s10.667 -6 18 -6
c8 0 14.5 1.83301 19.5 5.5s8.83301 8.33398 11.5 14.001s4.5 12 5.5 19s1.5 13.833 1.5 20.5c0 20.667 -1.5 37.667 -4.5 51s-8.5 25.333 -16.5 36s-18.833 20.834 -32.5 30.501s-31.5 21.5 -53.5 35.5c-26 16.667 -48.333 32.167 -67 46.5s-34 29.666 -46 45.999
s-20.833 35.333 -26.5 57s-8.5 48.167 -8.5 79.5c0 36 5.16699 67 15.5 93s25 47.333 44 64s41.5 29 67.5 37s55 12 87 12c46 0 82.667 -6.33301 110 -19s48.166 -29 62.499 -49s23.666 -42.5 27.999 -67.5s6.5 -50.167 6.5 -75.5v-43h-178v67c0 15.333 -2 29.166 -6 41.499
s-12.667 18.5 -26 18.5s-22 -5.66699 -26 -17s-6 -23 -6 -35c0 -19.333 2.33301 -35.166 7 -47.499s11.834 -23.333 21.501 -33s22 -19.167 37 -28.5l54.5 -34c30.667 -19.333 55 -37.5 73 -54.5s31.833 -34.667 41.5 -53s15.834 -38.833 18.501 -61.5s4 -49.334 4 -80.001z
" />
    <glyph glyph-name="scedilla" unicode="&#x15f;" horiz-adv-x="442" 
d="M424 182c0 -62 -14.3262 -108.001 -42.9932 -138.001s-69.667 -47.667 -123 -53l-15 -34h8c24 0 44.333 -6.5 61 -19.5s25 -31.167 25 -54.5c0 -15.333 -3.16699 -28.333 -9.5 -39s-14.833 -19.667 -25.5 -27s-22.667 -12.666 -36 -15.999s-27.333 -5 -42 -5
c-18.667 0 -36.5 2.33301 -53.5 7s-33.833 10.667 -50.5 18l20 55c15.333 -5.33301 28.833 -9 40.5 -11s23.167 -3 34.5 -3c8 0 14.167 2 18.5 6s6.5 9 6.5 15c0 8 -3 13.833 -9 17.5s-13 5.5 -21 5.5c-3.33301 0 -6.83301 -0.333008 -10.5 -1s-8.83398 -2.66699 -15.501 -6
l-23 23l31 68c-60.667 4 -104.167 21.167 -130.5 51.5s-39.5 75.833 -39.5 136.5v38l167 1v-42c0 -9.33301 0.166992 -18.5 0.5 -27.5s1.66602 -17.167 3.99902 -24.5s5.83301 -13.333 10.5 -18s11 -7 19 -7c15.333 0 24.666 5.5 27.999 16.5s5 23.5 5 37.5
c0 12 -1.66699 22.667 -5 32s-9.33301 18.5 -18 27.5s-20.334 18.333 -35.001 28s-33.334 21.167 -56.001 34.5c-18.667 10.667 -35.334 21 -50.001 31s-27.167 21.333 -37.5 34s-18.333 27.5 -24 44.5s-8.5 37.833 -8.5 62.5c0 62.667 17.167 108.667 51.5 138
s83.5 44 147.5 44c66 0 115.5 -12.833 148.5 -38.5s49.5 -69.5 49.5 -131.5v-38h-172v52c0 10 -1.66699 20 -5 30s-11.666 15 -24.999 15c-12.667 0 -20.667 -4.66699 -24 -14s-5 -19.333 -5 -30c0 -13.333 1.66699 -24.666 5 -33.999s8.66602 -17.833 15.999 -25.5
s16.666 -14.834 27.999 -21.501s25 -14 41 -22c24.667 -13.333 46.167 -25.5 64.5 -36.5s33.5 -23.333 45.5 -37s21 -29.5 27 -47.5s9 -40.333 9 -67z" />
    <glyph glyph-name="Scaron" unicode="&#x160;" horiz-adv-x="485" 
d="M461 192c0 -36.667 -4.99902 -67.835 -14.999 -93.502s-24.333 -46.667 -43 -63s-41.334 -28.166 -68.001 -35.499s-57 -11 -91 -11c-48 0 -86.167 6.83301 -114.5 20.5s-49.833 31.667 -64.5 54s-24 47.5 -28 75.5s-6 56.667 -6 86v52h177v-96
c0 -7.33301 0.333008 -14.666 1 -21.999s2.16699 -14.333 4.5 -21s5.83301 -12 10.5 -16s10.667 -6 18 -6c8 0 14.5 1.83301 19.5 5.5s8.83301 8.33398 11.5 14.001s4.5 12 5.5 19s1.5 13.833 1.5 20.5c0 20.667 -1.5 37.667 -4.5 51s-8.5 25.333 -16.5 36
s-18.833 20.834 -32.5 30.501s-31.5 21.5 -53.5 35.5c-26 16.667 -48.333 32.167 -67 46.5s-34 29.666 -46 45.999s-20.833 35.333 -26.5 57s-8.5 48.167 -8.5 79.5c0 36 5.16699 67 15.5 93s25 47.333 44 64s41.5 29 67.5 37s55 12 87 12c46 0 82.667 -6.33301 110 -19
s48.166 -29 62.499 -49s23.666 -42.5 27.999 -67.5s6.5 -50.167 6.5 -75.5v-43h-178v67c0 15.333 -2 29.166 -6 41.499s-12.667 18.5 -26 18.5s-22 -5.66699 -26 -17s-6 -23 -6 -35c0 -19.333 2.33301 -35.166 7 -47.499s11.834 -23.333 21.501 -33s22 -19.167 37 -28.5
l54.5 -34c30.667 -19.333 55 -37.5 73 -54.5s31.833 -34.667 41.5 -53s15.834 -38.833 18.501 -61.5s4 -49.334 4 -80.001zM383.001 975.999l67 -58l-136 -130h-138l-141 130l67 58l141 -77z" />
    <glyph glyph-name="scaron" unicode="&#x161;" horiz-adv-x="442" 
d="M424 182c0 -68 -17.6611 -117.166 -52.9941 -147.499s-85 -45.5 -149 -45.5c-71.333 0 -122.5 15.167 -153.5 45.5s-46.5 78.166 -46.5 143.499v38l167 1v-42c0 -9.33301 0.166992 -18.5 0.5 -27.5s1.66602 -17.167 3.99902 -24.5s5.83301 -13.333 10.5 -18s11 -7 19 -7
c15.333 0 24.666 5.5 27.999 16.5s5 23.5 5 37.5c0 12 -1.66699 22.667 -5 32s-9.33301 18.5 -18 27.5s-20.334 18.333 -35.001 28s-33.334 21.167 -56.001 34.5c-18.667 10.667 -35.334 21 -50.001 31s-27.167 21.333 -37.5 34s-18.333 27.5 -24 44.5
s-8.5 37.833 -8.5 62.5c0 62.667 17.167 108.667 51.5 138s83.5 44 147.5 44c66 0 115.5 -12.833 148.5 -38.5s49.5 -69.5 49.5 -131.5v-38h-172v52c0 10 -1.66699 20 -5 30s-11.666 15 -24.999 15c-12.667 0 -20.667 -4.66699 -24 -14s-5 -19.333 -5 -30
c0 -13.333 1.66699 -24.666 5 -33.999s8.66602 -17.833 15.999 -25.5s16.666 -14.834 27.999 -21.501s25 -14 41 -22c24.667 -13.333 46.167 -25.5 64.5 -36.5s33.5 -23.333 45.5 -37s21 -29.5 27 -47.5s9 -40.333 9 -67zM364.006 875.001l67 -58l-136 -160h-138l-141 160
l67 58l141 -107z" />
    <glyph glyph-name="Tcommaaccent" unicode="&#x162;" horiz-adv-x="443" 
d="M316 612v-612h-191v612h-113v140h417v-140h-113zM223 -302h-77l37 121h-34v151h147v-150z" />
    <glyph glyph-name="tcommaaccent" unicode="&#x163;" horiz-adv-x="314" 
d="M239 513l-0.00292969 -351.001c0 -30 3 -59.333 9 -88s14 -53.334 24 -74.001h-182c-3.33301 6 -7.16602 13.333 -11.499 22s-8.16602 19.334 -11.499 32.001s-6.16602 27.834 -8.49902 45.501s-3.5 38.5 -3.5 62.5v351h-49v104h49v107l184 40v-147h68v-104h-68z
M156.997 -302.001h-77l37 121h-34v151h147v-150z" />
    <glyph glyph-name="Tcaron" unicode="&#x164;" horiz-adv-x="443" 
d="M316 612v-612h-191v612h-113v140h417v-140h-113zM368 966l67 -58l-136 -130h-138l-141 130l67 58l141 -77z" />
    <glyph glyph-name="tcaron" unicode="&#x165;" horiz-adv-x="424" 
d="M372 670h-77l37 121h-34v151h147v-150zM254 513l-0.00292969 -351.001c0 -30 3 -59.333 9 -88s14 -53.334 24 -74.001h-182c-3.33301 6 -7.16602 13.333 -11.499 22s-8.16602 19.334 -11.499 32.001s-6.16602 27.834 -8.49902 45.501s-3.5 38.5 -3.5 62.5v351h-49v104h49
v107l184 40v-147h68v-104h-68z" />
    <glyph glyph-name="Tbar" unicode="&#x166;" horiz-adv-x="443" 
d="M316 612v-131h90v-100h-90v-381h-191v381h-83v100h83v131h-113v140h417v-140h-113z" />
    <glyph glyph-name="tbar" unicode="&#x167;" horiz-adv-x="314" 
d="M239 513l-0.00292969 -123.001h65v-85h-65v-143c0 -30 3 -59.333 9 -88s14 -53.334 24 -74.001h-182c-3.33301 6 -7.16602 13.333 -11.499 22s-8.16602 19.334 -11.499 32.001s-6.16602 27.834 -8.49902 45.501s-3.5 38.5 -3.5 62.5v143h-52v85h52v123h-49v104h49v107
l184 40v-147h68v-104h-68z" />
    <glyph glyph-name="Utilde" unicode="&#x168;" horiz-adv-x="517" 
d="M479 753v-551c0 -43.333 -6.66699 -78.833 -20 -106.5s-30.5 -49.334 -51.5 -65.001s-44.5 -26.5 -70.5 -32.5s-52 -9 -78 -9c-42 0 -77.167 5.5 -105.5 16.5s-51 26.833 -68 47.5s-29.167 45.334 -36.5 74.001s-11 61 -11 97v529h191v-576
c0 -6 0.166992 -12.5 0.5 -19.5s1.5 -13.333 3.5 -19s5.16699 -10.334 9.5 -14.001s10.166 -5.5 17.499 -5.5c6.66699 0 11.834 1.83301 15.501 5.5s6.5 8.33398 8.5 14.001s3.16699 12 3.5 19s0.5 13.5 0.5 19.5v576h191zM446 924c-2 -16.667 -6 -33.501 -12 -50.501
s-13.667 -32.333 -23 -46s-20.333 -24.834 -33 -33.501s-26.667 -13 -42 -13c-16.667 0 -31.667 1.83301 -45 5.5s-26.166 7.66699 -38.499 12s-24.5 8.33301 -36.5 12s-25 5.5 -39 5.5c-10.667 0 -20.5 -2 -29.5 -6s-18.167 -13 -27.5 -27l-49 15
c1.33301 13.333 4.16602 28 8.49902 44s10.666 30.833 18.999 44.5s19 25.167 32 34.5s29.167 14 48.5 14c16 0 30.667 -1.66699 44 -5s26 -7.16602 38 -11.499s24 -8.16602 36 -11.499s25 -5 39 -5c10.667 0 20.834 2.33301 30.501 7s19.167 13.667 28.5 27z" />
    <glyph glyph-name="utilde" unicode="&#x169;" horiz-adv-x="490" 
d="M270 51c-26 -41.333 -63.335 -61.998 -112.002 -61.998c-30 0 -53.333 5.66699 -70 17s-29 26.166 -37 44.499s-12.833 39 -14.5 62s-2.5 46.167 -2.5 69.5v435h183v-456c0 -6 0.333008 -12.167 1 -18.5s1.83398 -12.166 3.50098 -17.499
s4.33398 -9.66602 8.00098 -12.999s8.5 -5 14.5 -5s11 1.66699 15 5s7 7.66602 9 12.999s3.5 11.166 4.5 17.499s1.5 12.166 1.5 17.499v457h182v-617h-170l-12 50zM434.998 804.002c-2 -16.667 -6 -33.501 -12 -50.501s-13.667 -32.333 -23 -46
s-20.333 -24.834 -33 -33.501s-26.667 -13 -42 -13c-16.667 0 -31.667 1.83301 -45 5.5s-26.166 7.66699 -38.499 12s-24.5 8.33301 -36.5 12s-25 5.5 -39 5.5c-10.667 0 -20.5 -2 -29.5 -6s-18.167 -13 -27.5 -27l-49 15c1.33301 13.333 4.16602 28 8.49902 44
s10.666 30.833 18.999 44.5s19 25.167 32 34.5s29.167 14 48.5 14c16 0 30.667 -1.66699 44 -5s26 -7.16602 38 -11.499s24 -8.16602 36 -11.499s25 -5 39 -5c10.667 0 20.834 2.33301 30.501 7s19.167 13.667 28.5 27z" />
    <glyph glyph-name="Umacron" unicode="&#x16a;" horiz-adv-x="517" 
d="M479 753v-551c0 -43.333 -6.66699 -78.833 -20 -106.5s-30.5 -49.334 -51.5 -65.001s-44.5 -26.5 -70.5 -32.5s-52 -9 -78 -9c-42 0 -77.167 5.5 -105.5 16.5s-51 26.833 -68 47.5s-29.167 45.334 -36.5 74.001s-11 61 -11 97v529h191v-576
c0 -6 0.166992 -12.5 0.5 -19.5s1.5 -13.333 3.5 -19s5.16699 -10.334 9.5 -14.001s10.166 -5.5 17.499 -5.5c6.66699 0 11.834 1.83301 15.501 5.5s6.5 8.33398 8.5 14.001s3.16699 12 3.5 19s0.5 13.5 0.5 19.5v576h191zM114 802v110h291v-110h-291z" />
    <glyph glyph-name="umacron" unicode="&#x16b;" horiz-adv-x="490" 
d="M270 51c-26 -41.333 -63.335 -61.998 -112.002 -61.998c-30 0 -53.333 5.66699 -70 17s-29 26.166 -37 44.499s-12.833 39 -14.5 62s-2.5 46.167 -2.5 69.5v435h183v-456c0 -6 0.333008 -12.167 1 -18.5s1.83398 -12.166 3.50098 -17.499
s4.33398 -9.66602 8.00098 -12.999s8.5 -5 14.5 -5s11 1.66699 15 5s7 7.66602 9 12.999s3.5 11.166 4.5 17.499s1.5 12.166 1.5 17.499v457h182v-617h-170l-12 50zM99.998 672.002v110h291v-110h-291z" />
    <glyph glyph-name="Ubreve" unicode="&#x16c;" horiz-adv-x="517" 
d="M479 753v-551c0 -43.333 -6.66699 -78.833 -20 -106.5s-30.5 -49.334 -51.5 -65.001s-44.5 -26.5 -70.5 -32.5s-52 -9 -78 -9c-42 0 -77.167 5.5 -105.5 16.5s-51 26.833 -68 47.5s-29.167 45.334 -36.5 74.001s-11 61 -11 97v529h191v-576
c0 -6 0.166992 -12.5 0.5 -19.5s1.5 -13.333 3.5 -19s5.16699 -10.334 9.5 -14.001s10.166 -5.5 17.499 -5.5c6.66699 0 11.834 1.83301 15.501 5.5s6.5 8.33398 8.5 14.001s3.16699 12 3.5 19s0.5 13.5 0.5 19.5v576h191zM257 779c-30 0 -56.6689 6 -80.002 18
s-43.166 27.167 -59.499 45.5s-28.666 38.166 -36.999 59.499s-12.5 41.666 -12.5 60.999h113c0 -8 1.66699 -16.333 5 -25s8.16602 -16.834 14.499 -24.501s14.333 -13.834 24 -18.501s20.5 -7 32.5 -7s22.833 2.33301 32.5 7s17.667 10.834 24 18.501
s11.166 15.834 14.499 24.501s5 17 5 25h113c0 -19.333 -4.16699 -39.666 -12.5 -60.999s-20.666 -41.166 -36.999 -59.499s-36.166 -33.5 -59.499 -45.5s-50 -18 -80 -18z" />
    <glyph glyph-name="ubreve" unicode="&#x16d;" horiz-adv-x="490" 
d="M270 51c-26 -41.333 -63.335 -61.998 -112.002 -61.998c-30 0 -53.333 5.66699 -70 17s-29 26.166 -37 44.499s-12.833 39 -14.5 62s-2.5 46.167 -2.5 69.5v435h183v-456c0 -6 0.333008 -12.167 1 -18.5s1.83398 -12.166 3.50098 -17.499
s4.33398 -9.66602 8.00098 -12.999s8.5 -5 14.5 -5s11 1.66699 15 5s7 7.66602 9 12.999s3.5 11.166 4.5 17.499s1.5 12.166 1.5 17.499v457h182v-617h-170l-12 50zM243.998 653.002c-30 0 -56.6689 6 -80.002 18s-43.166 27.167 -59.499 45.5
s-28.666 38.166 -36.999 59.499s-12.5 41.666 -12.5 60.999h113c0 -8 1.66699 -16.333 5 -25s8.16602 -16.834 14.499 -24.501s14.333 -13.834 24 -18.501s20.5 -7 32.5 -7s22.833 2.33301 32.5 7s17.667 10.834 24 18.501s11.166 15.834 14.499 24.501s5 17 5 25h113
c0 -19.333 -4.16699 -39.666 -12.5 -60.999s-20.666 -41.166 -36.999 -59.499s-36.166 -33.5 -59.499 -45.5s-50 -18 -80 -18z" />
    <glyph glyph-name="Uring" unicode="&#x16e;" horiz-adv-x="517" 
d="M479 753v-551c0 -43.333 -6.66699 -78.833 -20 -106.5s-30.5 -49.334 -51.5 -65.001s-44.5 -26.5 -70.5 -32.5s-52 -9 -78 -9c-42 0 -77.167 5.5 -105.5 16.5s-51 26.833 -68 47.5s-29.167 45.334 -36.5 74.001s-11 61 -11 97v529h191v-576
c0 -6 0.166992 -12.5 0.5 -19.5s1.5 -13.333 3.5 -19s5.16699 -10.334 9.5 -14.001s10.166 -5.5 17.499 -5.5c6.66699 0 11.834 1.83301 15.501 5.5s6.5 8.33398 8.5 14.001s3.16699 12 3.5 19s0.5 13.5 0.5 19.5v576h191zM256 763c-17.333 0 -33.833 3.5 -49.5 10.5
s-29.334 16.5 -41.001 28.5s-21 26 -28 42s-10.5 33.333 -10.5 52c0 17.333 3.5 33.833 10.5 49.5s16.5 29.334 28.5 41.001s26.167 21 42.5 28s33.5 10.5 51.5 10.5c17.333 0 33.833 -3.5 49.5 -10.5s29.334 -16.333 41.001 -28s21 -25.334 28 -41.001
s10.5 -32.167 10.5 -49.5c0 -18 -3.5 -35.167 -10.5 -51.5s-16.5 -30.5 -28.5 -42.5s-26 -21.5 -42 -28.5s-33.333 -10.5 -52 -10.5zM260 929c-10.667 0 -19.332 -3.16699 -25.999 -9.5s-10 -14.166 -10 -23.499c0 -10.667 3.16699 -19.334 9.5 -26.001
s15.166 -10 26.499 -10c9.33301 0 17.166 3.33301 23.499 10s9.5 15.334 9.5 26.001c0 9.33301 -3.16699 17.166 -9.5 23.499s-14.166 9.5 -23.499 9.5z" />
    <glyph glyph-name="uring" unicode="&#x16f;" horiz-adv-x="490" 
d="M270 51c-26 -41.333 -63.335 -61.998 -112.002 -61.998c-30 0 -53.333 5.66699 -70 17s-29 26.166 -37 44.499s-12.833 39 -14.5 62s-2.5 46.167 -2.5 69.5v435h183v-456c0 -6 0.333008 -12.167 1 -18.5s1.83398 -12.166 3.50098 -17.499
s4.33398 -9.66602 8.00098 -12.999s8.5 -5 14.5 -5s11 1.66699 15 5s7 7.66602 9 12.999s3.5 11.166 4.5 17.499s1.5 12.166 1.5 17.499v457h182v-617h-170l-12 50zM243.998 643.002c-17.333 0 -33.833 3.5 -49.5 10.5s-29.334 16.5 -41.001 28.5s-21 26 -28 42
s-10.5 33.333 -10.5 52c0 17.333 3.5 33.833 10.5 49.5s16.5 29.334 28.5 41.001s26.167 21 42.5 28s33.5 10.5 51.5 10.5c17.333 0 33.833 -3.5 49.5 -10.5s29.334 -16.333 41.001 -28s21 -25.334 28 -41.001s10.5 -32.167 10.5 -49.5c0 -18 -3.5 -35.167 -10.5 -51.5
s-16.5 -30.5 -28.5 -42.5s-26 -21.5 -42 -28.5s-33.333 -10.5 -52 -10.5zM247.998 809.002c-10.667 0 -19.332 -3.16699 -25.999 -9.5s-10 -14.166 -10 -23.499c0 -10.667 3.16699 -19.334 9.5 -26.001s15.166 -10 26.499 -10c9.33301 0 17.166 3.33301 23.499 10
s9.5 15.334 9.5 26.001c0 9.33301 -3.16699 17.166 -9.5 23.499s-14.166 9.5 -23.499 9.5z" />
    <glyph glyph-name="Uhungarumlaut" unicode="&#x170;" horiz-adv-x="517" 
d="M479 753v-551c0 -43.333 -6.66699 -78.833 -20 -106.5s-30.5 -49.334 -51.5 -65.001s-44.5 -26.5 -70.5 -32.5s-52 -9 -78 -9c-42 0 -77.167 5.5 -105.5 16.5s-51 26.833 -68 47.5s-29.167 45.334 -36.5 74.001s-11 61 -11 97v529h191v-576
c0 -6 0.166992 -12.5 0.5 -19.5s1.5 -13.333 3.5 -19s5.16699 -10.334 9.5 -14.001s10.166 -5.5 17.499 -5.5c6.66699 0 11.834 1.83301 15.501 5.5s6.5 8.33398 8.5 14.001s3.16699 12 3.5 19s0.5 13.5 0.5 19.5v576h191zM272 836l144 147l92 -98l-173 -115zM71 836
l144 147l92 -98l-173 -115z" />
    <glyph glyph-name="uhungarumlaut" unicode="&#x171;" horiz-adv-x="490" 
d="M270 51c-26 -41.333 -63.335 -61.998 -112.002 -61.998c-30 0 -53.333 5.66699 -70 17s-29 26.166 -37 44.499s-12.833 39 -14.5 62s-2.5 46.167 -2.5 69.5v435h183v-456c0 -6 0.333008 -12.167 1 -18.5s1.83398 -12.166 3.50098 -17.499
s4.33398 -9.66602 8.00098 -12.999s8.5 -5 14.5 -5s11 1.66699 15 5s7 7.66602 9 12.999s3.5 11.166 4.5 17.499s1.5 12.166 1.5 17.499v457h182v-617h-170l-12 50zM262.998 709.002l132 184l126 -94l-174 -152zM58.998 709.002l132 184l126 -94l-174 -152z" />
    <glyph glyph-name="Uogonek" unicode="&#x172;" horiz-adv-x="517" 
d="M479 753l0.00488281 -551.002c0 -37.333 -4.83301 -68.666 -14.5 -93.999s-22.667 -46.166 -39 -62.499s-35 -28.666 -56 -36.999s-42.833 -13.833 -65.5 -16.5c-15.333 -15.333 -25.833 -28.833 -31.5 -40.5s-8.5 -23.167 -8.5 -34.5c0 -5.33301 2 -9.66602 6 -12.999
s8.66699 -5 14 -5s11.5 1.16699 18.5 3.5s17.167 7.16602 30.5 14.499l27 -75c-12.667 -11.333 -27.834 -20.166 -45.501 -26.499s-34.167 -9.5 -49.5 -9.5c-14 0 -27.167 2 -39.5 6s-23.333 10 -33 18s-17.334 17.667 -23.001 29s-8.5 24.666 -8.5 39.999
c0 18.667 3.66699 35.667 11 51s16.666 29.666 27.999 42.999c-30.667 4.66699 -56.334 13.5 -77.001 26.5s-37.334 29.5 -50.001 49.5s-21.667 43 -27 69s-8 54.667 -8 86v529h191v-576c0 -6 0.166992 -12.5 0.5 -19.5s1.5 -13.333 3.5 -19s5.16699 -10.334 9.5 -14.001
s10.166 -5.5 17.499 -5.5c6.66699 0 11.834 1.83301 15.501 5.5s6.5 8.33398 8.5 14.001s3.16699 12 3.5 19s0.5 13.5 0.5 19.5v576h191z" />
    <glyph glyph-name="uogonek" unicode="&#x173;" horiz-adv-x="490" 
d="M270 51c-26 -41.333 -63.332 -61.9961 -111.999 -61.9961c-30 0 -53.333 5.66699 -70 17s-29 26.166 -37 44.499s-12.833 39 -14.5 62s-2.5 46.167 -2.5 69.5v435h183v-456c0 -6 0.333008 -12.167 1 -18.5s1.83398 -12.166 3.50098 -17.499
s4.33398 -9.66602 8.00098 -12.999s8.5 -5 14.5 -5s11 1.66699 15 5s7 7.66602 9 12.999s3.5 11.166 4.5 17.499s1.5 12.166 1.5 17.499v457h182v-617h-69c-18.667 -17.333 -31.334 -32.333 -38.001 -45s-10 -25.334 -10 -38.001c0 -5.33301 2 -9.66602 6 -12.999
s8.66699 -5 14 -5s11.5 1.16699 18.5 3.5s17.167 7.16602 30.5 14.499l27 -75c-12.667 -11.333 -27.834 -20.166 -45.501 -26.499s-34.167 -9.5 -49.5 -9.5c-14 0 -27.167 2 -39.5 6s-23.333 10 -33 18s-17.334 17.667 -23.001 29s-8.5 24.666 -8.5 39.999
c0 21.333 4.83301 40.666 14.5 57.999s21.167 33 34.5 47l-11 46z" />
    <glyph glyph-name="Wcircumflex" unicode="&#x174;" horiz-adv-x="776" 
d="M684 0h-238l-26 190l-30 229h-5l-27 -233l-23 -186h-237l-85 752h185l20 -281l17 -247h4l24 248l29 280h195l21 -277l21 -256h4l24 252l27 281h185zM389 855l-141 -77l-67 58l141 130h138l136 -130l-67 -58z" />
    <glyph glyph-name="wcircumflex" unicode="&#x175;" horiz-adv-x="662" 
d="M579 0h-209l-17 142l-19 179h-4l-19 -176l-19 -145h-209l-78 617h158l20 -189l17 -213h4l18 212l21 190h172l18 -188l15 -216h5l20 216l22 188h157zM333 744l-141 -107l-67 58l141 160h138l136 -160l-67 -58z" />
    <glyph glyph-name="Ycircumflex" unicode="&#x176;" horiz-adv-x="469" 
d="M319 272v-272h-177v272l-135 480h179l23 -152l22 -168h4l25 170l25 150h173zM235 855l-141 -77l-67 58l141 130h138l136 -130l-67 -58z" />
    <glyph glyph-name="ycircumflex" unicode="&#x177;" horiz-adv-x="458" 
d="M359 75c-4 -23.333 -8.83398 -47.5 -14.501 -72.5s-15.167 -47.833 -28.5 -68.5s-31.666 -37.5 -54.999 -50.5s-54.333 -19.5 -93 -19.5h-108v127h26c25.333 0 38 11.333 38 34c0 6.66699 -1 14.667 -3 24l-116 568h178l26 -203l25 -217h5l19 217l19 203h172z
M238.999 744l-141 -107l-67 58l141 160h138l136 -160l-67 -58z" />
    <glyph glyph-name="Ydieresis" unicode="&#x178;" horiz-adv-x="469" 
d="M319 272v-272h-177v272l-135 480h179l23 -152l22 -168h4l25 170l25 150h173zM261 783v139h136v-139h-136zM71 783v139h136v-139h-136z" />
    <glyph glyph-name="Zacute" unicode="&#x179;" horiz-adv-x="385" 
d="M15 0v121l152 491h-134v140h334v-129l-147 -481h147v-142h-352zM103 854l171 135l84 -116l-198 -97z" />
    <glyph glyph-name="zacute" unicode="&#x17a;" horiz-adv-x="361" 
d="M16 0v122l152 378h-143v117h313v-127l-149 -373h149v-117h-322zM90 709l132 184l126 -94l-174 -152z" />
    <glyph glyph-name="Zdotaccent" unicode="&#x17b;" horiz-adv-x="385" 
d="M15 0v121l152 491h-134v140h334v-129l-147 -481h147v-142h-352zM141 786v139h136v-139h-136z" />
    <glyph glyph-name="zdotaccent" unicode="&#x17c;" horiz-adv-x="361" 
d="M16 0v122l152 378h-143v117h313v-127l-149 -373h149v-117h-322zM126 666v139h136v-139h-136z" />
    <glyph glyph-name="Zcaron" unicode="&#x17d;" horiz-adv-x="385" 
d="M15 0v121l152 491h-134v140h334v-129l-147 -481h147v-142h-352zM355 966l67 -58l-136 -130h-138l-141 130l67 58l141 -77z" />
    <glyph glyph-name="zcaron" unicode="&#x17e;" horiz-adv-x="361" 
d="M16 0v122l152 378h-143v117h313v-127l-149 -373h149v-117h-322zM314 865l67 -58l-136 -160h-138l-141 160l67 58l141 -107z" />
    <glyph glyph-name="florin" unicode="&#x192;" 
d="M179 381l-52.001 -0.000976562v112h67l18 119c2.66699 17.333 7.33398 34.666 14.001 51.999s16.5 32.833 29.5 46.5s29.5 24.667 49.5 33s44.667 12.5 74 12.5c10.667 0 25.334 -0.666992 44.001 -2s38 -4 58 -8l-19 -131c-11.333 2 -20.5 3.16699 -27.5 3.5
s-12.167 0.5 -15.5 0.5c-8 0 -14.667 -1.66699 -20 -5s-9.5 -7.16602 -12.5 -11.499s-5.16699 -9.16602 -6.5 -14.499s-2.33301 -10 -3 -14l-11 -81h65v-112h-81l-47 -342c-2 -17.333 -6.5 -34.333 -13.5 -51s-17 -31.834 -30 -45.501s-29.5 -24.667 -49.5 -33
s-44.333 -12.5 -73 -12.5c-10.667 0 -24.834 0.666992 -42.501 2s-37.167 4 -58.5 8l23 130c8 -1.33301 16 -2.16602 24 -2.49902s12.667 -0.5 14 -0.5c8.66699 0 15.5 1.5 20.5 4.5s9 6.66699 12 11s5 9 6 14s1.83301 9.5 2.5 13.5z" />
    <glyph glyph-name="AEacute" unicode="&#x1fc;" horiz-adv-x="662" 
d="M312 0v186h-85l-36 -186h-193l178 752h454v-150h-128v-143h120v-143h-120v-165h141v-151h-331zM252 316h60v285h-6zM293 854l171 135l84 -116l-198 -97z" />
    <glyph glyph-name="aeacute" unicode="&#x1fd;" horiz-adv-x="712" 
d="M445 301l-0.00585938 -153.007c0 -12 1.5 -23.167 4.5 -33.5s11.167 -15.5 24.5 -15.5c12.667 0 20.5 5.16699 23.5 15.5s4.5 21.5 4.5 33.5v109h181v-48c0 -71.333 -17.667 -125.666 -53 -162.999s-87.666 -56 -156.999 -56c-36 0 -66.333 4 -91 12s-45 19 -61 33
c-13.333 -10.667 -26.833 -19 -40.5 -25s-27 -10.5 -40 -13.5s-25.5 -5 -37.5 -6s-23.333 -1.5 -34 -1.5c-48.667 0 -84 10.333 -106 31s-33 50.334 -33 89.001v92c0 22.667 2.33301 41.834 7 57.501s12 29.334 22 41.001s23 22.167 39 31.5s35.667 19.333 59 30l77 35
c10 4.66699 17 11.334 21 20.001s6 17 6 25v33c0 15.333 -2.16699 26.5 -6.5 33.5s-12.166 10.5 -23.499 10.5c-12 0 -19.833 -4.16699 -23.5 -12.5s-5.5 -18.166 -5.5 -29.499v-70h-172v27c0 66.667 17.833 115.834 53.5 147.501s86.834 47.5 153.501 47.5
c27.333 0 50.833 -2.16699 70.5 -6.5s37.167 -10.166 52.5 -17.499c30.667 15.333 68.334 23 113.001 23c30 0 57.833 -3.66699 83.5 -11s47.834 -19.5 66.501 -36.5s33.334 -39.333 44.001 -67s16 -61.834 16 -102.501v-109h-238zM259.994 280.993
c-18.667 -8.66699 -33 -18.667 -43 -30s-15 -24.333 -15 -39v-59c0 -12.667 1.33301 -25 4 -37s11.667 -18 27 -18c6 0 10.833 1.83301 14.5 5.5s6.5 8.16699 8.5 13.5s3.16699 11.333 3.5 18s0.5 13 0.5 19v127zM501.994 408.993v54.999c0 11.333 -1.5 22.833 -4.5 34.5
s-10.833 17.5 -23.5 17.5c-6.66699 0 -12 -1.66699 -16 -5s-7 -7.5 -9 -12.5s-3.16699 -10.667 -3.5 -17s-0.5 -12.166 -0.5 -17.499v-55h57zM283.994 708.992l132 184l126 -94l-174 -152z" />
    <glyph glyph-name="Oslashacute" unicode="&#x1fe;" horiz-adv-x="512" 
d="M34 -14l39.001 80.001c-13.333 20 -22.833 43.333 -28.5 70s-8.5 56 -8.5 88v321c0 12.667 0.666992 27 2 43s4.66602 32 9.99902 48s12.666 31.667 21.999 47s22.333 28.833 39 40.5s37 21.167 61 28.5s53 11 87 11c28 0 53.833 -2.83301 77.5 -8.5
s44.834 -14.834 63.501 -27.501l21 43h60l-41 -83c26 -35.333 39 -82.666 39 -141.999v-343c0 -43.333 -6.66699 -78.833 -20 -106.5s-30.5 -49.334 -51.5 -65.001s-44.5 -26.5 -70.5 -32.5s-52 -9 -78 -9c-32 0 -59.833 3.16699 -83.5 9.5s-44.167 15.5 -61.5 27.5l-19 -40
h-59zM171.001 854.001l171 135l84 -116l-198 -97zM286.001 378.001l-59 -120v-81c0 -6 0.166992 -12.5 0.5 -19.5s1.5 -13.333 3.5 -19s5.16699 -10.334 9.5 -14.001s10.166 -5.5 17.499 -5.5c6.66699 0 11.834 1.83301 15.501 5.5s6.5 8.33398 8.5 14.001
s3.16699 12 3.5 19s0.5 13.5 0.5 19.5v201zM227.001 379.001l59 120v81c0 6 -0.166992 12.333 -0.5 19s-1.33301 12.667 -3 18s-4.5 9.83301 -8.5 13.5s-9.66699 5.5 -17 5.5s-13 -1.66699 -17 -5s-7 -7.83301 -9 -13.5s-3.16699 -11.667 -3.5 -18s-0.5 -12.5 -0.5 -18.5
v-202z" />
    <glyph glyph-name="oslashacute" unicode="&#x1ff;" horiz-adv-x="480" 
d="M31 -12l37.9971 66.999c-15.333 19.333 -25.666 41.833 -30.999 67.5s-8 52.834 -8 81.501v204c0 146 69.667 219 209 219c26 0 50.5 -2.83301 73.5 -8.5s43.5 -14.834 61.5 -27.501l20 36h57l-41 -71c12.667 -17.333 22.334 -38 29.001 -62s10 -52 10 -84v-201
c0 -71.333 -17.667 -125.666 -53 -162.999s-87.666 -56 -156.999 -56c-30 0 -56 2.83301 -78 8.5s-41 13.5 -57 23.5l-19 -34h-54zM156.997 708.999l132 184l126 -94l-174 -152zM210.997 304.999l57 99.999v59c0 11.333 -1.5 22.833 -4.5 34.5s-10.833 17.5 -23.5 17.5
c-6.66699 0 -12 -1.66699 -16 -5s-7 -7.5 -9 -12.5s-3.16699 -10.667 -3.5 -17s-0.5 -12.166 -0.5 -17.499v-159zM267.997 307.998l-57 -100v-60c0 -12 1.5 -23.167 4.5 -33.5s11.167 -15.5 24.5 -15.5c12.667 0 20.5 5.16699 23.5 15.5s4.5 21.5 4.5 33.5v160z" />
    <glyph glyph-name="Scommaaccent" unicode="&#x218;" horiz-adv-x="485" 
d="M461 192c0 -36.667 -4.99902 -67.835 -14.999 -93.502s-24.333 -46.667 -43 -63s-41.334 -28.166 -68.001 -35.499s-57 -11 -91 -11c-48 0 -86.167 6.83301 -114.5 20.5s-49.833 31.667 -64.5 54s-24 47.5 -28 75.5s-6 56.667 -6 86v52h177v-96
c0 -7.33301 0.333008 -14.666 1 -21.999s2.16699 -14.333 4.5 -21s5.83301 -12 10.5 -16s10.667 -6 18 -6c8 0 14.5 1.83301 19.5 5.5s8.83301 8.33398 11.5 14.001s4.5 12 5.5 19s1.5 13.833 1.5 20.5c0 20.667 -1.5 37.667 -4.5 51s-8.5 25.333 -16.5 36
s-18.833 20.834 -32.5 30.501s-31.5 21.5 -53.5 35.5c-26 16.667 -48.333 32.167 -67 46.5s-34 29.666 -46 45.999s-20.833 35.333 -26.5 57s-8.5 48.167 -8.5 79.5c0 36 5.16699 67 15.5 93s25 47.333 44 64s41.5 29 67.5 37s55 12 87 12c46 0 82.667 -6.33301 110 -19
s48.166 -29 62.499 -49s23.666 -42.5 27.999 -67.5s6.5 -50.167 6.5 -75.5v-43h-178v67c0 15.333 -2 29.166 -6 41.499s-12.667 18.5 -26 18.5s-22 -5.66699 -26 -17s-6 -23 -6 -35c0 -19.333 2.33301 -35.166 7 -47.499s11.834 -23.333 21.501 -33s22 -19.167 37 -28.5
l54.5 -34c30.667 -19.333 55 -37.5 73 -54.5s31.833 -34.667 41.5 -53s15.834 -38.833 18.501 -61.5s4 -49.334 4 -80.001zM246.001 -302.001h-77l37 121h-34v151h147v-150z" />
    <glyph glyph-name="scommaaccent" unicode="&#x219;" horiz-adv-x="442" 
d="M424 182c0 -68 -17.6611 -117.166 -52.9941 -147.499s-85 -45.5 -149 -45.5c-71.333 0 -122.5 15.167 -153.5 45.5s-46.5 78.166 -46.5 143.499v38l167 1v-42c0 -9.33301 0.166992 -18.5 0.5 -27.5s1.66602 -17.167 3.99902 -24.5s5.83301 -13.333 10.5 -18s11 -7 19 -7
c15.333 0 24.666 5.5 27.999 16.5s5 23.5 5 37.5c0 12 -1.66699 22.667 -5 32s-9.33301 18.5 -18 27.5s-20.334 18.333 -35.001 28s-33.334 21.167 -56.001 34.5c-18.667 10.667 -35.334 21 -50.001 31s-27.167 21.333 -37.5 34s-18.333 27.5 -24 44.5
s-8.5 37.833 -8.5 62.5c0 62.667 17.167 108.667 51.5 138s83.5 44 147.5 44c66 0 115.5 -12.833 148.5 -38.5s49.5 -69.5 49.5 -131.5v-38h-172v52c0 10 -1.66699 20 -5 30s-11.666 15 -24.999 15c-12.667 0 -20.667 -4.66699 -24 -14s-5 -19.333 -5 -30
c0 -13.333 1.66699 -24.666 5 -33.999s8.66602 -17.833 15.999 -25.5s16.666 -14.834 27.999 -21.501s25 -14 41 -22c24.667 -13.333 46.167 -25.5 64.5 -36.5s33.5 -23.333 45.5 -37s21 -29.5 27 -47.5s9 -40.333 9 -67zM223.006 -301.999h-77l37 121h-34v151h147v-150z
" />
    <glyph glyph-name="schwa" unicode="&#x259;" horiz-adv-x="480" 
d="M212 209v-54.999c0 -11.333 1.5 -22.833 4.5 -34.5s10.833 -17.5 23.5 -17.5c6.66699 0 12 1.66699 16 5s7 7.5 9 12.5s3.16699 10.667 3.5 17s0.5 12.166 0.5 17.499v55h-57zM269 317.001l0.00292969 153.003c0 12 -1.5 23.167 -4.5 33.5s-11.167 15.5 -24.5 15.5
c-12.667 0 -20.5 -5.16699 -23.5 -15.5s-4.5 -21.5 -4.5 -33.5v-109h-181v48c0 71.333 17.667 125.666 53 162.999s87.666 56 156.999 56c43.333 0 78.5 -5.83301 105.5 -17.5s48.167 -27.334 63.5 -47.001s25.833 -42.334 31.5 -68.001s8.5 -52.834 8.5 -81.501v-204
c0 -146 -69.667 -219 -209 -219c-30 0 -57.833 3.66699 -83.5 11s-47.834 19.5 -66.501 36.5s-33.334 39.333 -44.001 67s-16 61.834 -16 102.501v109h238z" />
    <glyph glyph-name="primemod" unicode="&#x2b9;" horiz-adv-x="247" 
d="M286 706l-148 -304l-97 28l109 322z" />
    <glyph glyph-name="circumflex" unicode="&#x2c6;" horiz-adv-x="473" 
d="M239 744l-141 -107l-67 58l141 160h138l136 -160l-67 -58z" />
    <glyph glyph-name="caron" unicode="&#x2c7;" horiz-adv-x="473" 
d="M379 865l67 -58l-136 -160h-138l-141 160l67 58l141 -107z" />
    <glyph glyph-name="breve" unicode="&#x2d8;" horiz-adv-x="490" 
d="M248 653c-30 0 -56.6689 6 -80.002 18s-43.166 27.167 -59.499 45.5s-28.666 38.166 -36.999 59.499s-12.5 41.666 -12.5 60.999h113c0 -8 1.66699 -16.333 5 -25s8.16602 -16.834 14.499 -24.501s14.333 -13.834 24 -18.501s20.5 -7 32.5 -7s22.833 2.33301 32.5 7
s17.667 10.834 24 18.501s11.166 15.834 14.499 24.501s5 17 5 25h113c0 -19.333 -4.16699 -39.666 -12.5 -60.999s-20.666 -41.166 -36.999 -59.499s-36.166 -33.5 -59.499 -45.5s-50 -18 -80 -18z" />
    <glyph glyph-name="dotaccent" unicode="&#x2d9;" horiz-adv-x="490" 
d="M174 666v139h136v-139h-136z" />
    <glyph glyph-name="ring" unicode="&#x2da;" horiz-adv-x="490" 
d="M254 643c-17.333 0 -33.833 3.5 -49.5 10.5s-29.334 16.5 -41.001 28.5s-21 26 -28 42s-10.5 33.333 -10.5 52c0 17.333 3.5 33.833 10.5 49.5s16.5 29.334 28.5 41.001s26.167 21 42.5 28s33.5 10.5 51.5 10.5c17.333 0 33.833 -3.5 49.5 -10.5
s29.334 -16.333 41.001 -28s21 -25.334 28 -41.001s10.5 -32.167 10.5 -49.5c0 -18 -3.5 -35.167 -10.5 -51.5s-16.5 -30.5 -28.5 -42.5s-26 -21.5 -42 -28.5s-33.333 -10.5 -52 -10.5zM258 809c-10.667 0 -19.332 -3.16699 -25.999 -9.5s-10 -14.166 -10 -23.499
c0 -10.667 3.16699 -19.334 9.5 -26.001s15.166 -10 26.499 -10c9.33301 0 17.166 3.33301 23.499 10s9.5 15.334 9.5 26.001c0 9.33301 -3.16699 17.166 -9.5 23.499s-14.166 9.5 -23.499 9.5z" />
    <glyph glyph-name="ogonek" unicode="&#x2db;" horiz-adv-x="490" 
d="M373 9l10.002 -8c-20 -18.667 -33.667 -34.5 -41 -47.5s-11 -25.833 -11 -38.5c0 -5.33301 2 -9.66602 6 -12.999s8.66699 -5 14 -5s11.5 1.16699 18.5 3.5s17.167 7.16602 30.5 14.499l27 -75c-12.667 -11.333 -27.834 -20.166 -45.501 -26.499s-34.167 -9.5 -49.5 -9.5
c-14 0 -27.167 2 -39.5 6s-23.333 10 -33 18s-17.334 17.667 -23.001 29s-8.5 24.666 -8.5 39.999c0 23.333 5.66699 44 17 62s24.333 34.667 39 50h89z" />
    <glyph glyph-name="tilde" unicode="&#x2dc;" horiz-adv-x="395" 
d="M385 804c-2 -16.667 -6 -33.501 -12 -50.501s-13.667 -32.333 -23 -46s-20.333 -24.834 -33 -33.501s-26.667 -13 -42 -13c-16.667 0 -31.667 1.83301 -45 5.5s-26.166 7.66699 -38.499 12s-24.5 8.33301 -36.5 12s-25 5.5 -39 5.5c-10.667 0 -20.5 -2 -29.5 -6
s-18.167 -13 -27.5 -27l-49 15c1.33301 13.333 4.16602 28 8.49902 44s10.666 30.833 18.999 44.5s19 25.167 32 34.5s29.167 14 48.5 14c16 0 30.667 -1.66699 44 -5s26 -7.16602 38 -11.499s24 -8.16602 36 -11.499s25 -5 39 -5c10.667 0 20.834 2.33301 30.501 7
s19.167 13.667 28.5 27z" />
    <glyph glyph-name="hungarumlaut" unicode="&#x2dd;" horiz-adv-x="490" 
d="M250 709l132 184l126 -94l-174 -152zM46 709l132 184l126 -94l-174 -152z" />
    <glyph glyph-name="tonos" unicode="&#x384;" horiz-adv-x="480" 
d="M147 709l132 184l126 -94l-174 -152z" />
    <glyph glyph-name="dieresistonos" unicode="&#x385;" horiz-adv-x="580" 
d="M384 666v139h136v-139h-136zM69 666v139h136v-139h-136zM220 657l18 225l157 -16l-71 -221z" />
    <glyph glyph-name="Alphatonos" unicode="&#x386;" horiz-adv-x="511" 
d="M308 0l-10 135h-78l-11 -135h-193l100 752h278l104 -752h-190zM255 614l-10 -150l-14 -195h55l-14 196l-10 149h-7zM-182 609l132 184l126 -94l-174 -152z" />
    <glyph glyph-name="anoteleia" unicode="&#x387;" horiz-adv-x="218" 
d="M31 372v171h154v-171h-154z" />
    <glyph glyph-name="Epsilontonos" unicode="&#x388;" horiz-adv-x="391" 
d="M41 0v752h318v-140h-128v-146h120v-141h-120v-184h141v-141h-331zM-232 609l132 184l126 -94l-174 -152z" />
    <glyph glyph-name="Etatonos" unicode="&#x389;" horiz-adv-x="531" 
d="M299 0v325h-67v-325h-191v752h191v-286h67v286h191v-752h-191zM-230 609l132 184l126 -94l-174 -152z" />
    <glyph glyph-name="Iotatonos" unicode="&#x38a;" horiz-adv-x="272" 
d="M41 0v752h190v-752h-190zM-228 609l132 184l126 -94l-174 -152z" />
    <glyph glyph-name="Omicrontonos" unicode="&#x38c;" horiz-adv-x="512" 
d="M477 202c0 -43.333 -6.66504 -78.8311 -19.998 -106.498s-30.5 -49.334 -51.5 -65.001s-44.5 -26.5 -70.5 -32.5s-52 -9 -78 -9c-42 0 -77.167 5.5 -105.5 16.5s-51 26.833 -68 47.5s-29.167 45.334 -36.5 74.001s-11 61 -11 97v321c0 12.667 0.666992 27 2 43
s4.66602 32 9.99902 48s12.666 31.667 21.999 47s22.333 28.833 39 40.5s37 21.167 61 28.5s53 11 87 11c32.667 0 62.667 -4 90 -12s50.5 -20.833 69.5 -38.5s33.833 -40.334 44.5 -68.001s16 -60.834 16 -99.501v-343zM286.002 580.002c0 6 -0.166992 12.333 -0.5 19
s-1.33301 12.667 -3 18s-4.5 9.83301 -8.5 13.5s-9.66699 5.5 -17 5.5s-13 -1.66699 -17 -5s-7 -7.83301 -9 -13.5s-3.16699 -11.667 -3.5 -18s-0.5 -12.5 -0.5 -18.5v-404c0 -6 0.166992 -12.5 0.5 -19.5s1.5 -13.333 3.5 -19s5.16699 -10.334 9.5 -14.001
s10.166 -5.5 17.499 -5.5c6.66699 0 11.834 1.83301 15.501 5.5s6.5 8.33398 8.5 14.001s3.16699 12 3.5 19s0.5 13.5 0.5 19.5v403zM-210.998 609.002l132 184l126 -94l-174 -152z" />
    <glyph glyph-name="Upsilontonos" unicode="&#x38e;" horiz-adv-x="469" 
d="M319 272v-272h-177v272l-135 480h179l23 -152l22 -168h4l25 170l25 150h173zM-249 609l132 184l126 -94l-174 -152z" />
    <glyph glyph-name="Omegatonos" unicode="&#x38f;" horiz-adv-x="512" 
d="M443 142h54.002v-142h-227v152c9.33301 3.33301 15.166 10.5 17.499 21.5s3.5 22.167 3.5 33.5v373c0 6 -0.333008 12.333 -1 19s-2.33398 12.667 -5.00098 18s-6.16699 9.83301 -10.5 13.5s-10.166 5.5 -17.499 5.5s-13.166 -1.66699 -17.499 -5
s-7.83301 -7.83301 -10.5 -13.5s-4.33398 -11.667 -5.00098 -18s-1 -12.5 -1 -18.5v-374c0 -10 1 -20.5 3 -31.5s7.33301 -18.833 16 -23.5v-152h-224v142h54v6c-8 6.66699 -14.667 15.334 -20 26.001s-9.5 22.334 -12.5 35.001s-5 26 -6 40s-1.5 28 -1.5 42v254
c0 19.333 2.16699 41.5 6.5 66.5s14.166 48.833 29.499 71.5s37.833 41.667 67.5 57s70.167 23 121.5 23c32.667 0 62.834 -4 90.501 -12s51.5 -20.833 71.5 -38.5s35.5 -40.334 46.5 -68.001s16.5 -60.834 16.5 -99.501v-276c0 -27.333 -2.83301 -51.5 -8.5 -72.5
s-15.834 -37.167 -30.501 -48.5v-6zM-208.998 609l132 184l126 -94l-174 -152z" />
    <glyph glyph-name="iotadieresistonos" unicode="&#x390;" horiz-adv-x="275" 
d="M46 0v617h188v-617h-188zM239 666v139h136v-139h-136zM-76 666v139h136v-139h-136zM75 657l18 225l157 -16l-71 -221z" />
    <glyph glyph-name="Alpha" unicode="&#x391;" horiz-adv-x="511" 
d="M308 0l-10 135h-78l-11 -135h-193l100 752h278l104 -752h-190zM255 614l-10 -150l-14 -195h55l-14 196l-10 149h-7z" />
    <glyph glyph-name="Beta" unicode="&#x392;" horiz-adv-x="518" 
d="M485 202c-1.33301 -64 -21.167 -113.666 -59.5 -148.999s-93.5 -53 -165.5 -53h-219v752h217c36.667 0 68.5 -3 95.5 -9s49.167 -16.333 66.5 -31s30.333 -34.167 39 -58.5s13 -54.833 13 -91.5c0 -43.333 -8.83301 -76.833 -26.5 -100.5s-41.167 -39.834 -70.5 -48.501
v-3c24 -6 43.167 -15 57.5 -27s25.5 -25.5 33.5 -40.5s13.333 -30.5 16 -46.5s4 -31 4 -45zM231.999 461.001c24.667 0.666992 41.332 7.16699 49.999 19.5s13 32.833 13 61.5c0 12.667 -0.5 23.667 -1.5 33s-3.66699 17.333 -8 24s-10.666 11.667 -18.999 15
s-19.833 5 -34.5 5v-158zM294.997 264.001c0 25.333 -5.16699 43.001 -15.5 53.001s-26.166 15.667 -47.499 17v-201c23.333 1.33301 39.666 7.16602 48.999 17.499s14 29.5 14 57.5v56z" />
    <glyph glyph-name="Gamma" unicode="&#x393;" horiz-adv-x="374" 
d="M232 612v-612h-191v752h323v-140h-132z" />
    <glyph glyph-name="Delta" unicode="&#x394;" horiz-adv-x="511" 
d="M16 0l101 752h277l104 -752h-482zM255 604l-10 -133l-27 -329h81l-27 330l-10 132h-7z" />
    <glyph glyph-name="Delta" unicode="&#x2206;" horiz-adv-x="511" 
d="M16 0l101 752h277l104 -752h-482zM255 604l-10 -133l-27 -329h81l-27 330l-10 132h-7z" />
    <glyph glyph-name="Epsilon" unicode="&#x395;" horiz-adv-x="391" 
d="M41 0v752h318v-140h-128v-146h120v-141h-120v-184h141v-141h-331z" />
    <glyph glyph-name="Zeta" unicode="&#x396;" horiz-adv-x="385" 
d="M15 0v121l152 491h-134v140h334v-129l-147 -481h147v-142h-352z" />
    <glyph glyph-name="Eta" unicode="&#x397;" horiz-adv-x="531" 
d="M299 0v325h-67v-325h-191v752h191v-286h67v286h191v-752h-191z" />
    <glyph glyph-name="Theta" unicode="&#x398;" horiz-adv-x="512" 
d="M477 202c0 -43.333 -6.66504 -78.8311 -19.998 -106.498s-30.5 -49.334 -51.5 -65.001s-44.5 -26.5 -70.5 -32.5s-52 -9 -78 -9c-42 0 -77.167 5.5 -105.5 16.5s-51 26.833 -68 47.5s-29.167 45.334 -36.5 74.001s-11 61 -11 97v321c0 12.667 0.666992 27 2 43
s4.66602 32 9.99902 48s12.666 31.667 21.999 47s22.333 28.833 39 40.5s37 21.167 61 28.5s53 11 87 11c32.667 0 62.667 -4 90 -12s50.5 -20.833 69.5 -38.5s33.833 -40.334 44.5 -68.001s16 -60.834 16 -99.501v-343zM286.002 324.002h-59v-147
c0 -6 0.166992 -12.5 0.5 -19.5s1.5 -13.333 3.5 -19s5.16699 -10.334 9.5 -14.001s10.166 -5.5 17.499 -5.5c6.66699 0 11.834 1.83301 15.501 5.5s6.5 8.33398 8.5 14.001s3.16699 12 3.5 19s0.5 13.5 0.5 19.5v147zM227.002 466.002h59v114c0 6 -0.166992 12.333 -0.5 19
s-1.33301 12.667 -3 18s-4.5 9.83301 -8.5 13.5s-9.66699 5.5 -17 5.5s-13 -1.66699 -17 -5s-7 -7.83301 -9 -13.5s-3.16699 -11.667 -3.5 -18s-0.5 -12.5 -0.5 -18.5v-115z" />
    <glyph glyph-name="Iota" unicode="&#x399;" horiz-adv-x="272" 
d="M41 0v752h190v-752h-190z" />
    <glyph glyph-name="Kappa" unicode="&#x39a;" horiz-adv-x="513" 
d="M238 478l73 274h188l-114 -339l121 -413h-197l-73 304h-4v-304h-191v752h191v-274h6z" />
    <glyph glyph-name="Lambda" unicode="&#x39b;" horiz-adv-x="511" 
d="M272 465l-10 149h-7l-10 -150l-36 -464h-193l100 752h278l104 -752h-190z" />
    <glyph glyph-name="Mu" unicode="&#x39c;" horiz-adv-x="684" 
d="M347 355l34 217l30 180h231v-752h-174v378h-5l-30 -138l-34 -131h-113l-37 134l-31 129h-5v-372h-179v752h220l39 -176l46 -221h8z" />
    <glyph glyph-name="Nu" unicode="&#x39d;" horiz-adv-x="538" 
d="M323 400v352h174v-752h-182l-54 198l-39 158h-6v-356h-175v752h175l56 -189l45 -163h6z" />
    <glyph glyph-name="Xi" unicode="&#x39e;" horiz-adv-x="429" 
d="M18 0v142h109v183h-84v141h84v147h-109v139h390v-139h-111v-147h85v-141h-85v-183h111v-142h-390z" />
    </font>
</defs>
</svg>
